<svg width="45" height="45" viewBox="0 0 45 45" fill="none" xmlns="http://www.w3.org/2000/svg">
<path d="M35.1562 39.375H26.4621C27.9226 38.0709 29.2999 36.6766 30.5859 35.2002C35.4111 29.6508 37.9688 23.8008 37.9688 18.2812C37.9688 14.1787 36.339 10.2441 33.4381 7.34319C30.5371 4.44224 26.6026 2.8125 22.5 2.8125C18.3974 2.8125 14.4629 4.44224 11.5619 7.34319C8.66099 10.2441 7.03125 14.1787 7.03125 18.2812C7.03125 23.8008 9.58184 29.6508 14.4141 35.2002C15.7001 36.6766 17.0774 38.0709 18.5379 39.375H9.84375C9.47079 39.375 9.1131 39.5232 8.84938 39.7869C8.58566 40.0506 8.4375 40.4083 8.4375 40.7812C8.4375 41.1542 8.58566 41.5119 8.84938 41.7756C9.1131 42.0393 9.47079 42.1875 9.84375 42.1875H35.1562C35.5292 42.1875 35.8869 42.0393 36.1506 41.7756C36.4143 41.5119 36.5625 41.1542 36.5625 40.7812C36.5625 40.4083 36.4143 40.0506 36.1506 39.7869C35.8869 39.5232 35.5292 39.375 35.1562 39.375ZM9.84375 18.2812C9.84375 14.9246 11.1772 11.7054 13.5507 9.33193C15.9242 6.95842 19.1434 5.625 22.5 5.625C25.8566 5.625 29.0758 6.95842 31.4493 9.33193C33.8228 11.7054 35.1562 14.9246 35.1562 18.2812C35.1562 28.3412 25.4057 36.7383 22.5 39.0234C19.5943 36.7383 9.84375 28.3412 9.84375 18.2812ZM29.5312 18.2812C29.5312 16.8906 29.1189 15.5312 28.3463 14.3749C27.5737 13.2186 26.4755 12.3174 25.1907 11.7852C23.906 11.253 22.4922 11.1138 21.1283 11.3851C19.7643 11.6564 18.5115 12.3261 17.5282 13.3094C16.5448 14.2927 15.8752 15.5456 15.6039 16.9095C15.3326 18.2734 15.4718 19.6872 16.004 20.972C16.5361 22.2568 17.4374 23.3549 18.5936 24.1275C19.7499 24.9001 21.1094 25.3125 22.5 25.3125C24.3648 25.3125 26.1532 24.5717 27.4718 23.2531C28.7905 21.9345 29.5312 20.1461 29.5312 18.2812ZM18.2812 18.2812C18.2812 17.4469 18.5287 16.6312 18.9922 15.9374C19.4558 15.2437 20.1147 14.7029 20.8856 14.3836C21.6564 14.0643 22.5047 13.9808 23.323 14.1436C24.1414 14.3063 24.8931 14.7081 25.4831 15.2981C26.0731 15.8881 26.4749 16.6399 26.6377 17.4582C26.8005 18.2766 26.7169 19.1248 26.3976 19.8957C26.0783 20.6666 25.5376 21.3254 24.8438 21.789C24.15 22.2526 23.3344 22.5 22.5 22.5C21.3811 22.5 20.3081 22.0555 19.5169 21.2644C18.7257 20.4732 18.2812 19.4001 18.2812 18.2812Z" fill="#030712"/>
</svg>
