<svg width="45" height="45" viewBox="0 0 45 45" fill="none" xmlns="http://www.w3.org/2000/svg">
<path d="M39.0885 27.8543L30.8074 24.1436L30.7846 24.133C30.3547 23.9491 29.8857 23.8754 29.4201 23.9183C28.9545 23.9613 28.507 24.1197 28.118 24.3791C28.0722 24.4094 28.0282 24.4422 27.9862 24.4776L23.7076 28.125C20.9971 26.8084 18.1987 24.0311 16.882 21.3557L20.5348 17.0121C20.5699 16.9682 20.6033 16.9242 20.635 16.8768C20.8889 16.4888 21.0429 16.0441 21.0834 15.5823C21.1239 15.1204 21.0495 14.6557 20.867 14.2295V14.2084L17.1457 5.91329C16.9044 5.35653 16.4896 4.89273 15.963 4.59113C15.4365 4.28953 14.8266 4.16631 14.2242 4.23985C11.8423 4.55328 9.656 5.72304 8.07353 7.53065C6.49107 9.33825 5.62071 11.6601 5.62502 14.0625C5.62502 28.0195 16.9805 39.375 30.9375 39.375C33.3399 39.3793 35.6618 38.509 37.4694 36.9265C39.277 35.344 40.4467 33.1577 40.7602 30.7758C40.8339 30.1737 40.7109 29.5639 40.4096 29.0374C40.1084 28.5109 39.6449 28.0959 39.0885 27.8543ZM30.9375 36.5625C24.9721 36.556 19.253 34.1834 15.0348 29.9652C10.8167 25.7471 8.44403 20.0279 8.43752 14.0625C8.4309 12.346 9.04932 10.6857 10.1773 9.39184C11.3053 8.09793 12.8656 7.25884 14.567 7.03126C14.5663 7.03827 14.5663 7.04534 14.567 7.05235L18.2584 15.3141L14.625 19.6629C14.5881 19.7053 14.5546 19.7506 14.5248 19.7983C14.2603 20.2042 14.1051 20.6715 14.0743 21.155C14.0435 21.6386 14.1382 22.1218 14.349 22.558C15.9416 25.8152 19.2235 29.0725 22.5158 30.6633C22.9552 30.8722 23.4413 30.9636 23.9266 30.9284C24.4118 30.8933 24.8797 30.7329 25.2844 30.4629C25.3295 30.4325 25.3729 30.3996 25.4145 30.3645L29.6877 26.7188L37.9494 30.419C37.9494 30.419 37.9635 30.419 37.9688 30.419C37.744 32.1227 36.9061 33.6863 35.612 34.817C34.3178 35.9478 32.6561 36.5683 30.9375 36.5625Z" fill="#030712"/>
</svg>
