<svg width="430" height="768" viewBox="0 0 430 768" fill="none" xmlns="http://www.w3.org/2000/svg">
<path d="M11.8236 317.515C14.6265 315.652 15.3879 311.869 13.5243 309.066C11.6607 306.263 7.87783 305.502 5.07499 307.365C2.27214 309.229 1.51072 313.012 3.3743 315.814C5.23788 318.617 9.0208 319.379 11.8236 317.515Z" fill="#E5E7EB"/>
<path d="M57.5463 287.114C60.3491 285.251 61.1105 281.468 59.2469 278.665C57.3833 275.862 53.6005 275.101 50.7976 276.964C47.9948 278.828 47.2334 282.611 49.097 285.414C50.9605 288.217 54.7435 288.978 57.5463 287.114Z" fill="#E5E7EB"/>
<path d="M103.27 256.714C106.073 254.85 106.834 251.067 104.971 248.264C103.107 245.461 99.3241 244.7 96.5213 246.564C93.7184 248.427 92.957 252.21 94.8206 255.013C96.6842 257.816 100.467 258.577 103.27 256.714Z" fill="#E5E7EB"/>
<path d="M148.992 226.313C151.795 224.45 152.556 220.667 150.692 217.864C148.829 215.061 145.046 214.3 142.243 216.163C139.44 218.027 138.679 221.81 140.542 224.613C142.406 227.416 146.189 228.177 148.992 226.313Z" fill="#E5E7EB"/>
<path d="M196.416 187.463C198.278 190.264 197.516 194.051 194.715 195.913C191.914 197.775 188.128 197.013 186.266 194.212C184.404 191.411 185.166 187.625 187.967 185.763C190.767 183.901 194.554 184.663 196.416 187.463Z" fill="#E5E7EB"/>
<path d="M240.414 165.528C243.217 163.664 243.979 159.881 242.115 157.078C240.252 154.275 236.469 153.514 233.666 155.378C230.863 157.241 230.102 161.024 231.965 163.827C233.829 166.63 237.612 167.391 240.414 165.528Z" fill="#E5E7EB"/>
<path d="M286.136 135.128C288.939 133.264 289.7 129.481 287.837 126.678C285.973 123.875 282.19 123.114 279.387 124.978C276.585 126.841 275.823 130.624 277.687 133.427C279.55 136.23 283.333 136.991 286.136 135.128Z" fill="#E5E7EB"/>
<path d="M331.86 104.727C334.663 102.863 335.424 99.0803 333.56 96.2774C331.697 93.4746 327.914 92.7132 325.111 94.5767C322.308 96.4403 321.547 100.223 323.41 103.026C325.274 105.829 329.057 106.59 331.86 104.727Z" fill="#E5E7EB"/>
<path d="M377.582 74.326C380.385 72.4625 381.147 68.6795 379.283 65.8767C377.419 63.0738 373.637 62.3124 370.834 64.176C368.031 66.0396 367.27 69.8224 369.133 72.6253C370.997 75.4281 374.78 76.1896 377.582 74.326Z" fill="#E5E7EB"/>
<path d="M423.306 43.9253C426.109 42.0617 426.87 38.2788 425.007 35.4759C423.143 32.6731 419.36 31.9117 416.557 33.7752C413.755 35.6388 412.993 39.4217 414.857 42.2245C416.72 45.0274 420.503 45.7889 423.306 43.9253Z" fill="#E5E7EB"/>
<path d="M38.85 358.163C41.6528 356.299 42.4142 352.517 40.5506 349.714C38.6871 346.911 34.9042 346.149 32.1014 348.013C29.2985 349.877 28.5371 353.659 30.4007 356.462C32.2643 359.265 36.0471 360.027 38.85 358.163Z" fill="#E5E7EB"/>
<path d="M84.5726 327.762C87.3755 325.899 88.1369 322.116 86.2733 319.313C84.4097 316.51 80.6269 315.749 77.824 317.612C75.0212 319.476 74.2597 323.259 76.1233 326.062C77.9869 328.864 81.7698 329.626 84.5726 327.762Z" fill="#E5E7EB"/>
<path d="M130.296 297.361C133.099 295.498 133.861 291.715 131.997 288.912C130.133 286.109 126.35 285.348 123.548 287.211C120.745 289.075 119.983 292.858 121.847 295.661C123.711 298.464 127.493 299.225 130.296 297.361Z" fill="#E5E7EB"/>
<path d="M176.018 266.961C178.821 265.098 179.582 261.315 177.719 258.512C175.855 255.709 172.072 254.948 169.269 256.811C166.467 258.675 165.705 262.458 167.569 265.261C169.432 268.063 173.215 268.825 176.018 266.961Z" fill="#E5E7EB"/>
<path d="M223.442 228.111C225.304 230.912 224.542 234.698 221.742 236.561C218.941 238.423 215.155 237.661 213.292 234.86C211.43 232.059 212.192 228.273 214.993 226.411C217.794 224.548 221.58 225.31 223.442 228.111Z" fill="#E5E7EB"/>
<path d="M267.441 206.175C270.244 204.312 271.005 200.529 269.142 197.726C267.278 194.923 263.495 194.162 260.692 196.025C257.889 197.889 257.128 201.672 258.991 204.475C260.855 207.277 264.638 208.039 267.441 206.175Z" fill="#E5E7EB"/>
<path d="M313.162 175.775C315.965 173.912 316.727 170.129 314.863 167.326C313 164.523 309.217 163.762 306.414 165.625C303.611 167.489 302.85 171.272 304.713 174.075C306.577 176.877 310.36 177.639 313.162 175.775Z" fill="#E5E7EB"/>
<path d="M358.886 145.375C361.689 143.511 362.45 139.728 360.587 136.925C358.723 134.122 354.94 133.361 352.137 135.225C349.335 137.088 348.573 140.871 350.437 143.674C352.3 146.477 356.083 147.238 358.886 145.375Z" fill="#E5E7EB"/>
<path d="M404.609 114.974C407.412 113.11 408.173 109.327 406.309 106.524C404.446 103.722 400.663 102.96 397.86 104.824C395.057 106.687 394.296 110.47 396.159 113.273C398.023 116.076 401.806 116.837 404.609 114.974Z" fill="#E5E7EB"/>
<path d="M65.8608 398.787C68.6636 396.923 69.4251 393.14 67.5615 390.338C65.6979 387.535 61.9149 386.773 59.1121 388.637C56.3093 390.5 55.5479 394.283 57.4115 397.086C59.2751 399.889 63.058 400.651 65.8608 398.787Z" fill="#E5E7EB"/>
<path d="M111.583 368.386C114.386 366.523 115.148 362.74 113.284 359.937C111.421 357.134 107.638 356.372 104.835 358.236C102.032 360.1 101.271 363.883 103.134 366.685C104.998 369.488 108.781 370.25 111.583 368.386Z" fill="#E5E7EB"/>
<path d="M157.307 337.985C160.11 336.122 160.871 332.339 159.008 329.536C157.144 326.733 153.361 325.972 150.558 327.835C147.756 329.699 146.994 333.482 148.858 336.285C150.721 339.087 154.504 339.849 157.307 337.985Z" fill="#E5E7EB"/>
<path d="M203.029 307.585C205.832 305.722 206.593 301.939 204.73 299.136C202.866 296.333 199.083 295.571 196.28 297.435C193.477 299.299 192.716 303.082 194.579 305.885C196.443 308.687 200.226 309.449 203.029 307.585Z" fill="#E5E7EB"/>
<path d="M250.453 268.735C252.315 271.536 251.553 275.322 248.752 277.185C245.952 279.047 242.165 278.285 240.303 275.484C238.441 272.683 239.203 268.897 242.004 267.034C244.805 265.172 248.591 265.934 250.453 268.735Z" fill="#E5E7EB"/>
<path d="M294.452 246.799C297.254 244.936 298.016 241.153 296.152 238.35C294.289 235.547 290.506 234.786 287.703 236.649C284.9 238.513 284.139 242.296 286.002 245.099C287.866 247.901 291.649 248.663 294.452 246.799Z" fill="#E5E7EB"/>
<path d="M340.173 216.399C342.976 214.536 343.738 210.753 341.874 207.95C340.01 205.147 336.227 204.386 333.425 206.249C330.622 208.113 329.86 211.896 331.724 214.699C333.588 217.501 337.37 218.263 340.173 216.399Z" fill="#E5E7EB"/>
<path d="M385.897 185.998C388.7 184.135 389.461 180.352 387.598 177.549C385.734 174.746 381.951 173.985 379.148 175.848C376.345 177.712 375.584 181.495 377.448 184.298C379.311 187.101 383.094 187.862 385.897 185.998Z" fill="#E5E7EB"/>
<path d="M431.62 155.598C434.422 153.734 435.184 149.951 433.32 147.148C431.457 144.346 427.674 143.584 424.871 145.448C422.068 147.311 421.307 151.094 423.17 153.897C425.034 156.7 428.817 157.461 431.62 155.598Z" fill="#E5E7EB"/>
<path d="M94.5878 430.986C96.45 433.787 95.6879 437.573 92.8871 439.435C90.0862 441.297 86.3 440.535 84.4378 437.734C82.5755 434.933 83.3376 431.147 86.1385 429.285C88.9393 427.423 92.7255 428.185 94.5878 430.986Z" fill="#E5E7EB"/>
<path d="M140.31 400.585C142.173 403.386 141.411 407.172 138.61 409.034C135.809 410.896 132.023 410.134 130.16 407.333C128.298 404.533 129.06 400.746 131.861 398.884C134.662 397.022 138.448 397.784 140.31 400.585Z" fill="#E5E7EB"/>
<path d="M186.034 370.184C187.896 372.985 187.134 376.771 184.333 378.633C181.533 380.496 177.746 379.733 175.884 376.933C174.022 374.132 174.784 370.346 177.585 368.483C180.386 366.621 184.172 367.383 186.034 370.184Z" fill="#E5E7EB"/>
<path d="M231.756 339.784C233.618 342.585 232.856 346.371 230.055 348.233C227.254 350.095 223.468 349.333 221.606 346.533C219.744 343.732 220.506 339.945 223.307 338.083C226.107 336.221 229.894 336.983 231.756 339.784Z" fill="#E5E7EB"/>
<path d="M277.479 309.383C279.342 312.184 278.579 315.97 275.779 317.833C272.978 319.695 269.192 318.933 267.329 316.132C265.467 313.331 266.229 309.545 269.03 307.683C271.831 305.82 275.617 306.582 277.479 309.383Z" fill="#E5E7EB"/>
<path d="M323.202 278.983C325.064 281.783 324.302 285.57 321.501 287.432C318.701 289.294 314.914 288.532 313.052 285.731C311.19 282.93 311.952 279.144 314.753 277.282C317.53 275.436 321.34 276.182 323.202 278.983Z" fill="#E5E7EB"/>
<path d="M368.9 248.598C370.762 251.399 370 255.185 367.2 257.047C364.399 258.91 360.613 258.147 358.75 255.347C356.888 252.546 357.65 248.76 360.451 246.897C363.252 245.035 367.038 245.797 368.9 248.598Z" fill="#E5E7EB"/>
<path d="M414.624 218.197C416.486 220.998 415.724 224.784 412.923 226.647C410.122 228.509 406.336 227.747 404.474 224.946C402.612 222.145 403.374 218.359 406.175 216.497C408.975 214.634 412.762 215.396 414.624 218.197Z" fill="#E5E7EB"/>
<path d="M121.613 471.633C123.476 474.434 122.713 478.22 119.913 480.083C117.112 481.945 113.326 481.183 111.463 478.382C109.601 475.581 110.363 471.795 113.164 469.933C115.949 468.046 119.735 468.809 121.613 471.633Z" fill="#E5E7EB"/>
<path d="M167.336 441.233C169.198 444.033 168.436 447.82 165.635 449.682C162.834 451.544 159.048 450.782 157.186 447.981C155.324 445.18 156.086 441.394 158.887 439.532C161.672 437.646 165.458 438.408 167.336 441.233Z" fill="#E5E7EB"/>
<path d="M213.06 410.832C214.922 413.633 214.16 417.419 211.359 419.281C208.558 421.143 204.772 420.381 202.91 417.58C201.047 414.78 201.809 410.993 204.61 409.131C207.395 407.245 211.181 408.007 213.06 410.832Z" fill="#E5E7EB"/>
<path d="M258.781 380.432C260.644 383.233 259.882 387.019 257.081 388.881C254.28 390.743 250.494 389.981 248.631 387.18C246.769 384.38 247.531 380.593 250.332 378.731C253.117 376.845 256.903 377.607 258.781 380.432Z" fill="#E5E7EB"/>
<path d="M304.505 350.031C306.367 352.832 305.605 356.618 302.804 358.48C300.003 360.342 296.217 359.58 294.355 356.78C292.493 353.979 293.255 350.192 296.056 348.33C298.84 346.444 302.627 347.206 304.505 350.031Z" fill="#E5E7EB"/>
<path d="M350.228 319.63C352.09 322.431 351.328 326.217 348.527 328.079C345.726 329.942 341.94 329.18 340.078 326.379C338.215 323.578 338.977 319.792 341.778 317.929C344.539 316.059 348.349 316.805 350.228 319.63Z" fill="#E5E7EB"/>
<path d="M395.926 289.246C397.788 292.047 397.026 295.833 394.225 297.695C391.424 299.557 387.638 298.795 385.776 295.994C383.914 293.194 384.676 289.407 387.476 287.545C390.261 285.659 394.048 286.421 395.926 289.246Z" fill="#E5E7EB"/>
<path d="M441.649 258.845C443.512 261.646 442.749 265.432 439.949 267.294C437.148 269.156 433.362 268.394 431.499 265.593C429.637 262.792 430.399 259.006 433.2 257.144C436.001 255.282 439.771 256.02 441.649 258.845Z" fill="#E5E7EB"/>
<path d="M146.923 520.707C149.726 518.843 150.487 515.06 148.624 512.257C146.76 509.454 142.977 508.693 140.175 510.557C137.372 512.42 136.61 516.203 138.474 519.006C140.337 521.809 144.12 522.57 146.923 520.707Z" fill="#E5E7EB"/>
<path d="M192.646 490.306C195.449 488.442 196.21 484.659 194.347 481.856C192.483 479.054 188.7 478.292 185.897 480.156C183.094 482.019 182.333 485.802 184.197 488.605C186.06 491.408 189.843 492.169 192.646 490.306Z" fill="#E5E7EB"/>
<path d="M238.369 459.905C241.172 458.041 241.934 454.258 240.07 451.456C238.207 448.653 234.424 447.891 231.621 449.755C228.818 451.619 228.057 455.401 229.92 458.204C231.784 461.007 235.567 461.769 238.369 459.905Z" fill="#E5E7EB"/>
<path d="M284.091 429.505C286.894 427.641 287.656 423.858 285.792 421.056C283.928 418.253 280.146 417.491 277.343 419.355C274.54 421.218 273.778 425.001 275.642 427.804C277.505 430.607 281.288 431.368 284.091 429.505Z" fill="#E5E7EB"/>
<path d="M331.515 390.655C333.378 393.456 332.616 397.242 329.815 399.104C327.014 400.966 323.228 400.204 321.366 397.403C319.503 394.603 320.265 390.816 323.066 388.954C325.867 387.092 329.653 387.854 331.515 390.655Z" fill="#E5E7EB"/>
<path d="M375.514 368.719C378.317 366.855 379.078 363.072 377.215 360.27C375.351 357.467 371.568 356.705 368.765 358.569C365.963 360.433 365.201 364.215 367.065 367.018C368.928 369.821 372.711 370.582 375.514 368.719Z" fill="#E5E7EB"/>
<path d="M421.236 338.319C424.039 336.455 424.8 332.672 422.936 329.87C421.073 327.067 417.29 326.305 414.487 328.169C411.684 330.032 410.923 333.815 412.786 336.618C414.65 339.421 418.433 340.182 421.236 338.319Z" fill="#E5E7EB"/>
<path d="M173.95 561.354C176.752 559.491 177.514 555.708 175.65 552.905C173.787 550.102 170.004 549.341 167.201 551.204C164.398 553.068 163.637 556.851 165.5 559.654C167.364 562.457 171.147 563.218 173.95 561.354Z" fill="#E5E7EB"/>
<path d="M219.672 530.954C222.475 529.09 223.236 525.307 221.373 522.504C219.509 519.702 215.726 518.94 212.924 520.804C210.121 522.667 209.359 526.45 211.223 529.253C213.087 532.056 216.869 532.817 219.672 530.954Z" fill="#E5E7EB"/>
<path d="M265.396 500.553C268.199 498.689 268.96 494.906 267.097 492.104C265.233 489.301 261.45 488.539 258.647 490.403C255.844 492.266 255.083 496.049 256.947 498.852C258.81 501.655 262.593 502.416 265.396 500.553Z" fill="#E5E7EB"/>
<path d="M311.118 470.153C313.921 468.289 314.682 464.506 312.818 461.703C310.955 458.901 307.172 458.139 304.369 460.003C301.566 461.866 300.805 465.649 302.668 468.452C304.532 471.255 308.315 472.016 311.118 470.153Z" fill="#E5E7EB"/>
<path d="M358.542 431.303C360.404 434.104 359.642 437.89 356.841 439.752C354.04 441.614 350.254 440.852 348.392 438.051C346.53 435.25 347.292 431.464 350.093 429.602C352.893 427.74 356.68 428.502 358.542 431.303Z" fill="#E5E7EB"/>
<path d="M402.54 409.367C405.343 407.503 406.105 403.72 404.241 400.917C402.378 398.115 398.595 397.353 395.792 399.217C392.989 401.08 392.228 404.863 394.091 407.666C395.955 410.469 399.738 411.23 402.54 409.367Z" fill="#E5E7EB"/>
<path d="M202.677 593.553C204.539 596.354 203.777 600.14 200.976 602.002C198.175 603.865 194.389 603.103 192.527 600.302C190.665 597.501 191.427 593.715 194.227 591.852C197.012 589.966 200.799 590.728 202.677 593.553Z" fill="#E5E7EB"/>
<path d="M248.399 563.152C250.262 565.953 249.5 569.74 246.699 571.602C243.898 573.464 240.112 572.702 238.249 569.901C236.387 567.1 237.149 563.314 239.95 561.452C242.735 559.566 246.521 560.328 248.399 563.152Z" fill="#E5E7EB"/>
<path d="M294.123 532.752C295.985 535.552 295.223 539.339 292.422 541.201C289.622 543.063 285.835 542.301 283.973 539.5C282.111 536.699 282.873 532.913 285.674 531.051C288.459 529.165 292.245 529.927 294.123 532.752Z" fill="#E5E7EB"/>
<path d="M339.845 502.351C341.707 505.152 340.945 508.939 338.144 510.801C335.343 512.663 331.557 511.901 329.695 509.1C327.833 506.299 328.595 502.513 331.396 500.651C334.18 498.765 337.967 499.527 339.845 502.351Z" fill="#E5E7EB"/>
<path d="M385.568 471.951C387.431 474.752 386.668 478.538 383.868 480.4C381.067 482.262 377.281 481.5 375.418 478.699C373.556 475.899 374.318 472.112 377.119 470.25C379.904 468.364 383.69 469.126 385.568 471.951Z" fill="#E5E7EB"/>
<path d="M431.291 441.55C433.153 444.351 432.391 448.137 429.59 449.999C426.789 451.861 423.003 451.099 421.141 448.299C419.279 445.498 420.041 441.712 422.842 439.849C425.603 437.979 429.413 438.725 431.291 441.55Z" fill="#E5E7EB"/>
<path d="M229.687 634.177C231.55 636.978 230.788 640.764 227.987 642.626C225.186 644.488 221.4 643.726 219.537 640.926C217.675 638.125 218.437 634.339 221.238 632.476C224.039 630.614 227.825 631.376 229.687 634.177Z" fill="#E5E7EB"/>
<path d="M275.41 603.776C277.272 606.577 276.51 610.363 273.709 612.225C270.909 614.088 267.122 613.326 265.26 610.525C263.398 607.724 264.16 603.938 266.961 602.075C269.762 600.213 273.548 600.975 275.41 603.776Z" fill="#E5E7EB"/>
<path d="M321.134 573.375C322.996 576.176 322.234 579.963 319.433 581.825C316.632 583.687 312.846 582.925 310.984 580.124C309.121 577.323 309.884 573.537 312.684 571.675C315.485 569.813 319.271 570.575 321.134 573.375Z" fill="#E5E7EB"/>
<path d="M366.855 542.975C368.718 545.776 367.956 549.562 365.155 551.424C362.354 553.287 358.568 552.525 356.705 549.724C354.843 546.923 355.605 543.137 358.406 541.275C361.207 539.412 364.993 540.174 366.855 542.975Z" fill="#E5E7EB"/>
<path d="M412.579 512.575C414.441 515.375 413.679 519.162 410.878 521.024C408.077 522.886 404.291 522.124 402.429 519.323C400.567 516.522 401.329 512.736 404.13 510.874C406.93 509.012 410.717 509.774 412.579 512.575Z" fill="#E5E7EB"/>
<path d="M255.013 683.274C257.816 681.411 258.577 677.628 256.714 674.825C254.85 672.022 251.067 671.261 248.264 673.124C245.462 674.988 244.7 678.771 246.564 681.574C248.427 684.376 252.21 685.138 255.013 683.274Z" fill="#E5E7EB"/>
<path d="M300.736 652.873C303.539 651.01 304.3 647.227 302.436 644.424C300.573 641.621 296.79 640.86 293.987 642.723C291.184 644.587 290.423 648.37 292.286 651.173C294.15 653.975 297.933 654.737 300.736 652.873Z" fill="#E5E7EB"/>
<path d="M346.459 622.473C349.262 620.609 350.024 616.826 348.16 614.023C346.296 611.221 342.514 610.459 339.711 612.323C336.908 614.186 336.146 617.969 338.01 620.772C339.874 623.575 343.656 624.336 346.459 622.473Z" fill="#E5E7EB"/>
<path d="M392.181 592.072C394.984 590.209 395.745 586.426 393.882 583.623C392.018 580.82 388.235 580.059 385.433 581.922C382.63 583.786 381.868 587.569 383.732 590.372C385.595 593.175 389.378 593.936 392.181 592.072Z" fill="#E5E7EB"/>
<path d="M439.605 553.223C441.468 556.023 440.705 559.81 437.905 561.672C435.104 563.534 431.318 562.772 429.455 559.971C427.593 557.17 428.355 553.384 431.156 551.522C433.957 549.66 437.743 550.422 439.605 553.223Z" fill="#E5E7EB"/>
<path d="M282.038 723.922C284.841 722.058 285.603 718.275 283.739 715.473C281.876 712.67 278.093 711.908 275.29 713.772C272.487 715.636 271.726 719.418 273.589 722.221C275.453 725.024 279.236 725.785 282.038 723.922Z" fill="#E5E7EB"/>
<path d="M327.762 693.521C330.565 691.657 331.326 687.875 329.463 685.072C327.599 682.269 323.816 681.507 321.013 683.371C318.211 685.235 317.449 689.018 319.313 691.82C321.176 694.623 324.959 695.385 327.762 693.521Z" fill="#E5E7EB"/>
<path d="M373.485 663.12C376.288 661.257 377.049 657.474 375.185 654.671C373.322 651.868 369.539 651.107 366.736 652.97C363.933 654.834 363.172 658.617 365.035 661.42C366.899 664.223 370.682 664.984 373.485 663.12Z" fill="#E5E7EB"/>
<path d="M419.207 632.72C422.009 630.857 422.771 627.074 420.907 624.271C419.044 621.468 415.261 620.707 412.458 622.57C409.655 624.434 408.894 628.217 410.757 631.02C412.621 633.822 416.404 634.584 419.207 632.72Z" fill="#E5E7EB"/>
<path d="M310.75 756.096C312.612 758.897 311.85 762.683 309.049 764.546C306.248 766.408 302.462 765.646 300.6 762.845C298.738 760.044 299.5 756.258 302.301 754.396C305.101 752.533 308.888 753.296 310.75 756.096Z" fill="#E5E7EB"/>
<path d="M356.473 725.696C358.335 728.496 357.573 732.283 354.772 734.145C351.971 736.007 348.185 735.245 346.323 732.444C344.46 729.643 345.222 725.857 348.023 723.995C350.824 722.133 354.61 722.895 356.473 725.696Z" fill="#E5E7EB"/>
<path d="M402.196 695.295C404.058 698.095 403.296 701.882 400.495 703.744C397.695 705.606 393.908 704.844 392.046 702.043C390.184 699.242 390.946 695.456 393.747 693.594C396.548 691.732 400.334 692.494 402.196 695.295Z" fill="#E5E7EB"/>
</svg>
