<svg width="326" height="495" viewBox="0 0 326 495" fill="none" xmlns="http://www.w3.org/2000/svg">
<path fill-rule="evenodd" clip-rule="evenodd" d="M234.512 486.081C205.172 470.518 216.604 414.625 186.755 400.06C145.401 379.881 89.7683 420.265 50.4948 396.288C15.9345 375.188 4.18143 327.258 1.34619 286.865C-1.52052 246.023 7.68218 201.059 34.6278 170.234C61.4561 139.543 105.877 132.166 145.377 122.096C175.47 114.425 211.01 135.085 237.306 118.564C281.123 91.0342 286.124 12.7215 336.722 1.87562C377.782 -6.92576 425.551 35.3417 436.767 75.8087C450.41 125.034 414.561 173.779 397.734 222.009C390.252 243.454 368.386 258.42 365.208 280.91C362.719 298.526 386.202 313.368 382.371 330.741C378.715 347.32 352.866 350.225 346.456 365.945C332.516 400.126 349.504 446.032 324.339 473.039C303.451 495.455 261.581 500.439 234.512 486.081Z" fill="#F3F4F6"/>
</svg>
