<svg width="734" height="212" viewBox="0 0 734 212" fill="none" xmlns="http://www.w3.org/2000/svg">
<path d="M15.9721 9.8808C15.2827 13.8215 11.5232 16.4615 7.58243 15.7721C3.64169 15.0826 1.00175 11.3231 1.69117 7.38237C2.3806 3.44163 6.14011 0.801689 10.0809 1.49111C14.0275 2.14686 16.6674 5.90637 15.9721 9.8808Z" fill="#E5E7EB"/>
<path d="M80.3046 21.1356C79.6152 25.0763 75.8557 27.7162 71.9149 27.0268C67.9742 26.3374 65.3343 22.5779 66.0237 18.6371C66.7131 14.6964 70.4726 12.0564 74.4134 12.7459C78.36 13.4016 80.9999 17.1611 80.3046 21.1356Z" fill="#E5E7EB"/>
<path d="M144.636 32.3903C143.947 36.3311 140.187 38.971 136.246 38.2816C132.306 37.5921 129.666 33.8326 130.355 29.8919C131.045 25.9512 134.804 23.3112 138.745 24.0006C142.692 24.6564 145.331 28.4159 144.636 32.3903Z" fill="#E5E7EB"/>
<path d="M208.966 43.6449C208.277 47.5856 204.518 50.2256 200.577 49.5361C196.636 48.8467 193.996 45.0871 194.685 41.1464C195.375 37.2057 199.134 34.5658 203.075 35.2552C207.022 35.9109 209.662 39.6704 208.966 43.6449Z" fill="#E5E7EB"/>
<path d="M273.299 54.8996C272.609 58.8403 268.85 61.4803 264.909 60.7908C260.968 60.1014 258.328 56.3419 259.018 52.4012C259.707 48.4604 263.467 45.8205 267.408 46.5099C271.354 47.1657 273.994 50.9252 273.299 54.8996Z" fill="#E5E7EB"/>
<path d="M337.631 66.1544C336.942 70.0952 333.182 72.7351 329.242 72.0457C325.301 71.3562 322.661 67.5967 323.35 63.656C324.04 59.7153 327.799 57.0753 331.74 57.7647C335.653 58.4146 338.327 62.18 337.631 66.1544Z" fill="#E5E7EB"/>
<path d="M401.928 77.4031C401.239 81.3439 397.479 83.9838 393.538 83.2944C389.598 82.605 386.958 78.8454 387.647 74.9047C388.337 70.964 392.096 68.324 396.037 69.0135C399.984 69.6692 402.623 73.4287 401.928 77.4031Z" fill="#E5E7EB"/>
<path d="M466.261 88.6576C465.572 92.5984 461.812 95.2383 457.872 94.5489C453.931 93.8595 451.291 90.0999 451.98 86.1592C452.67 82.2185 456.429 79.5785 460.37 80.268C464.311 80.9574 466.957 84.6832 466.261 88.6576Z" fill="#E5E7EB"/>
<path d="M530.592 99.9127C529.903 103.853 526.143 106.493 522.203 105.804C518.262 105.115 515.622 101.355 516.311 97.4143C517.001 93.4736 520.76 90.8336 524.701 91.523C528.648 92.1788 531.288 95.9383 530.592 99.9127Z" fill="#E5E7EB"/>
<path d="M594.925 111.167C594.236 115.108 590.476 117.748 586.536 117.059C582.595 116.369 579.955 112.61 580.644 108.669C581.334 104.728 585.093 102.088 589.034 102.778C592.981 103.434 595.621 107.193 594.925 111.167Z" fill="#E5E7EB"/>
<path d="M659.257 122.422C658.568 126.363 654.808 129.003 650.868 128.313C646.927 127.624 644.287 123.865 644.976 119.924C645.666 115.983 649.425 113.343 653.366 114.033C657.313 114.688 659.953 118.448 659.257 122.422Z" fill="#E5E7EB"/>
<path d="M88.5302 91.6393C87.8408 95.5801 84.0813 98.22 80.1405 97.5306C76.1998 96.8412 73.5599 93.0817 74.2493 89.1409C74.9387 85.2002 78.6982 82.5602 82.639 83.2497C86.5856 83.9054 89.2255 87.6649 88.5302 91.6393Z" fill="#E5E7EB"/>
<path d="M152.863 102.894C152.173 106.835 148.414 109.475 144.473 108.785C140.532 108.096 137.892 104.336 138.582 100.396C139.271 96.4549 143.031 93.815 146.971 94.5044C150.918 95.1602 153.558 98.9197 152.863 102.894Z" fill="#E5E7EB"/>
<path d="M217.194 114.149C216.505 118.09 212.745 120.73 208.805 120.04C204.864 119.351 202.224 115.591 202.913 111.65C203.603 107.71 207.362 105.07 211.303 105.759C215.25 106.415 217.89 110.174 217.194 114.149Z" fill="#E5E7EB"/>
<path d="M281.525 125.403C280.835 129.344 277.076 131.984 273.135 131.295C269.194 130.605 266.554 126.846 267.243 122.905C267.933 118.964 271.693 116.324 275.633 117.014C279.58 117.669 282.22 121.429 281.525 125.403Z" fill="#E5E7EB"/>
<path d="M345.857 136.658C345.167 140.599 341.408 143.239 337.467 142.549C333.526 141.86 330.887 138.1 331.576 134.16C332.265 130.219 336.025 127.579 339.966 128.268C343.912 128.924 346.552 132.684 345.857 136.658Z" fill="#E5E7EB"/>
<path d="M410.19 147.913C409.5 151.854 405.741 154.494 401.8 153.804C397.859 153.115 395.22 149.355 395.909 145.415C396.598 141.474 400.358 138.834 404.299 139.523C408.212 140.173 410.885 143.939 410.19 147.913Z" fill="#E5E7EB"/>
<path d="M474.487 159.162C473.797 163.102 470.038 165.742 466.097 165.053C462.156 164.364 459.516 160.604 460.206 156.663C460.895 152.723 464.655 150.083 468.596 150.772C472.542 151.428 475.182 155.187 474.487 159.162Z" fill="#E5E7EB"/>
<path d="M538.819 170.416C538.129 174.357 534.37 176.997 530.429 176.307C526.488 175.618 523.848 171.858 524.538 167.918C525.227 163.977 528.987 161.337 532.928 162.026C536.868 162.716 539.514 166.442 538.819 170.416Z" fill="#E5E7EB"/>
<path d="M603.151 181.671C602.461 185.612 598.702 188.252 594.761 187.563C590.82 186.873 588.18 183.114 588.87 179.173C589.559 175.232 593.319 172.592 597.26 173.282C601.206 173.937 603.846 177.697 603.151 181.671Z" fill="#E5E7EB"/>
<path d="M667.483 192.926C666.793 196.867 663.034 199.507 659.093 198.817C655.152 198.128 652.512 194.368 653.202 190.428C653.891 186.487 657.651 183.847 661.592 184.536C665.538 185.192 668.178 188.952 667.483 192.926Z" fill="#E5E7EB"/>
<path d="M731.816 204.181C731.127 208.122 727.367 210.761 723.426 210.072C719.485 209.383 716.845 205.623 717.535 201.682C718.224 197.742 721.984 195.102 725.925 195.791C729.871 196.447 732.511 200.206 731.816 204.181Z" fill="#E5E7EB"/>
</svg>
