<svg width="575" height="685" viewBox="0 0 575 685" fill="none" xmlns="http://www.w3.org/2000/svg">
<path d="M428.946 348.16C486.575 308.369 526.92 245.815 549.471 166.876C558.988 133.571 565.745 98.7403 583.385 69.0671C601.024 39.394 633.167 15.415 666.493 20.2278C707.411 26.1425 731.661 71.5364 736.901 113.685C747.913 202.341 731.025 301.264 658.056 360.191C601.238 406.069 523.038 421.369 471.146 472.758C420.91 522.515 402.215 599.742 345.935 642.532C316.273 665.072 279.026 675.496 242.069 680.089C189.729 686.593 134.542 681.792 88.1989 656.583C41.8739 631.375 6.09167 583.335 4.74093 530.569C1.22003 392.228 176.424 398.63 269.302 396.587C332.192 395.231 385.485 378.167 428.946 348.16Z" fill="#F3F4F6"/>
</svg>
