<svg width="123" height="100" viewBox="0 0 123 100" fill="none" xmlns="http://www.w3.org/2000/svg">
<path d="M60.6001 45.6795C62.2289 46.8047 63.922 47.9835 65.508 49.0765C66.4403 49.7087 67.2976 50.2874 67.962 50.7268C68.2728 51.0161 68.755 51.3376 69.0979 51.6055C68.9158 51.4447 69.0122 51.4555 69.1622 51.5626C70.2445 52.3342 69.2587 51.5733 70.3839 52.3235C71.0054 52.72 72.4199 53.7165 73.8451 54.7346C75.8597 56.1812 77.8958 57.6386 78.8602 58.3352C78.9245 58.1101 78.9674 57.9708 78.9996 57.8529C79.1389 57.135 79.321 56.4277 79.5139 55.7204C79.6103 55.3668 79.6961 55.0132 79.7925 54.6703C79.8247 54.531 79.8569 54.3917 79.889 54.2631C79.9104 54.1666 79.9211 54.0809 79.9426 53.9844V54.0595C80.1033 53.2986 81.3249 49.0551 81.5285 48.1763L81.4857 48.2942C81.6357 47.5119 81.7 47.6513 81.8929 47.0512C81.7643 47.1047 81.8822 46.4296 81.9465 46.1831L81.9679 46.1939C82.0536 45.8081 82.1929 44.9401 82.343 44.3078L82.3965 44.3507C82.4715 43.8149 82.7609 42.8505 82.8466 42.4754C83.0931 41.6288 83.5432 40.3429 83.7682 39.1856L84.1218 38.489L84.1325 38.3819L84.4969 35.81C84.5719 35.2206 82.1287 36.5816 82.0965 36.5173C82.268 36.4423 82.4501 36.378 82.5037 36.3672C82.4501 36.3565 82.0965 36.4851 81.9143 36.5816V36.6673C81.5071 36.8709 81.7964 36.6673 81.3892 36.8387C81.3463 36.7852 81.7107 36.6137 82.0429 36.4637C81.7428 36.5816 81.4214 36.6673 81.3249 36.7852C81.0356 36.8816 81.3249 36.6994 80.9713 36.8173C80.7355 36.9352 80.4462 37.1281 80.1462 37.2138V37.2031C79.4389 37.4281 79.1496 37.7389 78.5066 37.9318L78.5602 37.8782C78.3244 37.9318 77.9172 38.1675 77.51 38.2961C77.6279 38.264 77.7458 38.264 77.51 38.3711C77.0385 38.5212 76.7492 38.6926 76.3956 38.7891L76.1062 38.982C74.5202 39.6356 68.3156 42.3575 66.7404 43.0433L66.7939 43.0112C65.2401 43.697 63.0112 44.6508 60.6001 45.6795Z" fill="#F3F4F6"/>
<path d="M55.8636 25.8333C57.4818 24.6867 59.1642 23.4865 60.7288 22.3828C61.6396 21.7291 62.4755 21.1183 63.1184 20.636C63.4935 20.4432 63.965 20.1002 64.3294 19.8645C64.115 19.9824 64.1579 19.8966 64.3186 19.7895C65.4117 19.0286 64.3615 19.7038 65.4545 18.9C66.0439 18.45 67.4585 17.4534 68.9051 16.4568C70.9519 15.053 73.0201 13.6385 73.9953 12.9634C73.8024 12.824 73.6845 12.749 73.588 12.674C72.9665 12.299 72.3557 11.8917 71.7556 11.4631C71.4555 11.2595 71.1555 11.0452 70.8555 10.8523C70.7376 10.7773 70.6197 10.6915 70.5018 10.6165C70.4161 10.563 70.341 10.5201 70.2553 10.4665L70.3303 10.4879C69.6659 10.07 66.0975 7.48744 65.3367 6.99451L65.4331 7.08024C64.7472 6.67303 64.8973 6.65159 64.4044 6.27653C64.4151 6.40512 63.8257 6.07292 63.6007 5.93361L63.6221 5.9229C63.2899 5.7193 62.5183 5.29065 61.9825 4.93702L62.0361 4.90487C61.5646 4.64768 60.7502 4.0583 60.4287 3.84398C59.7214 3.3189 58.6606 2.46161 57.6533 1.85079L57.1281 1.28284L57.0317 1.22926L54.7385 0.0183495C54.2134 -0.249552 54.6634 2.50448 54.5884 2.51519C54.5777 2.3223 54.5778 2.14013 54.5778 2.07583C54.5456 2.12941 54.5456 2.50448 54.5778 2.69736L54.6634 2.72951C54.717 3.1903 54.6206 2.83668 54.6527 3.28675C54.5884 3.3189 54.5563 2.90097 54.5241 2.53662C54.5348 2.8581 54.5028 3.1903 54.5778 3.3189C54.567 3.62966 54.492 3.28675 54.4813 3.66181C54.5134 3.919 54.5992 4.26191 54.5778 4.57267H54.567C54.5349 5.31208 54.7278 5.68714 54.6956 6.36225L54.6742 6.28724C54.6527 6.523 54.7278 6.99451 54.7064 7.42315C54.7171 7.29456 54.7599 7.18739 54.7814 7.44458C54.7707 7.93752 54.8242 8.26972 54.792 8.63406L54.8778 8.97698C54.9528 10.6915 55.4029 17.4534 55.5101 19.168L55.4993 19.1036C55.5743 20.7968 55.7136 23.2186 55.8636 25.8333Z" fill="#F3F4F6"/>
<path d="M54.0845 94.1803C55.9919 94.684 57.9958 95.2091 59.8497 95.702C60.9428 95.9806 61.9393 96.2271 62.7216 96.4093C63.1074 96.5807 63.6753 96.72 64.0932 96.8486C63.8682 96.7629 63.954 96.7307 64.1361 96.7843C65.4221 97.1379 64.2326 96.7629 65.5399 97.0844C66.2579 97.2451 67.9296 97.6952 69.6228 98.1667C72.0017 98.8418 74.4235 99.5169 75.5702 99.8384C75.5487 99.6026 75.5488 99.4633 75.538 99.3455C75.4309 98.6275 75.3558 97.8988 75.2915 97.1594C75.2594 96.795 75.2273 96.4307 75.1951 96.0771C75.1844 95.9378 75.1629 95.7985 75.1522 95.6591C75.1415 95.5627 75.1201 95.477 75.1094 95.3805L75.1416 95.4555C75.0344 94.684 74.7343 90.2797 74.6164 89.3795V89.4974C74.4878 88.7151 74.6057 88.8116 74.5736 88.1901C74.4771 88.2865 74.3593 87.6114 74.3271 87.3542L74.3485 87.3649C74.2949 86.9791 74.1235 86.1111 74.0592 85.4682L74.1235 85.4896C74.0164 84.9645 73.952 83.9572 73.9092 83.5714C73.8556 82.6927 73.8342 81.3318 73.652 80.1637L73.7484 79.3922L73.727 79.285L73.1912 76.7453C73.0626 76.1666 71.2302 78.2777 71.1766 78.2241C71.3159 78.0955 71.4552 77.9669 71.5088 77.9348C71.4445 77.9455 71.1659 78.1812 71.0266 78.3313L71.0587 78.417C70.7372 78.7492 70.9515 78.4491 70.6193 78.7599C70.555 78.7278 70.8444 78.4384 71.1123 78.1812C70.8658 78.3956 70.5979 78.5885 70.5443 78.7278C70.2979 78.9099 70.5122 78.642 70.2229 78.8778C70.0407 79.0707 69.8371 79.3493 69.5906 79.5315V79.5207C69.0012 79.9708 68.8298 80.3566 68.294 80.7638L68.3368 80.6995C68.1332 80.8281 67.8332 81.1925 67.4903 81.4496C67.5867 81.3746 67.7046 81.3425 67.5117 81.5139C67.1259 81.814 66.9009 82.0819 66.6008 82.2855L66.3865 82.5641C65.122 83.7215 60.214 88.3936 58.9603 89.5724L59.0031 89.5188C57.7708 90.7297 55.9919 92.3907 54.0845 94.1803Z" fill="#F3F4F6"/>
<path d="M97.4854 50.3089C98.8141 51.777 100.196 53.3201 101.472 54.7453C102.233 55.5705 102.929 56.3313 103.486 56.91C103.722 57.2636 104.119 57.6923 104.386 58.0245C104.247 57.8209 104.333 57.853 104.462 58.003C105.34 58.9996 104.558 58.0352 105.469 59.0318C105.983 59.5676 107.13 60.8535 108.287 62.1716C109.916 64.0362 111.566 65.9329 112.349 66.8223C112.466 66.6187 112.531 66.4901 112.595 66.3937C112.895 65.7293 113.238 65.0863 113.581 64.4327C113.752 64.1112 113.924 63.7897 114.095 63.4682C114.16 63.3396 114.224 63.2217 114.288 63.0931C114.331 63.0074 114.363 62.9217 114.406 62.836L114.395 62.911C114.727 62.2037 116.892 58.3567 117.289 57.5422L117.214 57.6387C117.535 56.91 117.578 57.06 117.899 56.5242C117.771 56.5456 118.028 55.9241 118.146 55.6884L118.157 55.7098C118.328 55.3562 118.66 54.5417 118.95 53.9631L118.992 54.0167C119.185 53.513 119.689 52.6343 119.86 52.2914C120.3 51.5305 121.029 50.3732 121.511 49.3016L122.014 48.7122L122.047 48.605L122.99 46.1939C123.193 45.6367 120.503 46.3975 120.493 46.3332C120.686 46.3011 120.868 46.2797 120.932 46.2797C120.879 46.2582 120.503 46.3011 120.311 46.3547L120.289 46.4404C119.839 46.5476 120.171 46.4083 119.732 46.494C119.7 46.4297 120.096 46.344 120.461 46.2797C120.139 46.3225 119.807 46.3332 119.689 46.4297C119.378 46.4511 119.71 46.344 119.335 46.3761C119.078 46.4404 118.746 46.5583 118.446 46.569V46.5583C117.707 46.6119 117.353 46.8476 116.678 46.8905L116.742 46.8583C116.506 46.8583 116.046 46.9869 115.617 47.0191C115.745 47.0083 115.853 47.0405 115.606 47.0941C115.113 47.1369 114.792 47.2334 114.427 47.2441L114.095 47.362C112.402 47.6299 105.737 48.8622 104.044 49.1623L104.108 49.1409C102.458 49.4409 100.057 49.8588 97.4854 50.3089Z" fill="#F3F4F6"/>
<path d="M87.9473 24.2258C89.8762 24.6544 91.9015 25.0938 93.7768 25.5117C94.8806 25.7475 95.8879 25.9511 96.6702 26.1118C97.0666 26.2618 97.6346 26.3797 98.0525 26.4976C97.8167 26.4119 97.9132 26.3904 98.0954 26.4333C99.3921 26.7334 98.1919 26.4119 99.5099 26.6798C100.239 26.8191 101.921 27.1941 103.636 27.6013C106.047 28.1693 108.49 28.7587 109.647 29.0266C109.626 28.7908 109.604 28.6515 109.594 28.5336C109.454 27.8157 109.347 27.0977 109.262 26.369C109.208 26.0047 109.165 25.6403 109.122 25.2867C109.101 25.1474 109.079 25.0081 109.058 24.8687C109.036 24.7723 109.026 24.6866 109.004 24.5901L109.036 24.6652C108.897 23.8936 108.426 19.5107 108.265 18.6213V18.7499C108.104 17.9783 108.222 18.0641 108.179 17.4425C108.083 17.539 107.933 16.8746 107.901 16.6174L107.922 16.6281C107.858 16.2423 107.643 15.385 107.547 14.7421L107.611 14.7635C107.483 14.2384 107.376 13.2418 107.322 12.8561C107.236 11.9773 107.161 10.6164 106.925 9.45906L106.99 8.68751L106.958 8.58034L106.315 6.07279C106.165 5.50484 104.418 7.69091 104.364 7.63733C104.504 7.49802 104.632 7.36943 104.686 7.33728C104.621 7.348 104.354 7.60518 104.225 7.75521L104.257 7.84094C103.957 8.18385 104.15 7.8838 103.839 8.20528C103.775 8.17313 104.054 7.87309 104.311 7.6159C104.075 7.84094 103.807 8.03383 103.764 8.18385C103.528 8.38746 103.732 8.09812 103.453 8.34459C103.282 8.54819 103.089 8.83753 102.843 9.0197V9.00899C102.275 9.48049 102.125 9.87699 101.6 10.3056L101.632 10.2413C101.439 10.3806 101.139 10.7557 100.817 11.0236C100.914 10.9486 101.021 10.9057 100.849 11.0986C100.474 11.4201 100.271 11.688 99.9707 11.9023L99.7778 12.1917C98.5562 13.4026 93.8518 18.2677 92.6409 19.5L92.6838 19.4464C91.4836 20.6252 89.7797 22.3612 87.9473 24.2258Z" fill="#F3F4F6"/>
<path d="M32.4492 70.6157C34.421 70.7979 36.4784 70.9908 38.3859 71.1622C39.5004 71.2587 40.5398 71.3444 41.3328 71.3873C41.74 71.4944 42.3187 71.5373 42.7581 71.5909C42.5223 71.5373 42.6081 71.5051 42.7902 71.5266C44.119 71.6659 42.8867 71.4944 44.2262 71.5909C44.9656 71.6337 46.6801 71.8052 48.4268 71.9874C50.8915 72.2553 53.3884 72.5232 54.5672 72.6518C54.5136 72.4267 54.4814 72.2874 54.4493 72.1695C54.2242 71.4837 54.0313 70.7764 53.8492 70.0585C53.7527 69.7048 53.6563 69.3512 53.5706 69.0083C53.5277 68.869 53.4955 68.7404 53.4527 68.6011C53.4205 68.5154 53.3991 68.4189 53.367 68.3332L53.4098 68.3975C53.1741 67.6474 52.1561 63.3609 51.8989 62.4929L51.9203 62.6108C51.6631 61.8607 51.7917 61.9357 51.6631 61.3249C51.5774 61.432 51.3524 60.7891 51.2773 60.5426H51.2988C51.1809 60.1676 50.8701 59.3424 50.6986 58.7209L50.763 58.7316C50.5701 58.2279 50.3343 57.2421 50.2379 56.8777C50.045 56.0204 49.7985 54.6809 49.4235 53.5557L49.3913 52.7735L49.3485 52.6663L48.3947 50.2552C48.1697 49.7087 46.7123 52.0876 46.6587 52.0448C46.7766 51.8947 46.8945 51.7447 46.9374 51.7126C46.8838 51.734 46.6373 52.0126 46.5301 52.1841L46.573 52.2591C46.3158 52.6449 46.4658 52.3127 46.1979 52.677C46.1336 52.6556 46.3694 52.3234 46.5837 52.0341C46.3801 52.2912 46.1443 52.5163 46.1122 52.6663C45.9086 52.8913 46.0693 52.5913 45.8228 52.8592C45.6835 53.0842 45.5228 53.395 45.2978 53.6093L45.287 53.5986C44.7834 54.1344 44.6762 54.5523 44.2154 55.0453L44.2369 54.9703C44.0654 55.131 43.819 55.5382 43.5189 55.849C43.6047 55.7632 43.7118 55.7097 43.5618 55.9133C43.2296 56.2776 43.0581 56.567 42.7902 56.8241L42.6295 57.1349C41.5686 58.4851 37.5072 63.9075 36.4677 65.2684L36.4999 65.2148C35.514 66.6079 34.0459 68.5368 32.4492 70.6157Z" fill="#F3F4F6"/>
<path d="M12.5065 96.7522C13.4495 95.0162 14.4353 93.1945 15.3569 91.5121C15.882 90.5262 16.3643 89.6046 16.7286 88.8974C16.9858 88.5652 17.2536 88.0508 17.4787 87.6757C17.3394 87.8794 17.3394 87.7829 17.4358 87.6115C18.0895 86.4434 17.4359 87.515 18.0681 86.3148C18.4003 85.6504 19.2361 84.1395 20.0934 82.6071C21.315 80.4531 22.5474 78.267 23.1261 77.2276C22.8903 77.1847 22.751 77.1633 22.6332 77.1419C21.9045 77.0776 21.1865 76.9811 20.4578 76.8632C20.0934 76.8097 19.7291 76.7561 19.3862 76.7025C19.2469 76.6811 19.1075 76.6704 18.9682 76.6489C18.8718 76.6382 18.7753 76.6275 18.6896 76.6275L18.7646 76.6168C17.9824 76.5311 13.6424 75.7809 12.7422 75.6738L12.8601 75.7059C12.0671 75.6416 12.1957 75.5559 11.5849 75.438C11.6491 75.5559 10.974 75.513 10.7169 75.4809L10.7276 75.4594C10.3418 75.4166 9.4524 75.3737 8.82015 75.2987L8.85227 75.2451C8.31647 75.2237 7.3199 75.0522 6.93412 74.9986C6.06612 74.8379 4.73731 74.5379 3.56926 74.4307L2.84058 74.1521H2.72271L0.129446 74.0771C-0.459937 74.0663 1.15815 76.3489 1.09385 76.381C0.997408 76.2096 0.911687 76.0488 0.900971 75.9952C0.890255 76.0488 1.06172 76.3917 1.1796 76.5525L1.26535 76.5418C1.51182 76.9275 1.27603 76.6596 1.50107 77.0454C1.4582 77.099 1.24391 76.7454 1.06174 76.4346C1.21176 76.7239 1.32963 77.0347 1.45823 77.1097C1.58682 77.3883 1.3725 77.1204 1.52252 77.4526C1.67255 77.6777 1.8976 77.9456 2.00476 78.2242H1.99403C2.29408 78.8993 2.62624 79.1565 2.89414 79.778L2.84058 79.7244C2.9263 79.9495 3.19419 80.3352 3.36565 80.7317C3.31207 80.6139 3.31208 80.5067 3.44067 80.721C3.64428 81.1711 3.84788 81.4497 3.97647 81.7819L4.20154 82.0498C5.02667 83.5501 8.40219 89.4225 9.24876 90.9227L9.20592 90.8691C10.0418 92.348 11.2313 94.4697 12.5065 96.7522Z" fill="#F3F4F6"/>
<path d="M32.2887 46.676C31.2278 45.0043 30.1133 43.2576 29.0846 41.6395C28.4738 40.6965 27.9059 39.8285 27.4558 39.1641C27.2843 38.7783 26.9628 38.2961 26.7485 37.9103C26.8557 38.1353 26.7699 38.0818 26.6735 37.921C25.9662 36.7851 26.5878 37.8674 25.8484 36.7423C25.4305 36.1314 24.5088 34.6741 23.5872 33.1738C22.2906 31.0627 20.9726 28.9303 20.351 27.9122C20.201 28.0944 20.1152 28.2016 20.0402 28.298C19.633 28.9088 19.1937 29.4875 18.7436 30.0662C18.5186 30.3555 18.3043 30.6448 18.0792 30.9342C17.9935 31.052 17.9077 31.1592 17.8327 31.2663C17.7791 31.3414 17.7256 31.4271 17.672 31.5021L17.7041 31.4271C17.2541 32.0701 14.4893 35.5099 13.9642 36.2386L14.05 36.1529C13.6106 36.8173 13.5999 36.6673 13.1927 37.1388C13.3212 37.1388 12.9569 37.7067 12.8069 37.921L12.7962 37.8996C12.5711 38.2211 12.1103 38.9712 11.7246 39.4856L11.6924 39.432C11.4138 39.8928 10.7816 40.6751 10.5458 40.9858C9.98858 41.6716 9.07774 42.679 8.42406 43.6648L7.82396 44.1685L7.77033 44.2649L6.44155 46.4939C6.1415 47.0082 8.92768 46.6975 8.92768 46.7618C8.73479 46.7618 8.54193 46.7618 8.48835 46.751C8.53122 46.7832 8.90623 46.8046 9.10984 46.7832L9.14202 46.6975C9.60281 46.6653 9.2492 46.7511 9.69927 46.7403C9.72071 46.8046 9.31348 46.8261 8.94914 46.8261C9.27062 46.8261 9.6028 46.8796 9.73139 46.8046C10.0422 46.8261 9.69924 46.8904 10.0636 46.9118C10.3208 46.8904 10.6744 46.8261 10.9745 46.8689L10.9638 46.8797C11.7032 46.9439 12.0889 46.7725 12.7641 46.8368L12.689 46.8582C12.9248 46.9011 13.3963 46.8475 13.8249 46.8797C13.7071 46.8689 13.5999 46.8153 13.8571 46.8046C14.35 46.8475 14.6822 46.8046 15.0466 46.8475L15.3895 46.7832C17.1041 46.7939 23.8766 46.6868 25.6019 46.6653L25.5376 46.676C27.2414 46.7082 29.674 46.6975 32.2887 46.676Z" fill="#F3F4F6"/>
</svg>
