<svg width="342" height="296" viewBox="0 0 342 296" fill="none" xmlns="http://www.w3.org/2000/svg">
<path d="M130.946 164.275C134.871 167.003 138.986 169.851 142.791 172.483C145.041 174.014 147.098 175.402 148.726 176.479C149.467 177.173 150.64 177.963 151.477 178.609C151.023 178.226 151.262 178.25 151.621 178.513C154.253 180.379 151.86 178.537 154.564 180.355C156.072 181.313 159.494 183.729 162.94 186.194C167.797 189.688 172.726 193.229 175.072 194.904C175.239 194.354 175.311 194.019 175.407 193.756C175.742 192.033 176.196 190.31 176.627 188.611C176.842 187.75 177.082 186.912 177.297 186.075C177.369 185.74 177.464 185.405 177.536 185.093C177.584 184.854 177.632 184.639 177.68 184.423V184.615C178.087 182.772 181.03 172.531 181.508 170.401L181.413 170.688C181.772 168.798 181.939 169.133 182.394 167.697C182.107 167.817 182.37 166.213 182.513 165.591L182.561 165.639C182.753 164.73 183.088 162.6 183.447 161.093L183.566 161.188C183.758 159.896 184.428 157.551 184.667 156.666C185.265 154.632 186.342 151.521 186.893 148.721L187.754 147.046L187.778 146.783L188.639 140.585C188.807 139.173 182.92 142.452 182.848 142.284C183.279 142.117 183.71 141.925 183.83 141.925C183.686 141.901 182.848 142.212 182.418 142.452V142.667C181.413 143.17 182.131 142.667 181.15 143.098C181.03 142.978 181.939 142.548 182.729 142.189C181.987 142.476 181.221 142.667 181.006 142.954C180.288 143.194 181.006 142.739 180.168 143.026C179.594 143.313 178.9 143.792 178.182 143.983V143.959C176.483 144.486 175.765 145.252 174.21 145.73L174.354 145.61C173.803 145.754 172.798 146.304 171.793 146.615C172.08 146.52 172.368 146.544 171.793 146.807C170.669 147.166 169.951 147.597 169.089 147.812L168.371 148.29C164.543 149.87 149.563 156.45 145.734 158.101L145.878 158.006C142.145 159.489 136.761 161.787 130.946 164.275Z" fill="#E5E7EB"/>
<path d="M119.483 116.321C123.384 113.545 127.452 110.65 131.232 107.97C133.434 106.391 135.444 104.907 136.999 103.734C137.909 103.28 139.033 102.442 139.919 101.868C139.392 102.155 139.512 101.94 139.871 101.677C142.527 99.8341 139.99 101.461 142.623 99.5469C144.034 98.4701 147.456 96.0533 150.95 93.6604C155.879 90.2864 160.881 86.8406 163.25 85.2134C162.795 84.8784 162.508 84.6869 162.268 84.5194C160.761 83.6101 159.301 82.629 157.842 81.6001C157.124 81.0976 156.382 80.5951 155.688 80.1165C155.401 79.9251 155.114 79.7336 154.85 79.5422C154.659 79.4226 154.468 79.3029 154.276 79.1832L154.444 79.2311C152.84 78.2261 144.202 71.9806 142.359 70.7842L142.575 70.9756C140.924 69.9945 141.283 69.9466 140.086 69.0373C140.11 69.3484 138.674 68.5348 138.148 68.1998L138.196 68.1759C137.406 67.6734 135.516 66.6444 134.224 65.783L134.343 65.6872C133.195 65.0651 131.232 63.6293 130.443 63.1268C128.72 61.8586 126.159 59.8007 123.719 58.317L122.427 56.9292L122.187 56.8096L116.636 53.8902C115.367 53.2441 116.444 59.8964 116.277 59.9203C116.253 59.4657 116.229 59.011 116.253 58.8674C116.181 58.9871 116.181 59.8964 116.253 60.375L116.444 60.4468C116.564 61.5475 116.349 60.71 116.42 61.7868C116.253 61.8586 116.181 60.8536 116.109 59.9921C116.133 60.7818 116.061 61.5715 116.253 61.8825C116.229 62.6243 116.061 61.8107 116.037 62.6961C116.109 63.3183 116.325 64.1557 116.253 64.8975L116.229 64.8737C116.157 66.6683 116.612 67.5776 116.54 69.2048L116.468 69.0373C116.396 69.6116 116.588 70.7363 116.54 71.7891C116.564 71.502 116.66 71.2388 116.707 71.837C116.66 73.0335 116.803 73.847 116.731 74.7085L116.923 75.5221C117.114 79.6618 118.191 96.0054 118.454 100.145L118.43 99.9776C118.789 104.141 119.124 110.004 119.483 116.321Z" fill="#E5E7EB"/>
<path d="M52.2432 3.16056C53.7507 5.07489 55.33 7.10884 56.7897 8.97531C57.6511 10.0521 58.4408 11.0571 59.0869 11.8229C59.3501 12.2775 59.8048 12.8279 60.1158 13.2826C59.9483 13.0194 60.068 13.0672 60.2116 13.2586C61.2166 14.5747 60.3312 13.3065 61.3602 14.5987C61.9345 15.2926 63.2505 16.9916 64.5666 18.7145C66.4092 21.1552 68.2757 23.6199 69.161 24.7925C69.3285 24.5532 69.4243 24.4096 69.4961 24.29C69.9268 23.5003 70.4053 22.7346 70.8839 21.9689C71.1232 21.586 71.3625 21.2031 71.6018 20.8202C71.6975 20.6767 71.7932 20.5331 71.865 20.3656C71.9129 20.2699 71.9847 20.1502 72.0325 20.0545L72.0086 20.1502C72.4872 19.3127 75.4783 14.7662 76.0287 13.7851L75.933 13.9047C76.3876 13.0433 76.4355 13.2108 76.8662 12.5886C76.6987 12.6126 77.0816 11.8468 77.2491 11.5836L77.273 11.6075C77.5123 11.1768 77.9909 10.1957 78.3977 9.52571L78.4455 9.59749C78.7327 8.99927 79.4266 7.97035 79.6659 7.53963C80.2641 6.63032 81.2691 5.29027 81.9631 3.9981L82.6331 3.30413L82.681 3.18451L84.0449 0.289044C84.356 -0.380971 80.982 0.336928 80.9581 0.241212C81.1974 0.217283 81.4366 0.19333 81.5084 0.217259C81.4366 0.169401 80.982 0.193377 80.7427 0.265164L80.7188 0.360901C80.1684 0.456617 80.5752 0.312993 80.0248 0.38478C79.977 0.312993 80.5034 0.241238 80.9342 0.19338C80.5274 0.217309 80.1205 0.193351 79.977 0.312996C79.5941 0.312996 80.0009 0.217259 79.5463 0.217259C79.2352 0.265117 78.8045 0.38478 78.4216 0.38478V0.360901C77.5123 0.360901 77.0576 0.624086 76.2201 0.624086L76.3158 0.576254C76.0287 0.552325 75.4544 0.671918 74.9279 0.671918C75.0715 0.671918 75.2151 0.719796 74.904 0.767654C74.2819 0.767654 73.8751 0.863368 73.4443 0.839439L73.0375 0.959128C70.9318 1.15056 62.6284 2.08374 60.4987 2.32303L60.5705 2.29915C58.4408 2.53844 55.4736 2.84948 52.2432 3.16056Z" fill="#E5E7EB"/>
<path d="M319.962 133.526C321.924 132.067 323.982 130.535 325.872 129.123C326.973 128.286 328.002 127.52 328.768 126.898C329.222 126.659 329.797 126.228 330.251 125.917C329.988 126.06 330.036 125.965 330.227 125.821C331.567 124.864 330.275 125.701 331.615 124.696C332.333 124.122 334.056 122.854 335.803 121.586C338.291 119.791 340.804 117.996 342 117.135C341.761 116.967 341.618 116.872 341.498 116.776C340.708 116.321 339.966 115.843 339.201 115.34C338.818 115.101 338.435 114.838 338.076 114.598C337.932 114.503 337.789 114.407 337.645 114.311C337.55 114.263 337.454 114.192 337.334 114.144L337.43 114.168C336.592 113.665 332.118 110.578 331.161 110.004L331.28 110.1C330.419 109.621 330.61 109.597 329.988 109.143C330.012 109.31 329.27 108.903 328.983 108.736L329.007 108.712C328.6 108.473 327.619 107.97 326.949 107.539L327.021 107.491C326.423 107.18 325.418 106.486 325.011 106.223C324.125 105.601 322.785 104.572 321.517 103.854L320.847 103.16L320.727 103.112L317.856 101.677C317.186 101.366 317.832 104.74 317.736 104.763C317.712 104.524 317.712 104.285 317.712 104.213C317.665 104.285 317.688 104.74 317.736 104.979L317.832 105.003C317.904 105.553 317.784 105.146 317.832 105.697C317.76 105.721 317.688 105.218 317.664 104.787C317.688 105.194 317.665 105.601 317.76 105.745C317.76 106.127 317.664 105.721 317.664 106.175C317.712 106.486 317.832 106.917 317.808 107.3H317.784C317.76 108.209 318.023 108.664 318 109.501L317.976 109.406C317.952 109.693 318.047 110.267 318.047 110.794C318.047 110.65 318.095 110.506 318.143 110.818C318.143 111.44 318.215 111.847 318.191 112.277L318.311 112.684C318.454 114.79 319.196 123.117 319.363 125.247L319.34 125.175C319.483 127.329 319.722 130.32 319.962 133.526Z" fill="#E5E7EB"/>
<path d="M115.176 281.504C119.795 282.724 124.628 283.992 129.103 285.189C131.735 285.859 134.152 286.481 136.042 286.912C136.976 287.318 138.34 287.653 139.345 287.965C138.794 287.749 139.01 287.701 139.464 287.821C142.575 288.682 139.704 287.773 142.862 288.563C144.609 288.97 148.629 290.046 152.721 291.195C158.488 292.822 164.327 294.449 167.078 295.239C167.031 294.665 167.007 294.33 166.983 294.043C166.72 292.296 166.552 290.549 166.384 288.778C166.313 287.893 166.217 287.007 166.145 286.17C166.121 285.835 166.073 285.5 166.049 285.165C166.026 284.949 165.978 284.71 165.954 284.495L166.026 284.662C165.762 282.796 165.044 272.147 164.781 269.994V270.281C164.47 268.391 164.733 268.63 164.686 267.122C164.446 267.338 164.159 265.734 164.087 265.112L164.135 265.136C164.016 264.203 163.609 262.097 163.417 260.566L163.561 260.614C163.298 259.345 163.154 256.905 163.034 255.971C162.915 253.842 162.867 250.563 162.412 247.74L162.652 245.873L162.58 245.61L161.288 239.484C160.977 238.096 156.55 243.193 156.43 243.074C156.765 242.763 157.1 242.451 157.244 242.38C157.1 242.404 156.406 242.978 156.095 243.337L156.167 243.528C155.401 244.342 155.904 243.624 155.114 244.366C154.97 244.294 155.664 243.576 156.31 242.978C155.712 243.504 155.066 243.959 154.946 244.294C154.348 244.749 154.875 244.102 154.181 244.653C153.75 245.131 153.247 245.802 152.649 246.232V246.208C151.237 247.285 150.831 248.242 149.515 249.223L149.61 249.056C149.132 249.367 148.39 250.228 147.552 250.874C147.792 250.707 148.055 250.611 147.624 251.042C146.691 251.784 146.164 252.406 145.423 252.908L144.92 253.602C141.857 256.402 130.012 267.697 126.973 270.544L127.069 270.425C124.078 273.176 119.795 277.173 115.176 281.504Z" fill="#E5E7EB"/>
<path d="M220.058 175.474C223.264 179.015 226.614 182.748 229.701 186.194C231.544 188.204 233.219 190.023 234.559 191.434C235.133 192.296 236.066 193.325 236.736 194.138C236.401 193.66 236.617 193.732 236.904 194.091C239.033 196.507 237.119 194.186 239.344 196.579C240.589 197.871 243.365 200.982 246.164 204.165C250.089 208.687 254.085 213.258 255.975 215.411C256.262 214.909 256.406 214.622 256.549 214.359C257.267 212.755 258.105 211.2 258.942 209.621C259.349 208.831 259.78 208.065 260.163 207.299C260.33 206.988 260.474 206.701 260.617 206.39C260.713 206.175 260.809 205.983 260.905 205.768L260.881 205.959C261.694 204.26 266.911 194.952 267.868 192.99L267.7 193.229C268.466 191.482 268.562 191.817 269.352 190.549C269.04 190.597 269.663 189.09 269.95 188.539L269.998 188.587C270.404 187.749 271.218 185.763 271.912 184.375L272.008 184.495C272.486 183.275 273.683 181.169 274.113 180.331C275.166 178.489 276.937 175.713 278.11 173.105L279.33 171.669L279.426 171.406L281.699 165.567C282.201 164.227 275.693 166.07 275.669 165.902C276.123 165.83 276.578 165.759 276.722 165.759C276.602 165.687 275.693 165.806 275.238 165.926L275.19 166.142C274.113 166.405 274.927 166.07 273.85 166.261C273.754 166.118 274.736 165.902 275.597 165.759C274.831 165.878 274.018 165.878 273.731 166.118C272.989 166.165 273.778 165.902 272.893 165.998C272.271 166.141 271.481 166.453 270.739 166.476V166.453C268.969 166.596 268.107 167.147 266.48 167.266L266.648 167.194C266.073 167.194 264.972 167.505 263.944 167.577C264.231 167.553 264.518 167.625 263.896 167.745C262.699 167.84 261.934 168.08 261.048 168.104L260.258 168.391C256.167 169.061 240.062 172.004 235.97 172.722L236.114 172.674C232.07 173.392 226.303 174.397 220.058 175.474Z" fill="#E5E7EB"/>
<path d="M197.014 112.445C201.68 113.474 206.562 114.55 211.084 115.555C213.741 116.13 216.181 116.632 218.096 116.991C219.053 117.374 220.417 117.637 221.446 117.924C220.895 117.733 221.111 117.661 221.565 117.781C224.7 118.499 221.805 117.733 224.987 118.379C226.734 118.714 230.826 119.623 234.942 120.605C240.757 121.992 246.667 123.38 249.467 124.05C249.395 123.476 249.371 123.141 249.323 122.854C248.988 121.131 248.749 119.384 248.51 117.613C248.39 116.728 248.27 115.867 248.175 115.005C248.127 114.67 248.079 114.335 248.031 114C247.983 113.761 247.935 113.545 247.911 113.33L247.983 113.498C247.648 111.631 246.5 101.031 246.141 98.8769V99.164C245.758 97.2976 246.045 97.5129 245.925 96.0054C245.686 96.2447 245.327 94.6414 245.231 94.0193L245.303 94.0432C245.136 93.11 244.633 91.0282 244.418 89.4967L244.561 89.5446C244.25 88.2763 243.987 85.8595 243.867 84.9263C243.652 82.8205 243.461 79.5182 242.91 76.7185L243.078 74.8521L243.006 74.5889L241.45 68.5109C241.068 67.123 236.856 72.4114 236.736 72.2917C237.071 71.9567 237.406 71.6456 237.502 71.5738C237.359 71.5977 236.689 72.2199 236.377 72.5788L236.449 72.7702C235.707 73.6078 236.186 72.866 235.444 73.6556C235.301 73.5838 235.971 72.8421 236.569 72.2199C235.995 72.7703 235.372 73.2488 235.253 73.5838C234.679 74.0624 235.181 73.3924 234.487 73.9667C234.08 74.4453 233.602 75.1631 233.004 75.5939V75.57C231.64 76.7186 231.257 77.6757 229.988 78.7047L230.084 78.5372C229.606 78.8722 228.912 79.7576 228.098 80.4276C228.337 80.2362 228.601 80.1405 228.17 80.5951C227.261 81.3608 226.758 82.0069 226.064 82.5572L225.585 83.2512C222.642 86.1705 211.252 97.9437 208.357 100.911L208.452 100.767C205.557 103.758 201.441 107.922 197.014 112.445Z" fill="#E5E7EB"/>
<path d="M62.916 224.552C67.6779 224.983 72.6552 225.462 77.2735 225.892C79.9775 226.132 82.4661 226.323 84.4043 226.443C85.4093 226.682 86.7972 226.802 87.8501 226.945C87.2758 226.826 87.4912 226.73 87.9458 226.778C91.1523 227.113 88.1851 226.682 91.4156 226.945C93.1863 227.041 97.35 227.448 101.561 227.902C107.52 228.549 113.55 229.195 116.397 229.53C116.254 228.979 116.182 228.644 116.11 228.357C115.56 226.682 115.105 224.983 114.651 223.26C114.411 222.399 114.196 221.561 113.981 220.724C113.885 220.389 113.789 220.078 113.694 219.743C113.622 219.527 113.55 219.312 113.478 219.097L113.574 219.264C113.024 217.469 110.535 207.084 109.913 205.002L109.961 205.29C109.338 203.471 109.65 203.662 109.338 202.203C109.147 202.466 108.597 200.911 108.405 200.312H108.477C108.19 199.403 107.448 197.417 107.017 195.909L107.161 195.933C106.682 194.713 106.132 192.344 105.893 191.435C105.414 189.353 104.816 186.122 103.93 183.418L103.859 181.528L103.763 181.265L101.466 175.45C100.915 174.134 97.3978 179.901 97.2782 179.781C97.5653 179.422 97.8525 179.063 97.9482 178.968C97.8046 179.015 97.2303 179.709 96.9671 180.116L97.0628 180.308C96.4406 181.241 96.8235 180.451 96.1535 181.313C95.986 181.265 96.5603 180.451 97.0867 179.757C96.5842 180.379 96.0099 180.93 95.9621 181.289C95.4596 181.839 95.8663 181.097 95.2681 181.767C94.9092 182.294 94.5263 183.059 93.9999 183.586L93.976 183.562C92.7556 184.854 92.5163 185.859 91.3916 187.055L91.4634 186.888C91.0327 187.295 90.4584 188.252 89.7405 189.018C89.9559 188.802 90.1952 188.683 89.8362 189.185C89.0226 190.071 88.6158 190.764 87.9937 191.387L87.6108 192.152C85.0504 195.407 75.2395 208.52 72.703 211.822L72.7748 211.679C70.3101 214.861 66.7447 219.527 62.916 224.552Z" fill="#E5E7EB"/>
<path d="M62.5086 166.692C59.9481 162.672 57.2442 158.436 54.7555 154.536C53.2719 152.263 51.908 150.157 50.8312 148.554C50.4244 147.621 49.6586 146.448 49.1083 145.539C49.3715 146.065 49.1561 145.969 48.9168 145.563C47.2179 142.835 48.7015 145.443 46.9068 142.715C45.9018 141.231 43.6764 137.714 41.427 134.101C38.2923 129.004 35.1098 123.835 33.6022 121.394C33.2433 121.849 33.0279 122.112 32.8604 122.327C31.8793 123.787 30.8025 125.199 29.7257 126.611C29.1993 127.305 28.6489 128.023 28.1225 128.693C27.9071 128.98 27.7157 129.243 27.5242 129.506C27.3807 129.698 27.261 129.889 27.1414 130.081L27.2132 129.913C26.1363 131.468 19.4601 139.772 18.1919 141.543L18.4073 141.327C17.3544 142.93 17.3065 142.571 16.3254 143.72C16.6365 143.72 15.7751 145.108 15.3922 145.61L15.3683 145.563C14.8179 146.328 13.6932 148.147 12.7839 149.415L12.7121 149.272C12.0421 150.396 10.5107 152.287 9.96029 153.029C8.62026 154.68 6.41878 157.12 4.81553 159.489L3.37979 160.71L3.26015 160.949L0.0536462 166.333C-0.664226 167.577 6.05985 166.836 6.05985 167.003C5.6052 167.003 5.15054 167.003 5.00697 166.955C5.12661 167.027 6.03591 167.075 6.51449 167.027L6.58629 166.836C7.68703 166.764 6.84951 166.955 7.92632 166.931C7.97418 167.099 6.99308 167.123 6.1077 167.147C6.89736 167.171 7.68702 167.29 7.9981 167.099C8.7399 167.171 7.90239 167.29 8.8117 167.362C9.43386 167.314 10.2714 167.147 11.0132 167.242L10.9892 167.266C12.76 167.434 13.7171 167.003 15.3204 167.171L15.1529 167.218C15.7272 167.314 16.8519 167.171 17.8808 167.29C17.5937 167.266 17.3305 167.147 17.9526 167.123C19.1491 167.218 19.9626 167.123 20.8241 167.242L21.6616 167.075C25.8013 167.099 42.1688 166.836 46.3325 166.788L46.165 166.812C50.3047 166.788 56.1913 166.74 62.5086 166.692Z" fill="#E5E7EB"/>
</svg>
