<svg width="266" height="550" viewBox="0 0 266 550" fill="none" xmlns="http://www.w3.org/2000/svg">
<path d="M6.09437 12.1888C9.46021 12.1888 12.1887 9.46021 12.1887 6.09437C12.1887 2.72854 9.46021 0 6.09437 0C2.72854 0 0 2.72854 0 6.09437C0 9.46021 2.72854 12.1888 6.09437 12.1888Z" fill="#E5E7EB"/>
<path d="M61.0016 12.1888C64.3674 12.1888 67.096 9.46021 67.096 6.09437C67.096 2.72854 64.3674 0 61.0016 0C57.6358 0 54.9072 2.72854 54.9072 6.09437C54.9072 9.46021 57.6358 12.1888 61.0016 12.1888Z" fill="#E5E7EB"/>
<path d="M115.909 12.1888C119.275 12.1888 122.003 9.46021 122.003 6.09437C122.003 2.72854 119.275 0 115.909 0C112.543 0 109.814 2.72854 109.814 6.09437C109.814 9.46021 112.543 12.1888 115.909 12.1888Z" fill="#E5E7EB"/>
<path d="M170.815 12.1888C174.181 12.1888 176.909 9.46021 176.909 6.09437C176.909 2.72854 174.181 0 170.815 0C167.449 0 164.72 2.72854 164.72 6.09437C164.72 9.46021 167.449 12.1888 170.815 12.1888Z" fill="#E5E7EB"/>
<path d="M231.816 6.09437C231.816 9.45779 229.085 12.1888 225.722 12.1888C222.358 12.1888 219.627 9.45779 219.627 6.09437C219.627 2.73096 222.358 0 225.722 0C229.085 0 231.816 2.73096 231.816 6.09437Z" fill="#E5E7EB"/>
<path d="M6.09437 61.0012C9.46021 61.0012 12.1887 58.2727 12.1887 54.9069C12.1887 51.541 9.46021 48.8125 6.09437 48.8125C2.72854 48.8125 0 51.541 0 54.9069C0 58.2727 2.72854 61.0012 6.09437 61.0012Z" fill="#E5E7EB"/>
<path d="M61.0016 61.0012C64.3674 61.0012 67.096 58.2727 67.096 54.9069C67.096 51.541 64.3674 48.8125 61.0016 48.8125C57.6358 48.8125 54.9072 51.541 54.9072 54.9069C54.9072 58.2727 57.6358 61.0012 61.0016 61.0012Z" fill="#E5E7EB"/>
<path d="M115.909 61.0012C119.275 61.0012 122.003 58.2727 122.003 54.9069C122.003 51.541 119.275 48.8125 115.909 48.8125C112.543 48.8125 109.814 51.541 109.814 54.9069C109.814 58.2727 112.543 61.0012 115.909 61.0012Z" fill="#E5E7EB"/>
<path d="M170.815 61.0012C174.181 61.0012 176.909 58.2727 176.909 54.9069C176.909 51.541 174.181 48.8125 170.815 48.8125C167.449 48.8125 164.72 51.541 164.72 54.9069C164.72 58.2727 167.449 61.0012 170.815 61.0012Z" fill="#E5E7EB"/>
<path d="M231.816 54.9069C231.816 58.2703 229.085 61.0012 225.722 61.0012C222.358 61.0012 219.627 58.2703 219.627 54.9069C219.627 51.5435 222.358 48.8125 225.722 48.8125C229.085 48.8125 231.816 51.5435 231.816 54.9069Z" fill="#E5E7EB"/>
<path d="M6.09437 109.785C9.46021 109.785 12.1887 107.057 12.1887 103.691C12.1887 100.325 9.46021 97.5963 6.09437 97.5963C2.72854 97.5963 0 100.325 0 103.691C0 107.057 2.72854 109.785 6.09437 109.785Z" fill="#E5E7EB"/>
<path d="M61.0016 109.785C64.3674 109.785 67.096 107.057 67.096 103.691C67.096 100.325 64.3674 97.5963 61.0016 97.5963C57.6358 97.5963 54.9072 100.325 54.9072 103.691C54.9072 107.057 57.6358 109.785 61.0016 109.785Z" fill="#E5E7EB"/>
<path d="M115.909 109.785C119.275 109.785 122.003 107.057 122.003 103.691C122.003 100.325 119.275 97.5963 115.909 97.5963C112.543 97.5963 109.814 100.325 109.814 103.691C109.814 107.057 112.543 109.785 115.909 109.785Z" fill="#E5E7EB"/>
<path d="M170.815 109.785C174.181 109.785 176.909 107.057 176.909 103.691C176.909 100.325 174.181 97.5963 170.815 97.5963C167.449 97.5963 164.72 100.325 164.72 103.691C164.72 107.057 167.449 109.785 170.815 109.785Z" fill="#E5E7EB"/>
<path d="M231.816 103.691C231.816 107.054 229.085 109.785 225.722 109.785C222.358 109.785 219.627 107.054 219.627 103.691C219.627 100.327 222.358 97.5963 225.722 97.5963C229.085 97.5963 231.816 100.327 231.816 103.691Z" fill="#E5E7EB"/>
<path d="M12.1887 152.504C12.1887 155.867 9.45779 158.598 6.09437 158.598C2.73096 158.598 0 155.867 0 152.504C0 149.14 2.73096 146.409 6.09437 146.409C9.45779 146.409 12.1887 149.14 12.1887 152.504Z" fill="#E5E7EB"/>
<path d="M67.096 152.504C67.096 155.867 64.365 158.598 61.0016 158.598C57.6382 158.598 54.9072 155.867 54.9072 152.504C54.9072 149.14 57.6382 146.409 61.0016 146.409C64.365 146.409 67.096 149.14 67.096 152.504Z" fill="#E5E7EB"/>
<path d="M122.003 152.504C122.003 155.867 119.272 158.598 115.909 158.598C112.545 158.598 109.814 155.867 109.814 152.504C109.814 149.14 112.545 146.409 115.909 146.409C119.272 146.409 122.003 149.14 122.003 152.504Z" fill="#E5E7EB"/>
<path d="M176.909 152.504C176.909 155.867 174.178 158.598 170.815 158.598C167.451 158.598 164.72 155.867 164.72 152.504C164.72 149.14 167.451 146.409 170.815 146.409C174.178 146.409 176.909 149.14 176.909 152.504Z" fill="#E5E7EB"/>
<path d="M231.816 152.504C231.816 155.867 229.085 158.598 225.722 158.598C222.358 158.598 219.627 155.867 219.627 152.504C219.627 149.14 222.358 146.409 225.722 146.409C229.085 146.409 231.816 149.14 231.816 152.504Z" fill="#E5E7EB"/>
<path d="M12.1887 201.316C12.1887 204.679 9.45779 207.41 6.09437 207.41C2.73096 207.41 0 204.679 0 201.316C0 197.953 2.73096 195.222 6.09437 195.222C9.45779 195.193 12.1887 197.924 12.1887 201.316Z" fill="#E5E7EB"/>
<path d="M67.096 201.316C67.096 204.679 64.365 207.41 61.0016 207.41C57.6382 207.41 54.9072 204.679 54.9072 201.316C54.9072 197.953 57.6382 195.222 61.0016 195.222C64.365 195.193 67.096 197.924 67.096 201.316Z" fill="#E5E7EB"/>
<path d="M122.003 201.316C122.003 204.679 119.272 207.41 115.909 207.41C112.545 207.41 109.814 204.679 109.814 201.316C109.814 197.953 112.545 195.222 115.909 195.222C119.272 195.193 122.003 197.924 122.003 201.316Z" fill="#E5E7EB"/>
<path d="M176.909 201.316C176.909 204.679 174.178 207.41 170.815 207.41C167.451 207.41 164.72 204.679 164.72 201.316C164.72 197.953 167.451 195.222 170.815 195.222C174.178 195.193 176.909 197.924 176.909 201.316Z" fill="#E5E7EB"/>
<path d="M231.816 201.316C231.816 204.679 229.085 207.41 225.722 207.41C222.358 207.41 219.627 204.679 219.627 201.316C219.627 197.953 222.358 195.222 225.722 195.222C229.085 195.193 231.816 197.924 231.816 201.316Z" fill="#E5E7EB"/>
<path d="M6.09437 256.194C9.46021 256.194 12.1887 253.466 12.1887 250.1C12.1887 246.734 9.46021 244.005 6.09437 244.005C2.72854 244.005 0 246.734 0 250.1C0 253.466 2.72854 256.194 6.09437 256.194Z" fill="#E5E7EB"/>
<path d="M61.0016 256.194C64.3674 256.194 67.096 253.466 67.096 250.1C67.096 246.734 64.3674 244.005 61.0016 244.005C57.6358 244.005 54.9072 246.734 54.9072 250.1C54.9072 253.466 57.6358 256.194 61.0016 256.194Z" fill="#E5E7EB"/>
<path d="M115.909 256.194C119.275 256.194 122.003 253.466 122.003 250.1C122.003 246.734 119.275 244.005 115.909 244.005C112.543 244.005 109.814 246.734 109.814 250.1C109.814 253.466 112.543 256.194 115.909 256.194Z" fill="#E5E7EB"/>
<path d="M170.815 256.194C174.181 256.194 176.909 253.466 176.909 250.1C176.909 246.734 174.181 244.005 170.815 244.005C167.449 244.005 164.72 246.734 164.72 250.1C164.72 253.466 167.449 256.194 170.815 256.194Z" fill="#E5E7EB"/>
<path d="M231.816 250.1C231.816 253.463 229.085 256.194 225.722 256.194C222.358 256.194 219.627 253.463 219.627 250.1C219.627 246.736 222.358 244.005 225.722 244.005C229.085 244.005 231.816 246.736 231.816 250.1Z" fill="#E5E7EB"/>
<path d="M6.09437 305.007C9.46021 305.007 12.1887 302.278 12.1887 298.912C12.1887 295.547 9.46021 292.818 6.09437 292.818C2.72854 292.818 0 295.547 0 298.912C0 302.278 2.72854 305.007 6.09437 305.007Z" fill="#E5E7EB"/>
<path d="M61.0016 305.007C64.3674 305.007 67.096 302.278 67.096 298.912C67.096 295.547 64.3674 292.818 61.0016 292.818C57.6358 292.818 54.9072 295.547 54.9072 298.912C54.9072 302.278 57.6358 305.007 61.0016 305.007Z" fill="#E5E7EB"/>
<path d="M115.909 305.007C119.275 305.007 122.003 302.278 122.003 298.912C122.003 295.547 119.275 292.818 115.909 292.818C112.543 292.818 109.814 295.547 109.814 298.912C109.814 302.278 112.543 305.007 115.909 305.007Z" fill="#E5E7EB"/>
<path d="M170.815 305.007C174.181 305.007 176.909 302.278 176.909 298.912C176.909 295.547 174.181 292.818 170.815 292.818C167.449 292.818 164.72 295.547 164.72 298.912C164.72 302.278 167.449 305.007 170.815 305.007Z" fill="#E5E7EB"/>
<path d="M231.816 298.912C231.816 302.276 229.085 305.007 225.722 305.007C222.358 305.007 219.627 302.276 219.627 298.912C219.627 295.549 222.358 292.818 225.722 292.818C229.085 292.818 231.816 295.549 231.816 298.912Z" fill="#E5E7EB"/>
<path d="M12.1887 347.725C12.1887 351.089 9.45779 353.82 6.09437 353.82C2.73096 353.82 0 351.089 0 347.725C0 344.362 2.73096 341.631 6.09437 341.631C9.45779 341.602 12.1887 344.333 12.1887 347.725Z" fill="#E5E7EB"/>
<path d="M67.096 347.725C67.096 351.089 64.365 353.82 61.0016 353.82C57.6382 353.82 54.9072 351.089 54.9072 347.725C54.9072 344.362 57.6382 341.631 61.0016 341.631C64.365 341.602 67.096 344.333 67.096 347.725Z" fill="#E5E7EB"/>
<path d="M122.003 347.725C122.003 351.089 119.272 353.82 115.909 353.82C112.545 353.82 109.814 351.089 109.814 347.725C109.814 344.362 112.545 341.631 115.909 341.631C119.272 341.602 122.003 344.333 122.003 347.725Z" fill="#E5E7EB"/>
<path d="M176.909 347.725C176.909 351.089 174.178 353.82 170.815 353.82C167.451 353.82 164.72 351.089 164.72 347.725C164.72 344.362 167.451 341.631 170.815 341.631C174.178 341.602 176.909 344.333 176.909 347.725Z" fill="#E5E7EB"/>
<path d="M231.816 347.725C231.816 351.089 229.085 353.82 225.722 353.82C222.358 353.82 219.627 351.089 219.627 347.725C219.627 344.362 222.358 341.631 225.722 341.631C229.085 341.602 231.816 344.333 231.816 347.725Z" fill="#E5E7EB"/>
<path d="M12.1887 396.509C12.1887 399.873 9.45779 402.604 6.09437 402.604C2.73096 402.604 0 399.873 0 396.509C0 393.146 2.73096 390.415 6.09437 390.415C9.45779 390.415 12.1887 393.146 12.1887 396.509Z" fill="#E5E7EB"/>
<path d="M67.096 396.509C67.096 399.873 64.365 402.604 61.0016 402.604C57.6382 402.604 54.9072 399.873 54.9072 396.509C54.9072 393.146 57.6382 390.415 61.0016 390.415C64.365 390.415 67.096 393.146 67.096 396.509Z" fill="#E5E7EB"/>
<path d="M122.003 396.509C122.003 399.873 119.272 402.604 115.909 402.604C112.545 402.604 109.814 399.873 109.814 396.509C109.814 393.146 112.545 390.415 115.909 390.415C119.272 390.415 122.003 393.146 122.003 396.509Z" fill="#E5E7EB"/>
<path d="M176.909 396.509C176.909 399.873 174.178 402.604 170.815 402.604C167.451 402.604 164.72 399.873 164.72 396.509C164.72 393.146 167.451 390.415 170.815 390.415C174.178 390.415 176.909 393.146 176.909 396.509Z" fill="#E5E7EB"/>
<path d="M231.816 396.509C231.816 399.873 229.085 402.604 225.722 402.604C222.358 402.604 219.627 399.873 219.627 396.509C219.627 393.146 222.358 390.415 225.722 390.415C229.085 390.415 231.816 393.146 231.816 396.509Z" fill="#E5E7EB"/>
<path d="M6.09437 451.416C9.46021 451.416 12.1887 448.688 12.1887 445.322C12.1887 441.956 9.46021 439.227 6.09437 439.227C2.72854 439.227 0 441.956 0 445.322C0 448.688 2.72854 451.416 6.09437 451.416Z" fill="#E5E7EB"/>
<path d="M61.0016 451.416C64.3674 451.416 67.096 448.688 67.096 445.322C67.096 441.956 64.3674 439.227 61.0016 439.227C57.6358 439.227 54.9072 441.956 54.9072 445.322C54.9072 448.688 57.6358 451.416 61.0016 451.416Z" fill="#E5E7EB"/>
<path d="M115.909 451.416C119.275 451.416 122.003 448.688 122.003 445.322C122.003 441.956 119.275 439.227 115.909 439.227C112.543 439.227 109.814 441.956 109.814 445.322C109.814 448.688 112.543 451.416 115.909 451.416Z" fill="#E5E7EB"/>
<path d="M170.815 451.416C174.181 451.416 176.909 448.688 176.909 445.322C176.909 441.956 174.181 439.227 170.815 439.227C167.449 439.227 164.72 441.956 164.72 445.322C164.72 448.688 167.449 451.416 170.815 451.416Z" fill="#E5E7EB"/>
<path d="M231.816 445.322C231.816 448.685 229.085 451.416 225.722 451.416C222.358 451.416 219.627 448.685 219.627 445.322C219.627 441.958 222.358 439.227 225.722 439.227C229.085 439.227 231.816 441.958 231.816 445.322Z" fill="#E5E7EB"/>
<path d="M6.09437 500.229C9.46021 500.229 12.1887 497.5 12.1887 494.134C12.1887 490.768 9.46021 488.04 6.09437 488.04C2.72854 488.04 0 490.768 0 494.134C0 497.5 2.72854 500.229 6.09437 500.229Z" fill="#E5E7EB"/>
<path d="M61.0016 500.229C64.3674 500.229 67.096 497.5 67.096 494.134C67.096 490.768 64.3674 488.04 61.0016 488.04C57.6358 488.04 54.9072 490.768 54.9072 494.134C54.9072 497.5 57.6358 500.229 61.0016 500.229Z" fill="#E5E7EB"/>
<path d="M115.909 500.229C119.275 500.229 122.003 497.5 122.003 494.134C122.003 490.768 119.275 488.04 115.909 488.04C112.543 488.04 109.814 490.768 109.814 494.134C109.814 497.5 112.543 500.229 115.909 500.229Z" fill="#E5E7EB"/>
<path d="M170.815 500.229C174.181 500.229 176.909 497.5 176.909 494.134C176.909 490.768 174.181 488.04 170.815 488.04C167.449 488.04 164.72 490.768 164.72 494.134C164.72 497.5 167.449 500.229 170.815 500.229Z" fill="#E5E7EB"/>
<path d="M231.816 494.134C231.816 497.497 229.085 500.228 225.722 500.228C222.358 500.228 219.627 497.497 219.627 494.134C219.627 490.771 222.358 488.04 225.722 488.04C229.085 488.011 231.816 490.742 231.816 494.134Z" fill="#E5E7EB"/>
<path d="M12.1887 542.918C12.1887 546.282 9.45779 549.012 6.09437 549.012C2.73096 549.012 0 546.282 0 542.918C0 539.555 2.73096 536.824 6.09437 536.824C9.45779 536.824 12.1887 539.555 12.1887 542.918Z" fill="#E5E7EB"/>
<path d="M67.096 542.918C67.096 546.282 64.365 549.012 61.0016 549.012C57.6382 549.012 54.9072 546.282 54.9072 542.918C54.9072 539.555 57.6382 536.824 61.0016 536.824C64.365 536.824 67.096 539.555 67.096 542.918Z" fill="#E5E7EB"/>
<path d="M122.003 542.918C122.003 546.282 119.272 549.012 115.909 549.012C112.545 549.012 109.814 546.282 109.814 542.918C109.814 539.555 112.545 536.824 115.909 536.824C119.272 536.824 122.003 539.555 122.003 542.918Z" fill="#E5E7EB"/>
<path d="M176.909 542.918C176.909 546.282 174.178 549.012 170.815 549.012C167.451 549.012 164.72 546.282 164.72 542.918C164.72 539.555 167.451 536.824 170.815 536.824C174.178 536.824 176.909 539.555 176.909 542.918Z" fill="#E5E7EB"/>
<path d="M231.816 542.918C231.816 546.282 229.085 549.012 225.722 549.012C222.358 549.012 219.627 546.282 219.627 542.918C219.627 539.555 222.358 536.824 225.722 536.824C229.085 536.824 231.816 539.555 231.816 542.918Z" fill="#E5E7EB"/>
</svg>
