<svg width="345" height="345" viewBox="0 0 345 345" fill="none" xmlns="http://www.w3.org/2000/svg">
<path d="M172.5 345C77.3814 345 0 267.619 0 172.5C0 77.3815 77.3814 0 172.5 0C267.618 0 345 77.3815 345 172.5C344.982 267.619 267.6 345 172.5 345ZM172.5 5.79725C80.5799 5.79725 5.79725 80.58 5.79725 172.5C5.79725 264.42 80.5799 339.203 172.5 339.203C264.42 339.203 339.203 264.42 339.203 172.5C339.203 80.58 264.42 5.79725 172.5 5.79725Z" fill="#F3F4F6"/>
<path d="M172.501 326.155C87.7771 326.155 18.8462 257.224 18.8462 172.5C18.8462 87.7767 87.7771 18.8457 172.501 18.8457C257.224 18.8457 326.155 87.7767 326.155 172.5C326.137 257.224 257.206 326.155 172.501 326.155ZM172.501 24.643C90.9756 24.643 24.6434 90.9751 24.6434 172.5C24.6434 254.025 90.9756 320.357 172.501 320.357C254.026 320.357 320.358 254.025 320.358 172.5C320.358 90.9751 254.026 24.643 172.501 24.643Z" fill="#F3F4F6"/>
<path d="M172.501 307.309C98.1722 307.309 37.6919 246.828 37.6919 172.5C37.6919 98.1716 98.1722 37.6912 172.501 37.6912C246.829 37.6912 307.31 98.1716 307.31 172.5C307.291 246.828 246.829 307.309 172.501 307.309ZM172.501 43.4884C101.353 43.4884 43.4891 101.37 43.4891 172.5C43.4891 243.648 101.371 301.512 172.501 301.512C243.631 301.512 301.512 243.63 301.512 172.5C301.512 101.37 243.631 43.4884 172.501 43.4884Z" fill="#F3F4F6"/>
<path d="M172.5 288.463C108.566 288.463 56.5366 236.452 56.5366 172.5C56.5366 108.567 108.548 56.5371 172.5 56.5371C236.433 56.5371 288.463 108.549 288.463 172.5C288.445 236.452 236.433 288.463 172.5 288.463ZM172.5 62.3344C111.747 62.3344 62.3339 111.765 62.3339 172.5C62.3339 233.253 111.765 282.666 172.5 282.666C233.235 282.666 282.666 233.235 282.666 172.5C282.666 111.765 233.235 62.3344 172.5 62.3344Z" fill="#F3F4F6"/>
<path d="M172.5 269.618C118.944 269.618 75.3828 226.057 75.3828 172.5C75.3828 118.944 118.944 75.3826 172.5 75.3826C226.057 75.3826 269.618 118.944 269.618 172.5C269.6 226.057 226.039 269.618 172.5 269.618ZM172.5 81.1798C122.142 81.1798 81.1801 122.142 81.1801 172.5C81.1801 222.858 122.142 263.839 172.5 263.839C222.858 263.839 263.821 222.876 263.821 172.5C263.821 122.142 222.858 81.1798 172.5 81.1798Z" fill="#F3F4F6"/>
<path d="M172.5 250.772C129.339 250.772 94.228 215.662 94.228 172.5C94.228 129.339 129.339 94.2283 172.5 94.2283C215.661 94.2283 250.772 129.339 250.772 172.5C250.772 215.662 215.643 250.772 172.5 250.772ZM172.5 100.026C132.537 100.026 100.007 132.537 100.007 172.518C100.007 212.481 132.519 245.011 172.5 245.011C212.481 245.011 244.993 212.499 244.993 172.518C244.975 132.537 212.463 100.026 172.5 100.026Z" fill="#F3F4F6"/>
</svg>
