<svg width="562" height="550" viewBox="0 0 562 550" fill="none" xmlns="http://www.w3.org/2000/svg">
<path d="M6.09437 12.1888C9.46021 12.1888 12.1887 9.46021 12.1887 6.09437C12.1887 2.72854 9.46021 0 6.09437 0C2.72854 0 0 2.72854 0 6.09437C0 9.46021 2.72854 12.1888 6.09437 12.1888Z" fill="#D4EAF7"/>
<path d="M61.0016 12.1888C64.3674 12.1888 67.096 9.46021 67.096 6.09437C67.096 2.72854 64.3674 0 61.0016 0C57.6358 0 54.9072 2.72854 54.9072 6.09437C54.9072 9.46021 57.6358 12.1888 61.0016 12.1888Z" fill="#D4EAF7"/>
<path d="M115.909 12.1888C119.275 12.1888 122.003 9.46021 122.003 6.09437C122.003 2.72854 119.275 0 115.909 0C112.543 0 109.814 2.72854 109.814 6.09437C109.814 9.46021 112.543 12.1888 115.909 12.1888Z" fill="#D4EAF7"/>
<path d="M170.815 12.1888C174.181 12.1888 176.909 9.46021 176.909 6.09437C176.909 2.72854 174.181 0 170.815 0C167.449 0 164.72 2.72854 164.72 6.09437C164.72 9.46021 167.449 12.1888 170.815 12.1888Z" fill="#D4EAF7"/>
<path d="M231.816 6.09437C231.816 9.45779 229.085 12.1888 225.722 12.1888C222.358 12.1888 219.627 9.45779 219.627 6.09437C219.627 2.73096 222.358 0 225.722 0C229.085 0 231.816 2.73096 231.816 6.09437Z" fill="#D4EAF7"/>
<path d="M280.601 12.1888C283.967 12.1888 286.696 9.46021 286.696 6.09437C286.696 2.72854 283.967 0 280.601 0C277.235 0 274.507 2.72854 274.507 6.09437C274.507 9.46021 277.235 12.1888 280.601 12.1888Z" fill="#D4EAF7"/>
<path d="M335.507 12.1888C338.873 12.1888 341.601 9.46021 341.601 6.09437C341.601 2.72854 338.873 0 335.507 0C332.141 0 329.413 2.72854 329.413 6.09437C329.413 9.46021 332.141 12.1888 335.507 12.1888Z" fill="#D4EAF7"/>
<path d="M390.414 12.1888C393.78 12.1888 396.509 9.46021 396.509 6.09437C396.509 2.72854 393.78 0 390.414 0C387.048 0 384.32 2.72854 384.32 6.09437C384.32 9.46021 387.048 12.1888 390.414 12.1888Z" fill="#D4EAF7"/>
<path d="M445.321 12.1888C448.687 12.1888 451.416 9.46021 451.416 6.09437C451.416 2.72854 448.687 0 445.321 0C441.956 0 439.227 2.72854 439.227 6.09437C439.227 9.46021 441.956 12.1888 445.321 12.1888Z" fill="#D4EAF7"/>
<path d="M500.229 12.1888C503.595 12.1888 506.324 9.46021 506.324 6.09437C506.324 2.72854 503.595 0 500.229 0C496.863 0 494.135 2.72854 494.135 6.09437C494.135 9.46021 496.863 12.1888 500.229 12.1888Z" fill="#D4EAF7"/>
<path d="M555.136 12.1888C558.502 12.1888 561.231 9.46021 561.231 6.09437C561.231 2.72854 558.502 0 555.136 0C551.771 0 549.042 2.72854 549.042 6.09437C549.042 9.46021 551.771 12.1888 555.136 12.1888Z" fill="#D4EAF7"/>
<path d="M6.09437 61.0012C9.46021 61.0012 12.1887 58.2727 12.1887 54.9069C12.1887 51.541 9.46021 48.8125 6.09437 48.8125C2.72854 48.8125 0 51.541 0 54.9069C0 58.2727 2.72854 61.0012 6.09437 61.0012Z" fill="#D4EAF7"/>
<path d="M61.0016 61.0012C64.3674 61.0012 67.096 58.2727 67.096 54.9069C67.096 51.541 64.3674 48.8125 61.0016 48.8125C57.6358 48.8125 54.9072 51.541 54.9072 54.9069C54.9072 58.2727 57.6358 61.0012 61.0016 61.0012Z" fill="#D4EAF7"/>
<path d="M115.909 61.0012C119.275 61.0012 122.003 58.2727 122.003 54.9069C122.003 51.541 119.275 48.8125 115.909 48.8125C112.543 48.8125 109.814 51.541 109.814 54.9069C109.814 58.2727 112.543 61.0012 115.909 61.0012Z" fill="#D4EAF7"/>
<path d="M170.815 61.0012C174.181 61.0012 176.909 58.2727 176.909 54.9069C176.909 51.541 174.181 48.8125 170.815 48.8125C167.449 48.8125 164.72 51.541 164.72 54.9069C164.72 58.2727 167.449 61.0012 170.815 61.0012Z" fill="#D4EAF7"/>
<path d="M231.816 54.9069C231.816 58.2703 229.085 61.0012 225.722 61.0012C222.358 61.0012 219.627 58.2703 219.627 54.9069C219.627 51.5435 222.358 48.8125 225.722 48.8125C229.085 48.8125 231.816 51.5435 231.816 54.9069Z" fill="#D4EAF7"/>
<path d="M280.601 61.0012C283.967 61.0012 286.696 58.2727 286.696 54.9069C286.696 51.541 283.967 48.8125 280.601 48.8125C277.235 48.8125 274.507 51.541 274.507 54.9069C274.507 58.2727 277.235 61.0012 280.601 61.0012Z" fill="#D4EAF7"/>
<path d="M335.507 61.0012C338.873 61.0012 341.601 58.2727 341.601 54.9069C341.601 51.541 338.873 48.8125 335.507 48.8125C332.141 48.8125 329.413 51.541 329.413 54.9069C329.413 58.2727 332.141 61.0012 335.507 61.0012Z" fill="#D4EAF7"/>
<path d="M390.414 61.0012C393.78 61.0012 396.509 58.2727 396.509 54.9069C396.509 51.541 393.78 48.8125 390.414 48.8125C387.048 48.8125 384.32 51.541 384.32 54.9069C384.32 58.2727 387.048 61.0012 390.414 61.0012Z" fill="#D4EAF7"/>
<path d="M445.321 61.0012C448.687 61.0012 451.416 58.2727 451.416 54.9069C451.416 51.541 448.687 48.8125 445.321 48.8125C441.956 48.8125 439.227 51.541 439.227 54.9069C439.227 58.2727 441.956 61.0012 445.321 61.0012Z" fill="#D4EAF7"/>
<path d="M500.229 61.0012C503.595 61.0012 506.324 58.2727 506.324 54.9069C506.324 51.541 503.595 48.8125 500.229 48.8125C496.863 48.8125 494.135 51.541 494.135 54.9069C494.135 58.2727 496.863 61.0012 500.229 61.0012Z" fill="#D4EAF7"/>
<path d="M555.136 61.0012C558.502 61.0012 561.231 58.2727 561.231 54.9069C561.231 51.541 558.502 48.8125 555.136 48.8125C551.771 48.8125 549.042 51.541 549.042 54.9069C549.042 58.2727 551.771 61.0012 555.136 61.0012Z" fill="#D4EAF7"/>
<path d="M6.09437 109.785C9.46021 109.785 12.1887 107.057 12.1887 103.691C12.1887 100.325 9.46021 97.5963 6.09437 97.5963C2.72854 97.5963 0 100.325 0 103.691C0 107.057 2.72854 109.785 6.09437 109.785Z" fill="#D4EAF7"/>
<path d="M61.0016 109.785C64.3674 109.785 67.096 107.057 67.096 103.691C67.096 100.325 64.3674 97.5963 61.0016 97.5963C57.6358 97.5963 54.9072 100.325 54.9072 103.691C54.9072 107.057 57.6358 109.785 61.0016 109.785Z" fill="#D4EAF7"/>
<path d="M115.909 109.785C119.275 109.785 122.003 107.057 122.003 103.691C122.003 100.325 119.275 97.5963 115.909 97.5963C112.543 97.5963 109.814 100.325 109.814 103.691C109.814 107.057 112.543 109.785 115.909 109.785Z" fill="#D4EAF7"/>
<path d="M170.815 109.785C174.181 109.785 176.909 107.057 176.909 103.691C176.909 100.325 174.181 97.5963 170.815 97.5963C167.449 97.5963 164.72 100.325 164.72 103.691C164.72 107.057 167.449 109.785 170.815 109.785Z" fill="#D4EAF7"/>
<path d="M231.816 103.691C231.816 107.054 229.085 109.785 225.722 109.785C222.358 109.785 219.627 107.054 219.627 103.691C219.627 100.327 222.358 97.5963 225.722 97.5963C229.085 97.5963 231.816 100.327 231.816 103.691Z" fill="#D4EAF7"/>
<path d="M280.601 109.785C283.967 109.785 286.696 107.057 286.696 103.691C286.696 100.325 283.967 97.5963 280.601 97.5963C277.235 97.5963 274.507 100.325 274.507 103.691C274.507 107.057 277.235 109.785 280.601 109.785Z" fill="#D4EAF7"/>
<path d="M335.507 109.785C338.873 109.785 341.601 107.057 341.601 103.691C341.601 100.325 338.873 97.5963 335.507 97.5963C332.141 97.5963 329.413 100.325 329.413 103.691C329.413 107.057 332.141 109.785 335.507 109.785Z" fill="#D4EAF7"/>
<path d="M390.414 109.785C393.78 109.785 396.509 107.057 396.509 103.691C396.509 100.325 393.78 97.5963 390.414 97.5963C387.048 97.5963 384.32 100.325 384.32 103.691C384.32 107.057 387.048 109.785 390.414 109.785Z" fill="#D4EAF7"/>
<path d="M445.321 109.785C448.687 109.785 451.416 107.057 451.416 103.691C451.416 100.325 448.687 97.5963 445.321 97.5963C441.956 97.5963 439.227 100.325 439.227 103.691C439.227 107.057 441.956 109.785 445.321 109.785Z" fill="#D4EAF7"/>
<path d="M500.229 109.785C503.595 109.785 506.324 107.057 506.324 103.691C506.324 100.325 503.595 97.5963 500.229 97.5963C496.863 97.5963 494.135 100.325 494.135 103.691C494.135 107.057 496.863 109.785 500.229 109.785Z" fill="#D4EAF7"/>
<path d="M555.136 109.785C558.502 109.785 561.231 107.057 561.231 103.691C561.231 100.325 558.502 97.5963 555.136 97.5963C551.771 97.5963 549.042 100.325 549.042 103.691C549.042 107.057 551.771 109.785 555.136 109.785Z" fill="#D4EAF7"/>
<path d="M12.1887 152.504C12.1887 155.867 9.45779 158.598 6.09437 158.598C2.73096 158.598 0 155.867 0 152.504C0 149.14 2.73096 146.409 6.09437 146.409C9.45779 146.409 12.1887 149.14 12.1887 152.504Z" fill="#D4EAF7"/>
<path d="M67.096 152.504C67.096 155.867 64.365 158.598 61.0016 158.598C57.6382 158.598 54.9072 155.867 54.9072 152.504C54.9072 149.14 57.6382 146.409 61.0016 146.409C64.365 146.409 67.096 149.14 67.096 152.504Z" fill="#D4EAF7"/>
<path d="M122.003 152.504C122.003 155.867 119.272 158.598 115.909 158.598C112.545 158.598 109.814 155.867 109.814 152.504C109.814 149.14 112.545 146.409 115.909 146.409C119.272 146.409 122.003 149.14 122.003 152.504Z" fill="#D4EAF7"/>
<path d="M176.909 152.504C176.909 155.867 174.178 158.598 170.815 158.598C167.451 158.598 164.72 155.867 164.72 152.504C164.72 149.14 167.451 146.409 170.815 146.409C174.178 146.409 176.909 149.14 176.909 152.504Z" fill="#D4EAF7"/>
<path d="M231.816 152.504C231.816 155.867 229.085 158.598 225.722 158.598C222.358 158.598 219.627 155.867 219.627 152.504C219.627 149.14 222.358 146.409 225.722 146.409C229.085 146.409 231.816 149.14 231.816 152.504Z" fill="#D4EAF7"/>
<path d="M286.724 152.504C286.724 155.867 283.993 158.598 280.63 158.598C277.266 158.598 274.535 155.867 274.535 152.504C274.535 149.14 277.266 146.409 280.63 146.409C283.964 146.409 286.724 149.14 286.724 152.504Z" fill="#D4EAF7"/>
<path d="M341.601 152.504C341.601 155.867 338.87 158.598 335.507 158.598C332.144 158.598 329.413 155.867 329.413 152.504C329.413 149.14 332.144 146.409 335.507 146.409C338.87 146.409 341.601 149.14 341.601 152.504Z" fill="#D4EAF7"/>
<path d="M396.509 152.504C396.509 155.867 393.778 158.598 390.414 158.598C387.051 158.598 384.32 155.867 384.32 152.504C384.32 149.14 387.051 146.409 390.414 146.409C393.778 146.409 396.509 149.14 396.509 152.504Z" fill="#D4EAF7"/>
<path d="M451.416 152.504C451.416 155.867 448.685 158.598 445.321 158.598C441.958 158.598 439.227 155.867 439.227 152.504C439.227 149.14 441.958 146.409 445.321 146.409C448.685 146.409 451.416 149.14 451.416 152.504Z" fill="#D4EAF7"/>
<path d="M506.324 152.504C506.324 155.867 503.593 158.598 500.229 158.598C496.866 158.598 494.135 155.867 494.135 152.504C494.135 149.14 496.866 146.409 500.229 146.409C503.593 146.409 506.324 149.14 506.324 152.504Z" fill="#D4EAF7"/>
<path d="M561.231 152.504C561.231 155.867 558.5 158.598 555.136 158.598C551.773 158.598 549.042 155.867 549.042 152.504C549.042 149.14 551.773 146.409 555.136 146.409C558.5 146.409 561.231 149.14 561.231 152.504Z" fill="#D4EAF7"/>
<path d="M12.1887 201.316C12.1887 204.679 9.45779 207.41 6.09437 207.41C2.73096 207.41 0 204.679 0 201.316C0 197.953 2.73096 195.222 6.09437 195.222C9.45779 195.193 12.1887 197.924 12.1887 201.316Z" fill="#D4EAF7"/>
<path d="M67.096 201.316C67.096 204.679 64.365 207.41 61.0016 207.41C57.6382 207.41 54.9072 204.679 54.9072 201.316C54.9072 197.953 57.6382 195.222 61.0016 195.222C64.365 195.193 67.096 197.924 67.096 201.316Z" fill="#D4EAF7"/>
<path d="M122.003 201.316C122.003 204.679 119.272 207.41 115.909 207.41C112.545 207.41 109.814 204.679 109.814 201.316C109.814 197.953 112.545 195.222 115.909 195.222C119.272 195.193 122.003 197.924 122.003 201.316Z" fill="#D4EAF7"/>
<path d="M176.909 201.316C176.909 204.679 174.178 207.41 170.815 207.41C167.451 207.41 164.72 204.679 164.72 201.316C164.72 197.953 167.451 195.222 170.815 195.222C174.178 195.193 176.909 197.924 176.909 201.316Z" fill="#D4EAF7"/>
<path d="M231.816 201.316C231.816 204.679 229.085 207.41 225.722 207.41C222.358 207.41 219.627 204.679 219.627 201.316C219.627 197.953 222.358 195.222 225.722 195.222C229.085 195.193 231.816 197.924 231.816 201.316Z" fill="#D4EAF7"/>
<path d="M286.724 201.316C286.724 204.679 283.993 207.41 280.63 207.41C277.266 207.41 274.535 204.679 274.535 201.316C274.535 197.953 277.266 195.222 280.63 195.222C283.964 195.193 286.724 197.924 286.724 201.316Z" fill="#D4EAF7"/>
<path d="M341.601 201.316C341.601 204.679 338.87 207.41 335.507 207.41C332.144 207.41 329.413 204.679 329.413 201.316C329.413 197.953 332.144 195.222 335.507 195.222C338.87 195.193 341.601 197.924 341.601 201.316Z" fill="#D4EAF7"/>
<path d="M396.509 201.316C396.509 204.679 393.778 207.41 390.414 207.41C387.051 207.41 384.32 204.679 384.32 201.316C384.32 197.952 387.051 195.221 390.414 195.221C393.778 195.221 396.509 197.924 396.509 201.316Z" fill="#D4EAF7"/>
<path d="M451.416 201.316C451.416 204.679 448.685 207.41 445.321 207.41C441.958 207.41 439.227 204.679 439.227 201.316C439.227 197.953 441.958 195.222 445.321 195.222C448.685 195.193 451.416 197.924 451.416 201.316Z" fill="#D4EAF7"/>
<path d="M506.324 201.316C506.324 204.679 503.593 207.41 500.229 207.41C496.866 207.41 494.135 204.679 494.135 201.316C494.135 197.953 496.866 195.222 500.229 195.222C503.593 195.193 506.324 197.924 506.324 201.316Z" fill="#D4EAF7"/>
<path d="M561.231 201.316C561.231 204.679 558.5 207.41 555.136 207.41C551.773 207.41 549.042 204.679 549.042 201.316C549.042 197.953 551.773 195.222 555.136 195.222C558.5 195.193 561.231 197.924 561.231 201.316Z" fill="#D4EAF7"/>
<path d="M6.09437 256.194C9.46021 256.194 12.1887 253.466 12.1887 250.1C12.1887 246.734 9.46021 244.005 6.09437 244.005C2.72854 244.005 0 246.734 0 250.1C0 253.466 2.72854 256.194 6.09437 256.194Z" fill="#D4EAF7"/>
<path d="M61.0016 256.194C64.3674 256.194 67.096 253.466 67.096 250.1C67.096 246.734 64.3674 244.005 61.0016 244.005C57.6358 244.005 54.9072 246.734 54.9072 250.1C54.9072 253.466 57.6358 256.194 61.0016 256.194Z" fill="#D4EAF7"/>
<path d="M115.909 256.194C119.275 256.194 122.003 253.466 122.003 250.1C122.003 246.734 119.275 244.005 115.909 244.005C112.543 244.005 109.814 246.734 109.814 250.1C109.814 253.466 112.543 256.194 115.909 256.194Z" fill="#D4EAF7"/>
<path d="M170.815 256.194C174.181 256.194 176.909 253.466 176.909 250.1C176.909 246.734 174.181 244.005 170.815 244.005C167.449 244.005 164.72 246.734 164.72 250.1C164.72 253.466 167.449 256.194 170.815 256.194Z" fill="#D4EAF7"/>
<path d="M231.816 250.1C231.816 253.463 229.085 256.194 225.722 256.194C222.358 256.194 219.627 253.463 219.627 250.1C219.627 246.736 222.358 244.005 225.722 244.005C229.085 244.005 231.816 246.736 231.816 250.1Z" fill="#D4EAF7"/>
<path d="M280.601 256.194C283.967 256.194 286.696 253.466 286.696 250.1C286.696 246.734 283.967 244.005 280.601 244.005C277.235 244.005 274.507 246.734 274.507 250.1C274.507 253.466 277.235 256.194 280.601 256.194Z" fill="#D4EAF7"/>
<path d="M335.507 256.194C338.873 256.194 341.601 253.466 341.601 250.1C341.601 246.734 338.873 244.005 335.507 244.005C332.141 244.005 329.413 246.734 329.413 250.1C329.413 253.466 332.141 256.194 335.507 256.194Z" fill="#D4EAF7"/>
<path d="M390.414 256.194C393.78 256.194 396.509 253.466 396.509 250.1C396.509 246.734 393.78 244.005 390.414 244.005C387.048 244.005 384.32 246.734 384.32 250.1C384.32 253.466 387.048 256.194 390.414 256.194Z" fill="#D4EAF7"/>
<path d="M445.321 256.194C448.687 256.194 451.416 253.466 451.416 250.1C451.416 246.734 448.687 244.005 445.321 244.005C441.956 244.005 439.227 246.734 439.227 250.1C439.227 253.466 441.956 256.194 445.321 256.194Z" fill="#D4EAF7"/>
<path d="M500.229 256.194C503.595 256.194 506.324 253.466 506.324 250.1C506.324 246.734 503.595 244.005 500.229 244.005C496.863 244.005 494.135 246.734 494.135 250.1C494.135 253.466 496.863 256.194 500.229 256.194Z" fill="#D4EAF7"/>
<path d="M555.136 256.194C558.502 256.194 561.231 253.466 561.231 250.1C561.231 246.734 558.502 244.005 555.136 244.005C551.771 244.005 549.042 246.734 549.042 250.1C549.042 253.466 551.771 256.194 555.136 256.194Z" fill="#D4EAF7"/>
<path d="M6.09437 305.007C9.46021 305.007 12.1887 302.278 12.1887 298.912C12.1887 295.547 9.46021 292.818 6.09437 292.818C2.72854 292.818 0 295.547 0 298.912C0 302.278 2.72854 305.007 6.09437 305.007Z" fill="#D4EAF7"/>
<path d="M61.0016 305.007C64.3674 305.007 67.096 302.278 67.096 298.912C67.096 295.547 64.3674 292.818 61.0016 292.818C57.6358 292.818 54.9072 295.547 54.9072 298.912C54.9072 302.278 57.6358 305.007 61.0016 305.007Z" fill="#D4EAF7"/>
<path d="M115.909 305.007C119.275 305.007 122.003 302.278 122.003 298.912C122.003 295.547 119.275 292.818 115.909 292.818C112.543 292.818 109.814 295.547 109.814 298.912C109.814 302.278 112.543 305.007 115.909 305.007Z" fill="#D4EAF7"/>
<path d="M170.815 305.007C174.181 305.007 176.909 302.278 176.909 298.912C176.909 295.547 174.181 292.818 170.815 292.818C167.449 292.818 164.72 295.547 164.72 298.912C164.72 302.278 167.449 305.007 170.815 305.007Z" fill="#D4EAF7"/>
<path d="M231.816 298.912C231.816 302.276 229.085 305.007 225.722 305.007C222.358 305.007 219.627 302.276 219.627 298.912C219.627 295.549 222.358 292.818 225.722 292.818C229.085 292.818 231.816 295.549 231.816 298.912Z" fill="#D4EAF7"/>
<path d="M280.601 305.007C283.967 305.007 286.696 302.278 286.696 298.912C286.696 295.547 283.967 292.818 280.601 292.818C277.235 292.818 274.507 295.547 274.507 298.912C274.507 302.278 277.235 305.007 280.601 305.007Z" fill="#D4EAF7"/>
<path d="M335.507 305.007C338.873 305.007 341.601 302.278 341.601 298.912C341.601 295.547 338.873 292.818 335.507 292.818C332.141 292.818 329.413 295.547 329.413 298.912C329.413 302.278 332.141 305.007 335.507 305.007Z" fill="#D4EAF7"/>
<path d="M390.414 305.007C393.78 305.007 396.509 302.278 396.509 298.912C396.509 295.547 393.78 292.818 390.414 292.818C387.048 292.818 384.32 295.547 384.32 298.912C384.32 302.278 387.048 305.007 390.414 305.007Z" fill="#D4EAF7"/>
<path d="M445.321 305.007C448.687 305.007 451.416 302.278 451.416 298.912C451.416 295.547 448.687 292.818 445.321 292.818C441.956 292.818 439.227 295.547 439.227 298.912C439.227 302.278 441.956 305.007 445.321 305.007Z" fill="#D4EAF7"/>
<path d="M500.229 305.007C503.595 305.007 506.324 302.278 506.324 298.912C506.324 295.547 503.595 292.818 500.229 292.818C496.863 292.818 494.135 295.547 494.135 298.912C494.135 302.278 496.863 305.007 500.229 305.007Z" fill="#D4EAF7"/>
<path d="M555.136 305.007C558.502 305.007 561.231 302.278 561.231 298.912C561.231 295.547 558.502 292.818 555.136 292.818C551.771 292.818 549.042 295.547 549.042 298.912C549.042 302.278 551.771 305.007 555.136 305.007Z" fill="#D4EAF7"/>
<path d="M12.1887 347.725C12.1887 351.089 9.45779 353.82 6.09437 353.82C2.73096 353.82 0 351.089 0 347.725C0 344.362 2.73096 341.631 6.09437 341.631C9.45779 341.602 12.1887 344.333 12.1887 347.725Z" fill="#D4EAF7"/>
<path d="M67.096 347.725C67.096 351.089 64.365 353.82 61.0016 353.82C57.6382 353.82 54.9072 351.089 54.9072 347.725C54.9072 344.362 57.6382 341.631 61.0016 341.631C64.365 341.602 67.096 344.333 67.096 347.725Z" fill="#D4EAF7"/>
<path d="M122.003 347.725C122.003 351.089 119.272 353.82 115.909 353.82C112.545 353.82 109.814 351.089 109.814 347.725C109.814 344.362 112.545 341.631 115.909 341.631C119.272 341.602 122.003 344.333 122.003 347.725Z" fill="#D4EAF7"/>
<path d="M176.909 347.725C176.909 351.089 174.178 353.82 170.815 353.82C167.451 353.82 164.72 351.089 164.72 347.725C164.72 344.362 167.451 341.631 170.815 341.631C174.178 341.602 176.909 344.333 176.909 347.725Z" fill="#D4EAF7"/>
<path d="M231.816 347.725C231.816 351.089 229.085 353.82 225.722 353.82C222.358 353.82 219.627 351.089 219.627 347.725C219.627 344.362 222.358 341.631 225.722 341.631C229.085 341.602 231.816 344.333 231.816 347.725Z" fill="#D4EAF7"/>
<path d="M286.724 347.725C286.724 351.089 283.993 353.82 280.63 353.82C277.266 353.82 274.535 351.089 274.535 347.725C274.535 344.362 277.266 341.631 280.63 341.631C283.964 341.602 286.724 344.333 286.724 347.725Z" fill="#D4EAF7"/>
<path d="M341.601 347.725C341.601 351.089 338.87 353.82 335.507 353.82C332.144 353.82 329.413 351.089 329.413 347.725C329.413 344.362 332.144 341.631 335.507 341.631C338.87 341.602 341.601 344.333 341.601 347.725Z" fill="#D4EAF7"/>
<path d="M396.509 347.725C396.509 351.089 393.778 353.82 390.414 353.82C387.051 353.82 384.32 351.089 384.32 347.725C384.32 344.362 387.051 341.631 390.414 341.631C393.778 341.631 396.509 344.333 396.509 347.725Z" fill="#D4EAF7"/>
<path d="M451.416 347.725C451.416 351.089 448.685 353.82 445.321 353.82C441.958 353.82 439.227 351.089 439.227 347.725C439.227 344.362 441.958 341.631 445.321 341.631C448.685 341.602 451.416 344.333 451.416 347.725Z" fill="#D4EAF7"/>
<path d="M506.324 347.725C506.324 351.089 503.593 353.82 500.229 353.82C496.866 353.82 494.135 351.089 494.135 347.725C494.135 344.362 496.866 341.631 500.229 341.631C503.593 341.602 506.324 344.333 506.324 347.725Z" fill="#D4EAF7"/>
<path d="M561.231 347.725C561.231 351.089 558.5 353.82 555.136 353.82C551.773 353.82 549.042 351.089 549.042 347.725C549.042 344.362 551.773 341.631 555.136 341.631C558.5 341.602 561.231 344.333 561.231 347.725Z" fill="#D4EAF7"/>
<path d="M12.1887 396.509C12.1887 399.873 9.45779 402.604 6.09437 402.604C2.73096 402.604 0 399.873 0 396.509C0 393.146 2.73096 390.415 6.09437 390.415C9.45779 390.415 12.1887 393.146 12.1887 396.509Z" fill="#D4EAF7"/>
<path d="M67.096 396.509C67.096 399.873 64.365 402.604 61.0016 402.604C57.6382 402.604 54.9072 399.873 54.9072 396.509C54.9072 393.146 57.6382 390.415 61.0016 390.415C64.365 390.415 67.096 393.146 67.096 396.509Z" fill="#D4EAF7"/>
<path d="M122.003 396.509C122.003 399.873 119.272 402.604 115.909 402.604C112.545 402.604 109.814 399.873 109.814 396.509C109.814 393.146 112.545 390.415 115.909 390.415C119.272 390.415 122.003 393.146 122.003 396.509Z" fill="#D4EAF7"/>
<path d="M176.909 396.509C176.909 399.873 174.178 402.604 170.815 402.604C167.451 402.604 164.72 399.873 164.72 396.509C164.72 393.146 167.451 390.415 170.815 390.415C174.178 390.415 176.909 393.146 176.909 396.509Z" fill="#D4EAF7"/>
<path d="M231.816 396.509C231.816 399.873 229.085 402.604 225.722 402.604C222.358 402.604 219.627 399.873 219.627 396.509C219.627 393.146 222.358 390.415 225.722 390.415C229.085 390.415 231.816 393.146 231.816 396.509Z" fill="#D4EAF7"/>
<path d="M286.724 396.509C286.724 399.873 283.993 402.604 280.63 402.604C277.266 402.604 274.535 399.873 274.535 396.509C274.535 393.146 277.266 390.415 280.63 390.415C283.964 390.415 286.724 393.146 286.724 396.509Z" fill="#D4EAF7"/>
<path d="M341.601 396.509C341.601 399.873 338.87 402.604 335.507 402.604C332.144 402.604 329.413 399.873 329.413 396.509C329.413 393.146 332.144 390.415 335.507 390.415C338.87 390.415 341.601 393.146 341.601 396.509Z" fill="#D4EAF7"/>
<path d="M396.509 396.509C396.509 399.873 393.778 402.604 390.414 402.604C387.051 402.604 384.32 399.873 384.32 396.509C384.32 393.146 387.051 390.415 390.414 390.415C393.778 390.415 396.509 393.146 396.509 396.509Z" fill="#D4EAF7"/>
<path d="M451.416 396.509C451.416 399.873 448.685 402.604 445.321 402.604C441.958 402.604 439.227 399.873 439.227 396.509C439.227 393.146 441.958 390.415 445.321 390.415C448.685 390.415 451.416 393.146 451.416 396.509Z" fill="#D4EAF7"/>
<path d="M506.324 396.509C506.324 399.873 503.593 402.604 500.229 402.604C496.866 402.604 494.135 399.873 494.135 396.509C494.135 393.146 496.866 390.415 500.229 390.415C503.593 390.415 506.324 393.146 506.324 396.509Z" fill="#D4EAF7"/>
<path d="M561.231 396.509C561.231 399.873 558.5 402.604 555.136 402.604C551.773 402.604 549.042 399.873 549.042 396.509C549.042 393.146 551.773 390.415 555.136 390.415C558.5 390.415 561.231 393.146 561.231 396.509Z" fill="#D4EAF7"/>
<path d="M6.09437 451.416C9.46021 451.416 12.1887 448.688 12.1887 445.322C12.1887 441.956 9.46021 439.227 6.09437 439.227C2.72854 439.227 0 441.956 0 445.322C0 448.688 2.72854 451.416 6.09437 451.416Z" fill="#D4EAF7"/>
<path d="M61.0016 451.416C64.3674 451.416 67.096 448.688 67.096 445.322C67.096 441.956 64.3674 439.227 61.0016 439.227C57.6358 439.227 54.9072 441.956 54.9072 445.322C54.9072 448.688 57.6358 451.416 61.0016 451.416Z" fill="#D4EAF7"/>
<path d="M115.909 451.416C119.275 451.416 122.003 448.688 122.003 445.322C122.003 441.956 119.275 439.227 115.909 439.227C112.543 439.227 109.814 441.956 109.814 445.322C109.814 448.688 112.543 451.416 115.909 451.416Z" fill="#D4EAF7"/>
<path d="M170.815 451.416C174.181 451.416 176.909 448.688 176.909 445.322C176.909 441.956 174.181 439.227 170.815 439.227C167.449 439.227 164.72 441.956 164.72 445.322C164.72 448.688 167.449 451.416 170.815 451.416Z" fill="#D4EAF7"/>
<path d="M231.816 445.322C231.816 448.685 229.085 451.416 225.722 451.416C222.358 451.416 219.627 448.685 219.627 445.322C219.627 441.958 222.358 439.227 225.722 439.227C229.085 439.227 231.816 441.958 231.816 445.322Z" fill="#D4EAF7"/>
<path d="M280.601 451.416C283.967 451.416 286.696 448.688 286.696 445.322C286.696 441.956 283.967 439.227 280.601 439.227C277.235 439.227 274.507 441.956 274.507 445.322C274.507 448.688 277.235 451.416 280.601 451.416Z" fill="#D4EAF7"/>
<path d="M335.507 451.416C338.873 451.416 341.601 448.688 341.601 445.322C341.601 441.956 338.873 439.227 335.507 439.227C332.141 439.227 329.413 441.956 329.413 445.322C329.413 448.688 332.141 451.416 335.507 451.416Z" fill="#D4EAF7"/>
<path d="M390.414 451.416C393.78 451.416 396.509 448.688 396.509 445.322C396.509 441.956 393.78 439.227 390.414 439.227C387.048 439.227 384.32 441.956 384.32 445.322C384.32 448.688 387.048 451.416 390.414 451.416Z" fill="#D4EAF7"/>
<path d="M445.321 451.416C448.687 451.416 451.416 448.688 451.416 445.322C451.416 441.956 448.687 439.227 445.321 439.227C441.956 439.227 439.227 441.956 439.227 445.322C439.227 448.688 441.956 451.416 445.321 451.416Z" fill="#D4EAF7"/>
<path d="M500.229 451.416C503.595 451.416 506.324 448.688 506.324 445.322C506.324 441.956 503.595 439.227 500.229 439.227C496.863 439.227 494.135 441.956 494.135 445.322C494.135 448.688 496.863 451.416 500.229 451.416Z" fill="#D4EAF7"/>
<path d="M555.136 451.416C558.502 451.416 561.231 448.688 561.231 445.322C561.231 441.956 558.502 439.227 555.136 439.227C551.771 439.227 549.042 441.956 549.042 445.322C549.042 448.688 551.771 451.416 555.136 451.416Z" fill="#D4EAF7"/>
<path d="M6.09437 500.229C9.46021 500.229 12.1887 497.5 12.1887 494.134C12.1887 490.768 9.46021 488.04 6.09437 488.04C2.72854 488.04 0 490.768 0 494.134C0 497.5 2.72854 500.229 6.09437 500.229Z" fill="#D4EAF7"/>
<path d="M61.0016 500.229C64.3674 500.229 67.096 497.5 67.096 494.134C67.096 490.768 64.3674 488.04 61.0016 488.04C57.6358 488.04 54.9072 490.768 54.9072 494.134C54.9072 497.5 57.6358 500.229 61.0016 500.229Z" fill="#D4EAF7"/>
<path d="M115.909 500.229C119.275 500.229 122.003 497.5 122.003 494.134C122.003 490.768 119.275 488.04 115.909 488.04C112.543 488.04 109.814 490.768 109.814 494.134C109.814 497.5 112.543 500.229 115.909 500.229Z" fill="#D4EAF7"/>
<path d="M170.815 500.229C174.181 500.229 176.909 497.5 176.909 494.134C176.909 490.768 174.181 488.04 170.815 488.04C167.449 488.04 164.72 490.768 164.72 494.134C164.72 497.5 167.449 500.229 170.815 500.229Z" fill="#D4EAF7"/>
<path d="M231.816 494.134C231.816 497.497 229.085 500.228 225.722 500.228C222.358 500.228 219.627 497.497 219.627 494.134C219.627 490.771 222.358 488.04 225.722 488.04C229.085 488.011 231.816 490.742 231.816 494.134Z" fill="#D4EAF7"/>
<path d="M280.601 500.229C283.967 500.229 286.696 497.5 286.696 494.134C286.696 490.768 283.967 488.04 280.601 488.04C277.235 488.04 274.507 490.768 274.507 494.134C274.507 497.5 277.235 500.229 280.601 500.229Z" fill="#D4EAF7"/>
<path d="M335.507 500.229C338.873 500.229 341.601 497.5 341.601 494.134C341.601 490.768 338.873 488.04 335.507 488.04C332.141 488.04 329.413 490.768 329.413 494.134C329.413 497.5 332.141 500.229 335.507 500.229Z" fill="#D4EAF7"/>
<path d="M390.414 500.229C393.78 500.229 396.509 497.5 396.509 494.134C396.509 490.768 393.78 488.04 390.414 488.04C387.048 488.04 384.32 490.768 384.32 494.134C384.32 497.5 387.048 500.229 390.414 500.229Z" fill="#D4EAF7"/>
<path d="M445.321 500.229C448.687 500.229 451.416 497.5 451.416 494.134C451.416 490.768 448.687 488.04 445.321 488.04C441.956 488.04 439.227 490.768 439.227 494.134C439.227 497.5 441.956 500.229 445.321 500.229Z" fill="#D4EAF7"/>
<path d="M500.229 500.229C503.595 500.229 506.324 497.5 506.324 494.134C506.324 490.768 503.595 488.04 500.229 488.04C496.863 488.04 494.135 490.768 494.135 494.134C494.135 497.5 496.863 500.229 500.229 500.229Z" fill="#D4EAF7"/>
<path d="M555.136 500.229C558.502 500.229 561.231 497.5 561.231 494.134C561.231 490.768 558.502 488.04 555.136 488.04C551.771 488.04 549.042 490.768 549.042 494.134C549.042 497.5 551.771 500.229 555.136 500.229Z" fill="#D4EAF7"/>
<path d="M12.1887 542.918C12.1887 546.281 9.45779 549.012 6.09437 549.012C2.73096 549.012 0 546.281 0 542.918C0 539.555 2.73096 536.824 6.09437 536.824C9.45779 536.824 12.1887 539.555 12.1887 542.918Z" fill="#D4EAF7"/>
<path d="M67.096 542.918C67.096 546.281 64.365 549.012 61.0016 549.012C57.6382 549.012 54.9072 546.281 54.9072 542.918C54.9072 539.554 57.6382 536.823 61.0016 536.823C64.365 536.823 67.096 539.554 67.096 542.918Z" fill="#D4EAF7"/>
<path d="M122.003 542.918C122.003 546.281 119.272 549.012 115.909 549.012C112.545 549.012 109.814 546.281 109.814 542.918C109.814 539.554 112.545 536.823 115.909 536.823C119.272 536.823 122.003 539.554 122.003 542.918Z" fill="#D4EAF7"/>
<path d="M176.909 542.918C176.909 546.281 174.178 549.012 170.815 549.012C167.451 549.012 164.72 546.281 164.72 542.918C164.72 539.554 167.451 536.823 170.815 536.823C174.178 536.823 176.909 539.554 176.909 542.918Z" fill="#D4EAF7"/>
<path d="M231.816 542.918C231.816 546.281 229.085 549.012 225.722 549.012C222.358 549.012 219.627 546.281 219.627 542.918C219.627 539.554 222.358 536.823 225.722 536.823C229.085 536.823 231.816 539.554 231.816 542.918Z" fill="#D4EAF7"/>
<path d="M286.724 542.918C286.724 546.281 283.993 549.012 280.63 549.012C277.266 549.012 274.535 546.281 274.535 542.918C274.535 539.554 277.266 536.823 280.63 536.823C283.964 536.823 286.724 539.554 286.724 542.918Z" fill="#D4EAF7"/>
<path d="M341.601 542.918C341.601 546.281 338.87 549.012 335.507 549.012C332.144 549.012 329.413 546.281 329.413 542.918C329.413 539.554 332.144 536.823 335.507 536.823C338.87 536.823 341.601 539.554 341.601 542.918Z" fill="#D4EAF7"/>
<path d="M396.509 542.918C396.509 546.281 393.778 549.012 390.414 549.012C387.051 549.012 384.32 546.281 384.32 542.918C384.32 539.554 387.051 536.823 390.414 536.823C393.778 536.823 396.509 539.554 396.509 542.918Z" fill="#D4EAF7"/>
<path d="M451.416 542.918C451.416 546.281 448.685 549.012 445.321 549.012C441.958 549.012 439.227 546.281 439.227 542.918C439.227 539.554 441.958 536.823 445.321 536.823C448.685 536.823 451.416 539.554 451.416 542.918Z" fill="#D4EAF7"/>
<path d="M506.324 542.918C506.324 546.281 503.593 549.012 500.229 549.012C496.866 549.012 494.135 546.281 494.135 542.918C494.135 539.554 496.866 536.823 500.229 536.823C503.593 536.823 506.324 539.554 506.324 542.918Z" fill="#D4EAF7"/>
<path d="M561.231 542.918C561.231 546.281 558.5 549.012 555.136 549.012C551.773 549.012 549.042 546.281 549.042 542.918C549.042 539.554 551.773 536.823 555.136 536.823C558.5 536.823 561.231 539.554 561.231 542.918Z" fill="#D4EAF7"/>
</svg>
