<svg width="30" height="27" viewBox="0 0 30 27" fill="none" xmlns="http://www.w3.org/2000/svg">
<path d="M29 24.0013H27V10.0013C27 9.47087 26.7893 8.96216 26.4142 8.58709C26.0391 8.21201 25.5304 8.0013 25 8.0013H17V2.0013C17.0002 1.63913 16.9021 1.28369 16.7161 0.972925C16.5301 0.662158 16.2633 0.407727 15.944 0.236788C15.6247 0.0658484 15.265 -0.0151826 14.9032 0.00234359C14.5415 0.0198697 14.1913 0.135295 13.89 0.3363L3.89 7.0013C3.61567 7.18433 3.39086 7.43235 3.23558 7.72328C3.0803 8.01421 2.99937 8.33902 3 8.6688V24.0013H1C0.734784 24.0013 0.48043 24.1067 0.292893 24.2942C0.105357 24.4817 0 24.7361 0 25.0013C0 25.2665 0.105357 25.5209 0.292893 25.7084C0.48043 25.8959 0.734784 26.0013 1 26.0013H29C29.2652 26.0013 29.5196 25.8959 29.7071 25.7084C29.8946 25.5209 30 25.2665 30 25.0013C30 24.7361 29.8946 24.4817 29.7071 24.2942C29.5196 24.1067 29.2652 24.0013 29 24.0013ZM25 10.0013V24.0013H17V10.0013H25ZM5 8.6688L15 2.0013V24.0013H5V8.6688ZM13 12.0013V14.0013C13 14.2665 12.8946 14.5209 12.7071 14.7084C12.5196 14.8959 12.2652 15.0013 12 15.0013C11.7348 15.0013 11.4804 14.8959 11.2929 14.7084C11.1054 14.5209 11 14.2665 11 14.0013V12.0013C11 11.7361 11.1054 11.4817 11.2929 11.2942C11.4804 11.1067 11.7348 11.0013 12 11.0013C12.2652 11.0013 12.5196 11.1067 12.7071 11.2942C12.8946 11.4817 13 11.7361 13 12.0013ZM9 12.0013V14.0013C9 14.2665 8.89464 14.5209 8.70711 14.7084C8.51957 14.8959 8.26522 15.0013 8 15.0013C7.73478 15.0013 7.48043 14.8959 7.29289 14.7084C7.10536 14.5209 7 14.2665 7 14.0013V12.0013C7 11.7361 7.10536 11.4817 7.29289 11.2942C7.48043 11.1067 7.73478 11.0013 8 11.0013C8.26522 11.0013 8.51957 11.1067 8.70711 11.2942C8.89464 11.4817 9 11.7361 9 12.0013ZM9 19.0013V21.0013C9 21.2665 8.89464 21.5209 8.70711 21.7084C8.51957 21.8959 8.26522 22.0013 8 22.0013C7.73478 22.0013 7.48043 21.8959 7.29289 21.7084C7.10536 21.5209 7 21.2665 7 21.0013V19.0013C7 18.7361 7.10536 18.4817 7.29289 18.2942C7.48043 18.1067 7.73478 18.0013 8 18.0013C8.26522 18.0013 8.51957 18.1067 8.70711 18.2942C8.89464 18.4817 9 18.7361 9 19.0013ZM13 19.0013V21.0013C13 21.2665 12.8946 21.5209 12.7071 21.7084C12.5196 21.8959 12.2652 22.0013 12 22.0013C11.7348 22.0013 11.4804 21.8959 11.2929 21.7084C11.1054 21.5209 11 21.2665 11 21.0013V19.0013C11 18.7361 11.1054 18.4817 11.2929 18.2942C11.4804 18.1067 11.7348 18.0013 12 18.0013C12.2652 18.0013 12.5196 18.1067 12.7071 18.2942C12.8946 18.4817 13 18.7361 13 19.0013Z" fill="#030712"/>
</svg>
