<svg width="677" height="724" viewBox="0 0 677 724" fill="none" xmlns="http://www.w3.org/2000/svg">
<path d="M341.544 418.651C383.086 475.03 446.85 513.434 526.445 533.549C560.026 542.038 595.048 547.722 625.249 564.442C655.45 581.162 680.406 612.553 676.619 646.011C671.964 687.091 627.337 712.724 585.369 719.257C497.093 732.987 397.697 719.146 336.556 648.023C288.955 592.641 271.259 514.947 218.301 464.658C167.024 415.975 89.2585 399.661 44.7604 344.722C21.3199 315.767 9.75662 278.858 4.03042 242.06C-4.07862 189.944 -0.975328 134.636 22.7976 87.5398C46.5706 40.4623 93.4885 3.22105 146.188 0.249869C284.356 -7.51949 283.34 167.799 288.235 260.57C291.523 323.389 310.216 376.132 341.544 418.651Z" fill="#F3F4F6"/>
</svg>
