<svg width="956" height="670" viewBox="0 0 956 670" fill="none" xmlns="http://www.w3.org/2000/svg">
<path d="M104.91 559.457C108.054 561.642 111.352 563.924 114.4 566.032C116.202 567.259 117.851 568.371 119.154 569.234C119.749 569.79 120.688 570.423 121.359 570.94C120.995 570.634 121.187 570.653 121.474 570.864C123.583 572.359 121.666 570.883 123.832 572.34C125.04 573.107 127.781 575.043 130.542 577.018C134.434 579.817 138.383 582.654 140.262 583.996C140.396 583.555 140.454 583.287 140.53 583.076C140.799 581.695 141.163 580.315 141.508 578.954C141.681 578.264 141.872 577.593 142.045 576.922C142.102 576.653 142.179 576.385 142.237 576.136C142.275 575.944 142.313 575.771 142.352 575.599V575.752C142.677 574.276 145.036 566.071 145.419 564.365L145.342 564.595C145.63 563.08 145.764 563.348 146.128 562.198C145.898 562.294 146.109 561.01 146.224 560.511L146.263 560.549C146.416 559.821 146.684 558.115 146.972 556.907L147.068 556.984C147.221 555.948 147.758 554.07 147.95 553.36C148.429 551.731 149.292 549.238 149.733 546.995L150.423 545.653L150.442 545.442L151.132 540.477C151.266 539.346 146.55 541.973 146.493 541.838C146.838 541.704 147.183 541.551 147.279 541.551C147.164 541.532 146.493 541.781 146.148 541.972V542.145C145.342 542.548 145.917 542.145 145.131 542.49C145.036 542.394 145.764 542.049 146.397 541.762C145.802 541.992 145.189 542.145 145.016 542.375C144.441 542.567 145.016 542.203 144.345 542.433C143.885 542.663 143.329 543.046 142.754 543.199V543.18C141.393 543.602 140.818 544.216 139.572 544.599L139.687 544.503C139.246 544.618 138.441 545.059 137.635 545.308C137.866 545.232 138.096 545.251 137.635 545.462C136.734 545.749 136.159 546.094 135.469 546.267L134.894 546.65C131.827 547.916 119.825 553.188 116.758 554.511L116.873 554.434C113.882 555.622 109.569 557.463 104.91 559.457Z" fill="#E5E7EB"/>
<path d="M95.7267 521.037C98.8516 518.814 102.111 516.494 105.14 514.347C106.904 513.081 108.514 511.893 109.76 510.953C110.489 510.589 111.39 509.918 112.099 509.458C111.677 509.688 111.773 509.516 112.061 509.305C114.189 507.828 112.156 509.132 114.265 507.598C115.396 506.736 118.138 504.799 120.937 502.882C124.886 500.179 128.893 497.418 130.791 496.115C130.427 495.846 130.197 495.693 130.005 495.559C128.797 494.83 127.628 494.044 126.458 493.22C125.883 492.817 125.289 492.415 124.733 492.031C124.503 491.878 124.273 491.725 124.062 491.571C123.908 491.475 123.755 491.379 123.602 491.284L123.736 491.322C122.451 490.517 115.531 485.513 114.054 484.555L114.227 484.708C112.904 483.922 113.192 483.884 112.233 483.155C112.252 483.404 111.102 482.752 110.68 482.484L110.719 482.465C110.086 482.062 108.571 481.238 107.536 480.548L107.632 480.471C106.712 479.973 105.14 478.822 104.507 478.42C103.127 477.404 101.075 475.755 99.12 474.566L98.0847 473.454L97.893 473.359L93.4453 471.02C92.4292 470.502 93.2919 475.832 93.1577 475.851C93.1386 475.487 93.1194 475.122 93.1385 475.007C93.081 475.103 93.081 475.832 93.1385 476.215L93.2919 476.273C93.3878 477.154 93.2152 476.483 93.2728 477.346C93.1386 477.404 93.081 476.598 93.0235 475.908C93.0427 476.541 92.9852 477.174 93.1385 477.423C93.1194 478.017 92.9852 477.365 92.966 478.075C93.0235 478.573 93.1961 479.244 93.1385 479.838L93.1194 479.819C93.0619 481.257 93.4261 481.986 93.3686 483.289L93.3111 483.155C93.2536 483.615 93.407 484.516 93.3686 485.36C93.3878 485.13 93.4645 484.919 93.5028 485.398C93.4645 486.357 93.5795 487.008 93.522 487.699L93.6753 488.35C93.8287 491.667 94.6914 504.761 94.9023 508.078L94.8831 507.943C95.1707 511.279 95.4391 515.976 95.7267 521.037Z" fill="#E5E7EB"/>
<path d="M41.8557 430.377C43.0634 431.91 44.3287 433.54 45.4982 435.035C46.1884 435.898 46.821 436.703 47.3386 437.317C47.5495 437.681 47.9138 438.122 48.163 438.486C48.0288 438.275 48.1247 438.314 48.2397 438.467C49.0449 439.521 48.3355 438.505 49.1599 439.54C49.62 440.096 50.6744 441.458 51.7288 442.838C53.205 444.793 54.7004 446.768 55.4097 447.707C55.5439 447.516 55.6206 447.401 55.6781 447.305C56.0232 446.672 56.4066 446.059 56.79 445.445C56.9818 445.139 57.1735 444.832 57.3652 444.525C57.4419 444.41 57.5186 444.295 57.5761 444.161C57.6144 444.084 57.6719 443.988 57.7103 443.912L57.6911 443.988C58.0745 443.317 60.4709 439.675 60.9119 438.889L60.8352 438.984C61.1994 438.294 61.2378 438.429 61.5829 437.93C61.4487 437.949 61.7554 437.336 61.8896 437.125L61.9088 437.144C62.1005 436.799 62.4839 436.013 62.8098 435.476L62.8482 435.534C63.0782 435.054 63.6342 434.23 63.8259 433.885C64.3052 433.156 65.1104 432.083 65.6663 431.048L66.2031 430.492L66.2415 430.396L67.3342 428.076C67.5835 427.539 64.8803 428.114 64.8611 428.038C65.0529 428.019 65.2446 427.999 65.3021 428.019C65.2446 427.98 64.8803 427.999 64.6886 428.057L64.6694 428.134C64.2285 428.21 64.5544 428.095 64.1135 428.153C64.0751 428.095 64.4969 428.038 64.842 427.999C64.5161 428.019 64.1901 427.999 64.0751 428.095C63.7684 428.095 64.0943 428.019 63.73 428.019C63.4808 428.057 63.1357 428.153 62.829 428.153V428.134C62.1005 428.134 61.7362 428.344 61.0652 428.344L61.1419 428.306C60.9119 428.287 60.4518 428.383 60.03 428.383C60.145 428.383 60.26 428.421 60.0108 428.46C59.5124 428.46 59.1865 428.536 58.8414 428.517L58.5155 428.613C56.8284 428.766 50.176 429.514 48.4697 429.706L48.5272 429.686C46.821 429.878 44.4438 430.127 41.8557 430.377Z" fill="#E5E7EB"/>
<path d="M256.343 534.822C257.915 533.652 259.564 532.425 261.079 531.294C261.96 530.623 262.785 530.01 263.398 529.511C263.762 529.319 264.223 528.974 264.587 528.725C264.376 528.84 264.414 528.763 264.568 528.648C265.641 527.882 264.606 528.553 265.68 527.747C266.255 527.287 267.635 526.271 269.035 525.255C271.028 523.817 273.041 522.379 274 521.689C273.808 521.555 273.693 521.478 273.597 521.402C272.965 521.037 272.37 520.654 271.757 520.251C271.45 520.06 271.143 519.849 270.856 519.657C270.741 519.58 270.626 519.504 270.511 519.427C270.434 519.389 270.357 519.331 270.262 519.293L270.338 519.312C269.667 518.909 266.082 516.436 265.315 515.976L265.411 516.053C264.721 515.67 264.874 515.65 264.376 515.286C264.395 515.42 263.801 515.094 263.571 514.96L263.59 514.941C263.264 514.749 262.478 514.347 261.941 514.002L261.999 513.963C261.519 513.714 260.714 513.158 260.388 512.947C259.679 512.449 258.605 511.624 257.589 511.049L257.053 510.493L256.957 510.455L254.656 509.305C254.119 509.055 254.637 511.759 254.56 511.778C254.541 511.586 254.541 511.394 254.541 511.337C254.503 511.394 254.522 511.759 254.56 511.95L254.637 511.969C254.694 512.41 254.599 512.084 254.637 512.525C254.579 512.545 254.522 512.142 254.503 511.797C254.522 512.123 254.503 512.449 254.579 512.564C254.579 512.87 254.503 512.545 254.503 512.909C254.541 513.158 254.637 513.503 254.618 513.81H254.599C254.579 514.538 254.79 514.903 254.771 515.574L254.752 515.497C254.733 515.727 254.81 516.187 254.81 516.609C254.81 516.494 254.848 516.379 254.886 516.628C254.886 517.127 254.944 517.452 254.925 517.798L255.02 518.123C255.135 519.81 255.73 526.482 255.864 528.188L255.845 528.131C255.96 529.856 256.151 532.253 256.343 534.822Z" fill="#E5E7EB"/>
<path d="M92.2756 653.377C95.9757 654.354 99.8483 655.37 103.433 656.329C105.542 656.866 107.478 657.364 108.993 657.709C109.741 658.035 110.833 658.304 111.639 658.553C111.198 658.38 111.37 658.342 111.734 658.438C114.227 659.128 111.926 658.399 114.457 659.032C115.856 659.358 119.077 660.221 122.355 661.141C126.976 662.444 131.653 663.748 133.858 664.381C133.82 663.921 133.801 663.652 133.781 663.422C133.57 662.023 133.436 660.623 133.302 659.205C133.245 658.495 133.168 657.786 133.11 657.115C133.091 656.847 133.053 656.578 133.034 656.31C133.015 656.137 132.976 655.945 132.957 655.773L133.015 655.907C132.804 654.412 132.228 645.881 132.018 644.155V644.385C131.768 642.871 131.979 643.062 131.941 641.855C131.749 642.027 131.519 640.743 131.462 640.244L131.5 640.263C131.404 639.516 131.078 637.829 130.925 636.602L131.04 636.64C130.829 635.624 130.714 633.669 130.618 632.921C130.522 631.215 130.484 628.588 130.12 626.326L130.311 624.831L130.254 624.62L129.219 619.712C128.969 618.6 125.423 622.683 125.327 622.588C125.595 622.338 125.864 622.089 125.979 622.032C125.864 622.051 125.308 622.511 125.058 622.798L125.116 622.952C124.503 623.604 124.905 623.028 124.272 623.623C124.157 623.565 124.713 622.99 125.231 622.511C124.752 622.933 124.234 623.297 124.138 623.565C123.659 623.93 124.081 623.412 123.525 623.853C123.18 624.236 122.777 624.773 122.298 625.118V625.099C121.167 625.962 120.841 626.729 119.786 627.515L119.863 627.38C119.48 627.63 118.885 628.32 118.214 628.837C118.406 628.703 118.617 628.626 118.272 628.972C117.524 629.566 117.102 630.064 116.508 630.467L116.105 631.023C113.652 633.266 104.162 642.315 101.727 644.596L101.804 644.5C99.4073 646.705 95.9757 649.907 92.2756 653.377Z" fill="#E5E7EB"/>
<path d="M176.303 568.429C178.872 571.266 181.556 574.257 184.029 577.017C185.506 578.628 186.848 580.085 187.921 581.216C188.381 581.906 189.129 582.73 189.666 583.382C189.397 582.999 189.57 583.056 189.8 583.344C191.506 585.28 189.972 583.421 191.755 585.338C192.752 586.373 194.976 588.865 197.219 591.415C200.363 595.038 203.565 598.7 205.079 600.426C205.309 600.023 205.424 599.793 205.539 599.582C206.115 598.298 206.786 597.051 207.457 595.786C207.783 595.153 208.128 594.54 208.434 593.926C208.569 593.677 208.684 593.447 208.799 593.198C208.875 593.025 208.952 592.872 209.029 592.699L209.009 592.853C209.661 591.492 213.841 584.034 214.607 582.462L214.473 582.654C215.087 581.254 215.163 581.523 215.796 580.507C215.547 580.545 216.045 579.337 216.275 578.896L216.314 578.935C216.64 578.264 217.291 576.672 217.847 575.56L217.924 575.656C218.308 574.679 219.266 572.991 219.611 572.32C220.455 570.844 221.873 568.62 222.813 566.531L223.791 565.381L223.867 565.17L225.688 560.492C226.091 559.418 220.876 560.894 220.857 560.76C221.222 560.703 221.586 560.645 221.701 560.645C221.605 560.588 220.876 560.684 220.512 560.779L220.474 560.952C219.611 561.163 220.263 560.894 219.4 561.048C219.324 560.933 220.11 560.76 220.8 560.645C220.186 560.741 219.534 560.741 219.304 560.933C218.71 560.971 219.343 560.76 218.633 560.837C218.135 560.952 217.502 561.201 216.908 561.22V561.201C215.489 561.316 214.799 561.757 213.496 561.853L213.63 561.795C213.17 561.795 212.288 562.045 211.463 562.102C211.693 562.083 211.923 562.141 211.425 562.236C210.466 562.313 209.853 562.505 209.144 562.524L208.511 562.754C205.233 563.291 192.33 565.649 189.052 566.224L189.167 566.186C185.927 566.761 181.307 567.566 176.303 568.429Z" fill="#E5E7EB"/>
<path d="M157.842 517.932C161.58 518.756 165.491 519.619 169.114 520.424C171.242 520.884 173.198 521.287 174.732 521.574C175.498 521.881 176.591 522.092 177.416 522.322C176.975 522.168 177.147 522.111 177.511 522.207C180.023 522.782 177.703 522.168 180.253 522.686C181.652 522.955 184.931 523.683 188.228 524.469C192.887 525.581 197.622 526.693 199.865 527.23C199.808 526.77 199.788 526.501 199.75 526.271C199.482 524.891 199.29 523.491 199.098 522.073C199.002 521.363 198.906 520.673 198.83 519.983C198.791 519.715 198.753 519.446 198.715 519.178C198.676 518.986 198.638 518.814 198.619 518.641L198.676 518.775C198.408 517.28 197.488 508.787 197.2 507.062V507.292C196.893 505.796 197.124 505.969 197.028 504.761C196.836 504.953 196.548 503.668 196.472 503.17L196.529 503.189C196.395 502.441 195.992 500.773 195.82 499.546L195.935 499.585C195.686 498.569 195.475 496.632 195.379 495.885C195.206 494.198 195.053 491.552 194.612 489.309L194.746 487.814L194.689 487.603L193.443 482.733C193.136 481.621 189.762 485.858 189.666 485.762C189.934 485.494 190.203 485.245 190.279 485.187C190.164 485.206 189.628 485.705 189.378 485.992L189.436 486.146C188.842 486.817 189.225 486.222 188.631 486.855C188.516 486.798 189.052 486.203 189.532 485.705C189.072 486.146 188.573 486.529 188.477 486.798C188.017 487.181 188.42 486.644 187.864 487.104C187.538 487.488 187.155 488.063 186.675 488.408V488.389C185.582 489.309 185.276 490.076 184.26 490.9L184.336 490.766C183.953 491.034 183.397 491.744 182.745 492.281C182.937 492.127 183.148 492.051 182.803 492.415C182.074 493.028 181.672 493.546 181.116 493.987L180.732 494.543C178.374 496.882 169.249 506.314 166.929 508.691L167.006 508.576C164.686 510.973 161.388 514.308 157.842 517.932Z" fill="#E5E7EB"/>
<path d="M50.4059 607.749C54.221 608.094 58.2086 608.477 61.9087 608.823C64.075 609.014 66.0688 609.168 67.6217 609.263C68.4269 609.455 69.5388 609.551 70.3824 609.666C69.9223 609.57 70.0948 609.494 70.459 609.532C73.028 609.8 70.6508 609.455 73.2389 609.666C74.6576 609.743 77.9933 610.069 81.3675 610.433C86.1411 610.951 90.9723 611.468 93.2537 611.737C93.1386 611.296 93.0811 611.027 93.0236 610.797C92.5827 609.455 92.2184 608.094 91.8542 606.714C91.6624 606.023 91.4899 605.353 91.3174 604.682C91.2407 604.413 91.164 604.164 91.0873 603.896C91.0298 603.723 90.9723 603.55 90.9148 603.378L90.9915 603.512C90.5505 602.074 88.5567 593.754 88.0583 592.086L88.0966 592.316C87.5982 590.859 87.8474 591.012 87.5981 589.843C87.4448 590.054 87.0038 588.808 86.8505 588.329H86.908C86.6779 587.6 86.0836 586.009 85.7385 584.801L85.8535 584.82C85.4701 583.842 85.0292 581.944 84.8375 581.216C84.4541 579.548 83.9748 576.96 83.2654 574.794L83.2079 573.279L83.1312 573.068L81.2908 568.41C80.8499 567.355 78.0317 571.975 77.9358 571.88C78.1659 571.592 78.396 571.304 78.4726 571.228C78.3576 571.266 77.8975 571.822 77.6866 572.148L77.7633 572.301C77.2648 573.049 77.5716 572.416 77.0348 573.107C76.9006 573.068 77.3607 572.416 77.7825 571.86C77.3799 572.359 76.9198 572.8 76.8814 573.087C76.4788 573.528 76.8047 572.934 76.3254 573.471C76.0379 573.893 75.7311 574.506 75.3094 574.928L75.2902 574.909C74.3125 575.944 74.1208 576.749 73.2197 577.708L73.2772 577.573C72.9321 577.899 72.472 578.666 71.8969 579.28C72.0694 579.107 72.2612 579.011 71.9736 579.414C71.3218 580.123 70.9958 580.679 70.4974 581.178L70.1906 581.791C68.1393 584.398 60.2791 594.904 58.247 597.55L58.3045 597.435C56.3298 599.985 53.4733 603.723 50.4059 607.749Z" fill="#E5E7EB"/>
<path d="M50.0799 561.393C48.0286 558.172 45.8622 554.779 43.8684 551.654C42.6798 549.833 41.5871 548.146 40.7244 546.861C40.3984 546.113 39.785 545.174 39.344 544.446C39.5549 544.867 39.3824 544.791 39.1907 544.465C37.8295 542.279 39.0181 544.369 37.5803 542.183C36.7751 540.995 34.9922 538.177 33.1901 535.282C30.6786 531.198 28.1289 527.057 26.9211 525.102C26.6335 525.466 26.4609 525.677 26.3267 525.849C25.5407 527.019 24.678 528.15 23.8153 529.281C23.3936 529.837 22.9526 530.412 22.5309 530.949C22.3583 531.179 22.2049 531.39 22.0516 531.601C21.9365 531.754 21.8407 531.908 21.7448 532.061L21.8023 531.927C20.9396 533.173 15.5909 539.825 14.5748 541.244L14.7473 541.071C13.9038 542.356 13.8655 542.068 13.0794 542.989C13.3287 542.989 12.6385 544.1 12.3318 544.503L12.3126 544.465C11.8716 545.078 10.9706 546.535 10.2421 547.551L10.1846 547.436C9.64777 548.337 8.42081 549.852 7.97987 550.446C6.90628 551.769 5.14253 553.724 3.85805 555.622L2.70778 556.6L2.61193 556.792L0.0429797 561.105C-0.532158 562.102 4.85497 561.508 4.85497 561.642C4.49071 561.642 4.12645 561.642 4.01143 561.604C4.10728 561.661 4.83578 561.7 5.21921 561.661L5.27673 561.508C6.15861 561.45 5.48761 561.604 6.35032 561.585C6.38866 561.719 5.60264 561.738 4.8933 561.757C5.52595 561.776 6.15861 561.872 6.40783 561.719C7.00214 561.776 6.33115 561.872 7.05966 561.93C7.55811 561.891 8.2291 561.757 8.82341 561.834L8.80424 561.853C10.2229 561.987 10.9898 561.642 12.2742 561.776L12.14 561.815C12.6001 561.891 13.5012 561.776 14.3255 561.872C14.0955 561.853 13.8846 561.757 14.3831 561.738C15.3416 561.815 15.9935 561.738 16.6836 561.834L17.3546 561.7C20.6712 561.719 33.7844 561.508 37.1202 561.47L36.986 561.489C40.3026 561.47 45.0187 561.431 50.0799 561.393Z" fill="#E5E7EB"/>
<path d="M735.551 42.6271C737.071 43.6771 738.651 44.7771 740.131 45.7971C741.001 46.3871 741.801 46.9271 742.421 47.3371C742.711 47.6071 743.161 47.9071 743.481 48.1571C743.311 48.0071 743.401 48.0171 743.541 48.1171C744.551 48.8371 743.631 48.1271 744.681 48.8271C745.261 49.1971 746.581 50.1271 747.911 51.0771C749.791 52.4271 751.691 53.7871 752.591 54.4371C752.651 54.2271 752.691 54.0971 752.721 53.9871C752.851 53.3171 753.021 52.6571 753.201 51.9971C753.291 51.6671 753.371 51.3371 753.461 51.0171C753.491 50.8871 753.521 50.7571 753.551 50.6371C753.571 50.5471 753.581 50.4671 753.601 50.3771V50.4471C753.751 49.7371 754.891 45.7771 755.081 44.9571L755.041 45.0671C755.181 44.3371 755.241 44.4671 755.421 43.9071C755.301 43.9571 755.411 43.3271 755.471 43.0971L755.491 43.1071C755.571 42.7471 755.701 41.9371 755.841 41.3471L755.891 41.3871C755.961 40.8871 756.231 39.9871 756.311 39.6371C756.541 38.8471 756.961 37.6471 757.171 36.5671L757.501 35.9171L757.511 35.8171L757.851 33.4171C757.921 32.8671 755.641 34.1371 755.611 34.0771C755.771 34.0071 755.941 33.9471 755.991 33.9371C755.941 33.9271 755.611 34.0471 755.441 34.1371V34.2171C755.061 34.4071 755.331 34.2171 754.951 34.3771C754.911 34.3271 755.251 34.1671 755.561 34.0271C755.281 34.1371 754.981 34.2171 754.891 34.3271C754.621 34.4171 754.891 34.2471 754.561 34.3571C754.341 34.4671 754.071 34.6471 753.791 34.7271V34.7171C753.131 34.9271 752.861 35.2171 752.261 35.3971L752.311 35.3471C752.091 35.3971 751.711 35.6171 751.331 35.7371C751.441 35.7071 751.551 35.7071 751.331 35.8071C750.891 35.9471 750.621 36.1071 750.291 36.1971L750.021 36.3771C748.541 36.9871 742.751 39.5271 741.281 40.1671L741.331 40.1371C739.881 40.7771 737.801 41.6671 735.551 42.6271Z" fill="#F3F4F6"/>
<path d="M731.131 24.1071C732.641 23.0371 734.211 21.9171 735.671 20.8871C736.521 20.2771 737.301 19.7071 737.901 19.2571C738.251 19.0771 738.691 18.7571 739.031 18.5371C738.831 18.6471 738.871 18.5671 739.021 18.4671C740.041 17.7571 739.061 18.3871 740.081 17.6371C740.631 17.2171 741.951 16.2871 743.301 15.3571C745.211 14.0471 747.141 12.7271 748.051 12.0971C747.871 11.9671 747.761 11.8971 747.671 11.8271C747.091 11.4771 746.521 11.0971 745.961 10.6971C745.681 10.5071 745.401 10.3071 745.121 10.1271C745.011 10.0571 744.901 9.97712 744.791 9.90712C744.711 9.85712 744.641 9.81712 744.561 9.76712L744.631 9.78712C744.011 9.39712 740.681 6.98713 739.971 6.52713L740.061 6.60713C739.421 6.22713 739.561 6.20713 739.101 5.85713C739.111 5.97713 738.561 5.66712 738.351 5.53712L738.371 5.52713C738.061 5.33713 737.341 4.93713 736.841 4.60713L736.891 4.57712C736.451 4.33712 735.691 3.78712 735.391 3.58712C734.731 3.09712 733.741 2.29712 732.801 1.72712L732.311 1.19712L732.221 1.14712L730.081 0.0171234C729.591 -0.232877 730.011 2.33713 729.941 2.34713C729.931 2.16713 729.931 1.99712 729.931 1.93712C729.901 1.98712 729.901 2.33712 729.931 2.51712L730.011 2.54712C730.061 2.97712 729.971 2.64713 730.001 3.06713C729.941 3.09713 729.911 2.70712 729.881 2.36712C729.891 2.66712 729.861 2.97713 729.931 3.09713C729.921 3.38713 729.851 3.06713 729.841 3.41712C729.871 3.65712 729.951 3.97712 729.931 4.26712H729.921C729.891 4.95712 730.071 5.30712 730.041 5.93712L730.021 5.86712C730.001 6.08712 730.071 6.52713 730.051 6.92713C730.061 6.80713 730.101 6.70712 730.121 6.94712C730.111 7.40712 730.161 7.71712 730.131 8.05712L730.211 8.37712C730.281 9.97712 730.701 16.2871 730.801 17.8871L730.791 17.8271C730.861 19.4071 730.991 21.6671 731.131 24.1071Z" fill="#F3F4F6"/>
<path d="M729.471 87.8871C731.251 88.3571 733.121 88.8471 734.851 89.3071C735.871 89.5671 736.801 89.7971 737.531 89.9671C737.891 90.1271 738.421 90.2571 738.811 90.3771C738.601 90.2971 738.681 90.2671 738.851 90.3171C740.051 90.6471 738.941 90.2971 740.161 90.5971C740.831 90.7471 742.391 91.1671 743.971 91.6071C746.191 92.2371 748.451 92.8671 749.521 93.1671C749.501 92.9471 749.501 92.8171 749.491 92.7071C749.391 92.0371 749.321 91.3571 749.261 90.6671C749.231 90.3271 749.201 89.9871 749.171 89.6571C749.161 89.5271 749.141 89.3971 749.131 89.2671C749.121 89.1771 749.101 89.0971 749.091 89.0071L749.121 89.0771C749.021 88.3571 748.741 84.2471 748.631 83.4071V83.5171C748.511 82.7871 748.621 82.8771 748.591 82.2971C748.501 82.3871 748.391 81.7571 748.361 81.5171L748.381 81.5271C748.331 81.1671 748.171 80.3571 748.111 79.7571L748.171 79.7771C748.071 79.2871 748.011 78.3471 747.971 77.9871C747.921 77.1671 747.901 75.8971 747.731 74.8071L747.821 74.0871L747.801 73.9871L747.301 71.6171C747.181 71.0771 745.471 73.0471 745.421 72.9971C745.551 72.8771 745.681 72.7571 745.731 72.7271C745.671 72.7371 745.411 72.9571 745.281 73.0971L745.311 73.1771C745.011 73.4871 745.211 73.2071 744.901 73.4971C744.841 73.4671 745.111 73.1971 745.361 72.9571C745.131 73.1571 744.881 73.3371 744.831 73.4671C744.601 73.6371 744.801 73.3871 744.531 73.6071C744.361 73.7871 744.171 74.0471 743.941 74.2171V74.2071C743.391 74.6271 743.231 74.9871 742.731 75.3671L742.771 75.3071C742.581 75.4271 742.301 75.7671 741.981 76.0071C742.071 75.9371 742.181 75.9071 742.001 76.0671C741.641 76.3471 741.431 76.5971 741.151 76.7871L740.951 77.0471C739.771 78.1271 735.191 82.4871 734.021 83.5871L734.061 83.5371C732.911 84.6671 731.251 86.2171 729.471 87.8871Z" fill="#F3F4F6"/>
<path d="M769.971 46.9471C771.211 48.3171 772.501 49.7571 773.691 51.0871C774.401 51.8571 775.051 52.5671 775.571 53.1071C775.791 53.4371 776.161 53.8371 776.411 54.1471C776.281 53.9571 776.361 53.9871 776.481 54.1271C777.301 55.0571 776.571 54.1571 777.421 55.0871C777.901 55.5871 778.971 56.7871 780.051 58.0171C781.571 59.7571 783.111 61.5271 783.841 62.3571C783.951 62.1671 784.011 62.0471 784.071 61.9571C784.351 61.3371 784.671 60.7371 784.991 60.1271C785.151 59.8271 785.311 59.5271 785.471 59.2271C785.531 59.1071 785.591 58.9971 785.651 58.8771C785.691 58.7971 785.721 58.7171 785.761 58.6371L785.751 58.7071C786.061 58.0471 788.081 54.4571 788.451 53.6971L788.381 53.7871C788.681 53.1071 788.721 53.2471 789.021 52.7471C788.901 52.7671 789.141 52.1871 789.251 51.9671L789.261 51.9871C789.421 51.6571 789.731 50.8971 790.001 50.3571L790.041 50.4071C790.221 49.9371 790.691 49.1171 790.851 48.7971C791.261 48.0871 791.941 47.0071 792.391 46.0071L792.861 45.4571L792.891 45.3571L793.771 43.1071C793.961 42.5871 791.451 43.2971 791.441 43.2371C791.621 43.2071 791.791 43.1871 791.851 43.1871C791.801 43.1671 791.451 43.2071 791.271 43.2571L791.251 43.3371C790.831 43.4371 791.141 43.3071 790.731 43.3871C790.701 43.3271 791.071 43.2471 791.411 43.1871C791.111 43.2271 790.801 43.2371 790.691 43.3271C790.401 43.3471 790.711 43.2471 790.361 43.2771C790.121 43.3371 789.811 43.4471 789.531 43.4571V43.4471C788.841 43.4971 788.511 43.7171 787.881 43.7571L787.941 43.7271C787.721 43.7271 787.291 43.8471 786.891 43.8771C787.011 43.8671 787.111 43.8971 786.881 43.9471C786.421 43.9871 786.121 44.0771 785.781 44.0871L785.471 44.1971C783.891 44.4471 777.671 45.5971 776.091 45.8771L776.151 45.8571C774.611 46.1371 772.371 46.5271 769.971 46.9471Z" fill="#F3F4F6"/>
<path d="M761.071 22.6071C762.871 23.0071 764.761 23.4171 766.511 23.8071C767.541 24.0271 768.481 24.2171 769.211 24.3671C769.581 24.5071 770.111 24.6171 770.501 24.7271C770.281 24.6471 770.371 24.6271 770.541 24.6671C771.751 24.9471 770.631 24.6471 771.861 24.8971C772.541 25.0271 774.111 25.3771 775.711 25.7571C777.961 26.2871 780.241 26.8371 781.321 27.0871C781.301 26.8671 781.281 26.7371 781.271 26.6271C781.141 25.9571 781.041 25.2871 780.961 24.6071C780.911 24.2671 780.871 23.9271 780.831 23.5971C780.811 23.4671 780.791 23.3371 780.771 23.2071C780.751 23.1171 780.741 23.0371 780.721 22.9471L780.751 23.0171C780.621 22.2971 780.181 18.2071 780.031 17.3771V17.4971C779.881 16.7771 779.991 16.8571 779.951 16.2771C779.861 16.3671 779.721 15.7471 779.691 15.5071L779.711 15.5171C779.651 15.1571 779.451 14.3571 779.361 13.7571L779.421 13.7771C779.301 13.2871 779.201 12.3571 779.151 11.9971C779.071 11.1771 779.001 9.90712 778.781 8.82712L778.841 8.10712L778.811 8.00712L778.211 5.66712C778.071 5.13712 776.441 7.17712 776.391 7.12712C776.521 6.99712 776.641 6.87712 776.691 6.84712C776.631 6.85712 776.381 7.09712 776.261 7.23712L776.291 7.31712C776.011 7.63712 776.191 7.35712 775.901 7.65712C775.841 7.62712 776.101 7.34712 776.341 7.10712C776.121 7.31712 775.871 7.49712 775.831 7.63712C775.611 7.82712 775.801 7.55712 775.541 7.78712C775.381 7.97712 775.201 8.24712 774.971 8.41712V8.40712C774.441 8.84712 774.301 9.21712 773.811 9.61712L773.841 9.55712C773.661 9.68712 773.381 10.0371 773.081 10.2871C773.171 10.2171 773.271 10.1771 773.111 10.3571C772.761 10.6571 772.571 10.9071 772.291 11.1071L772.111 11.3771C770.971 12.5071 766.581 17.0471 765.451 18.1971L765.491 18.1471C764.371 19.2471 762.781 20.8671 761.071 22.6071Z" fill="#F3F4F6"/>
<path d="M709.281 65.8971C711.121 66.0671 713.041 66.2471 714.821 66.4071C715.861 66.4971 716.831 66.5771 717.571 66.6171C717.951 66.7171 718.491 66.7571 718.901 66.8071C718.681 66.7571 718.761 66.7271 718.931 66.7471C720.171 66.8771 719.021 66.7171 720.271 66.8071C720.961 66.8471 722.561 67.0071 724.191 67.1771C726.491 67.4271 728.821 67.6771 729.921 67.7971C729.871 67.5871 729.841 67.4571 729.811 67.3471C729.601 66.7071 729.421 66.0471 729.251 65.3771C729.161 65.0471 729.071 64.7171 728.991 64.3971C728.951 64.2671 728.921 64.1471 728.881 64.0171C728.851 63.9371 728.831 63.8471 728.801 63.7671L728.841 63.8271C728.621 63.1271 727.671 59.1271 727.431 58.3171L727.451 58.4271C727.211 57.7271 727.331 57.7971 727.211 57.2271C727.131 57.3271 726.921 56.7271 726.851 56.4971H726.871C726.761 56.1471 726.471 55.3771 726.311 54.7971L726.371 54.8071C726.191 54.3371 725.971 53.4171 725.881 53.0771C725.701 52.2771 725.471 51.0271 725.121 49.9771L725.091 49.2471L725.051 49.1471L724.161 46.8971C723.951 46.3871 722.591 48.6071 722.541 48.5671C722.651 48.4271 722.761 48.2871 722.801 48.2571C722.751 48.2771 722.521 48.5371 722.421 48.6971L722.461 48.7671C722.221 49.1271 722.361 48.8171 722.111 49.1571C722.051 49.1371 722.271 48.8271 722.471 48.5571C722.281 48.7971 722.061 49.0071 722.031 49.1471C721.841 49.3571 721.991 49.0771 721.761 49.3271C721.631 49.5371 721.481 49.8271 721.271 50.0271L721.261 50.0171C720.791 50.5171 720.691 50.9071 720.261 51.3671L720.281 51.2971C720.121 51.4471 719.891 51.8271 719.611 52.1171C719.691 52.0371 719.791 51.9871 719.651 52.1771C719.341 52.5171 719.181 52.7871 718.931 53.0271L718.781 53.3171C717.791 54.5771 714.001 59.6371 713.031 60.9071L713.061 60.8571C712.141 62.1571 710.771 63.9571 709.281 65.8971Z" fill="#F3F4F6"/>
<path d="M690.671 90.2871C691.551 88.6671 692.471 86.9671 693.331 85.3971C693.821 84.4771 694.271 83.6171 694.611 82.9571C694.851 82.6471 695.101 82.1671 695.311 81.8171C695.181 82.0071 695.181 81.9171 695.271 81.7571C695.881 80.6671 695.271 81.6671 695.861 80.5471C696.171 79.9271 696.951 78.5171 697.751 77.0871C698.891 75.0771 700.041 73.0371 700.581 72.0671C700.361 72.0271 700.231 72.0071 700.121 71.9871C699.441 71.9271 698.771 71.8371 698.091 71.7271C697.751 71.6771 697.411 71.6271 697.091 71.5771C696.961 71.5571 696.831 71.5471 696.701 71.5271C696.611 71.5171 696.521 71.5071 696.441 71.5071L696.511 71.4971C695.781 71.4171 691.731 70.7171 690.891 70.6171L691.001 70.6471C690.261 70.5871 690.381 70.5071 689.811 70.3971C689.871 70.5071 689.241 70.4671 689.001 70.4371L689.011 70.4171C688.651 70.3771 687.821 70.3371 687.231 70.2671L687.261 70.2171C686.761 70.1971 685.831 70.0371 685.471 69.9871C684.661 69.8371 683.421 69.5571 682.331 69.4571L681.651 69.1971H681.541L679.121 69.1271C678.571 69.1171 680.081 71.2471 680.021 71.2771C679.931 71.1171 679.851 70.9671 679.841 70.9171C679.831 70.9671 679.991 71.2871 680.101 71.4371L680.181 71.4271C680.411 71.7871 680.191 71.5371 680.401 71.8971C680.361 71.9471 680.161 71.6171 679.991 71.3271C680.131 71.5971 680.241 71.8871 680.361 71.9571C680.481 72.2171 680.281 71.9671 680.421 72.2771C680.561 72.4871 680.771 72.7371 680.871 72.9971H680.861C681.141 73.6271 681.451 73.8671 681.701 74.4471L681.651 74.3971C681.731 74.6071 681.981 74.9671 682.141 75.3371C682.091 75.2271 682.091 75.1271 682.211 75.3271C682.401 75.7471 682.591 76.0071 682.711 76.3171L682.921 76.5671C683.691 77.9671 686.841 83.4471 687.631 84.8471L687.591 84.7971C688.371 86.1771 689.481 88.1571 690.671 90.2871Z" fill="#F3F4F6"/>
<path d="M709.131 43.5571C708.141 41.9971 707.101 40.3671 706.141 38.8571C705.571 37.9771 705.041 37.1671 704.621 36.5471C704.461 36.1871 704.161 35.7371 703.961 35.3771C704.061 35.5871 703.981 35.5371 703.891 35.3871C703.231 34.3271 703.811 35.3371 703.121 34.2871C702.731 33.7171 701.871 32.3571 701.011 30.9571C699.801 28.9871 698.571 26.9971 697.991 26.0471C697.851 26.2171 697.771 26.3171 697.701 26.4071C697.321 26.9771 696.911 27.5171 696.491 28.0571C696.281 28.3271 696.081 28.5971 695.871 28.8671C695.791 28.9771 695.711 29.0771 695.641 29.1771C695.591 29.2471 695.541 29.3271 695.491 29.3971L695.521 29.3271C695.101 29.9271 692.521 33.1371 692.031 33.8171L692.111 33.7371C691.701 34.3571 691.691 34.2171 691.311 34.6571C691.431 34.6571 691.091 35.1871 690.951 35.3871L690.941 35.3671C690.731 35.6671 690.301 36.3671 689.941 36.8471L689.911 36.7971C689.651 37.2271 689.061 37.9571 688.841 38.2471C688.321 38.8871 687.471 39.8271 686.861 40.7471L686.301 41.2171L686.251 41.3071L685.011 43.3871C684.731 43.8671 687.331 43.5771 687.331 43.6371C687.151 43.6371 686.971 43.6371 686.921 43.6271C686.961 43.6571 687.311 43.6771 687.501 43.6571L687.531 43.5771C687.961 43.5471 687.631 43.6271 688.051 43.6171C688.071 43.6771 687.691 43.6971 687.351 43.6971C687.651 43.6971 687.961 43.7471 688.081 43.6771C688.371 43.6971 688.051 43.7571 688.391 43.7771C688.631 43.7571 688.961 43.6971 689.241 43.7371L689.231 43.7471C689.921 43.8071 690.281 43.6471 690.911 43.7071L690.841 43.7271C691.061 43.7671 691.501 43.7171 691.901 43.7471C691.791 43.7371 691.691 43.6871 691.931 43.6771C692.391 43.7171 692.701 43.6771 693.041 43.7171L693.361 43.6571C694.961 43.6671 701.281 43.5671 702.891 43.5471L702.831 43.5571C704.421 43.5871 706.691 43.5771 709.131 43.5571Z" fill="#F3F4F6"/>
<path d="M886.743 622.069C899.15 596.035 888.103 564.872 862.069 552.465C836.035 540.058 804.872 551.105 792.465 577.139C780.058 603.173 791.105 634.336 817.139 646.743C843.173 659.15 874.336 648.103 886.743 622.069Z" fill="#E5E7EB"/>
<g clip-path="url(#clip0_591_4697)">
<path d="M477.865 49.6439C350.837 41.6778 305.779 104.294 241.218 169.061C176.659 233.823 146.815 302.189 184.332 399.505C221.849 496.82 310.427 521.566 449.454 521.566C588.484 521.566 731.657 535.123 804.167 482.19C876.674 429.26 901.375 308.298 796.318 245.006C734.443 207.728 653.466 60.6568 477.865 49.6439Z" fill="#F3F4F6"/>
<mask id="mask0_591_4697" style="mask-type:luminance" maskUnits="userSpaceOnUse" x="167" y="48" width="700" height="476">
<path d="M477.865 49.6439C350.837 41.6778 305.779 104.294 241.218 169.061C176.659 233.823 146.815 302.189 184.332 399.505C221.849 496.82 310.427 521.566 449.454 521.566C588.484 521.566 731.657 535.123 804.167 482.19C876.674 429.26 901.375 308.298 796.318 245.006C734.443 207.728 653.466 60.6568 477.865 49.6439Z" fill="white"/>
</mask>
<g mask="url(#mask0_591_4697)">
<path d="M274.306 501.118C272.947 484.256 267.474 468.244 262.016 452.349C256.623 436.639 250.556 420.067 250.286 403.266C250.168 396.014 253.479 381.266 263.825 384.038C267.321 384.975 269.522 388.77 271.101 391.724C273.181 395.616 274.812 399.759 276.25 403.924C281.674 419.645 282.649 436.474 282.608 452.973C282.577 465.381 281.712 477.848 282.728 490.236C282.789 490.975 283.897 490.997 283.895 490.236C283.848 472.851 284.82 455.488 287.89 438.355C289.354 430.18 291.337 422.106 293.683 414.143C294.523 411.291 297.187 406.923 300.115 406.164C304.467 405.036 309.85 406.249 311.523 410.944C317.774 428.48 312.476 447.357 306.652 464.215C304.194 471.331 301.746 478.442 298.586 485.274C296.007 490.85 293.474 496.449 290.996 502.071C290.27 503.718 289.552 505.368 288.86 507.031C288.571 507.726 289.7 508.024 289.985 507.341C294.41 496.705 299.916 486.487 303.804 475.649C309.631 459.41 316.138 442.733 315.404 425.181C315.242 421.302 314.582 417.454 313.596 413.704C312.712 410.334 311.667 407.776 308.635 405.884C306.501 404.551 303.773 404.451 301.356 404.748C298.279 405.127 297.223 405.948 295.571 408.454C294.94 409.411 293.462 410.837 293.151 411.863C292.557 413.82 291.984 415.78 291.431 417.748C290.262 421.91 289.235 426.114 288.303 430.336C286.598 438.069 285.367 445.901 284.471 453.767C283.092 465.867 282.694 478.064 282.727 490.236C283.116 490.236 283.505 490.236 283.894 490.236C282.725 475.981 283.917 461.617 283.749 447.337C283.559 431.185 281.773 414.958 275.98 399.776C273.857 394.212 271.339 387.49 266.276 383.933C261.041 380.255 255.214 384.298 252.355 388.861C248.553 394.935 248.792 403.02 249.56 409.839C250.448 417.716 252.345 425.49 254.536 433.094C261.047 455.702 271.227 477.4 273.139 501.119C273.199 501.862 274.367 501.868 274.306 501.118Z" fill="#00668C"/>
<path d="M274.201 500.929C273.905 497.696 273.551 494.478 272.865 491.299C272.726 490.658 271.68 490.797 271.72 491.454C271.914 494.694 272.378 497.901 272.885 501.105C273.002 501.847 274.125 501.531 274.01 500.795C273.521 497.693 273.077 494.591 272.888 491.453C272.506 491.504 272.123 491.557 271.742 491.608C272.406 494.684 272.749 497.798 273.036 500.928C273.102 501.672 274.27 501.679 274.201 500.929Z" fill="#00668C"/>
<path d="M258.261 501.376C253.33 488.342 242.987 478.776 233.801 468.704C228.879 463.308 224.29 457.597 220.984 451.052C217.849 444.85 213.593 435.535 217.862 428.971C221.551 423.297 229.619 427.894 233.636 430.597C238.76 434.045 242.803 438.669 246.683 443.416C257.436 456.573 265.528 471.996 270.179 488.334C271.322 492.352 272.189 496.447 272.856 500.57C272.975 501.312 274.1 500.996 273.981 500.26C271.405 484.357 265.312 469.266 256.823 455.612C250.229 445.008 241.995 433.61 230.786 427.493C227.151 425.51 222.414 423.987 218.673 426.501C213.925 429.692 214.677 436.659 215.902 441.381C219.397 454.86 228.978 465.324 238.246 475.198C245.704 483.142 253.221 491.338 257.136 501.685C257.399 502.383 258.527 502.081 258.261 501.376Z" fill="#00668C"/>
<path d="M303.862 413.564C296.134 425.597 297.599 440.951 295.236 454.505C293.878 462.292 291.093 469.702 289.671 477.466C288.168 485.668 286.52 493.823 284.566 501.932C284.39 502.663 285.514 502.973 285.691 502.242C287.561 494.487 289.209 486.684 290.626 478.833C291.958 471.448 294.525 464.389 295.954 457.029C297.314 450.016 297.9 442.978 298.56 435.878C299.268 428.265 300.676 420.683 304.871 414.151C305.278 413.518 304.267 412.933 303.862 413.564Z" fill="#00668C"/>
<path d="M260.173 396.014C260.698 404.804 263.678 413.128 265.704 421.636C267.965 431.13 269.808 440.743 271.72 450.311C273.582 459.627 275.252 468.987 277.254 478.274C279.321 487.857 280.971 497.577 281.02 507.404C281.024 508.156 282.191 508.156 282.187 507.404C282.143 498.561 280.787 489.825 279.05 481.175C277.114 471.539 275.194 461.903 273.294 452.26C271.47 443.014 269.635 433.754 267.576 424.556C265.455 415.085 261.922 405.758 261.34 396.014C261.296 395.266 260.129 395.262 260.173 396.014Z" fill="#00668C"/>
<path d="M231.17 444.621C239.958 452.981 247.186 462.758 253.795 472.887C257.141 478.016 260.173 483.394 263.201 488.718C266.588 494.673 268.517 500.978 270.97 507.329C271.238 508.023 272.366 507.722 272.094 507.019C269.881 501.285 268.229 495.449 265.269 490.029C262.153 484.323 258.867 478.617 255.353 473.147C248.589 462.62 241.088 452.443 231.996 443.795C231.451 443.279 230.624 444.102 231.17 444.621Z" fill="#00668C"/>
<path d="M232.779 460.327C239.86 465.082 247.623 468.819 254.321 474.138C254.903 474.601 255.735 473.781 255.146 473.314C248.365 467.93 240.535 464.132 233.368 459.32C232.74 458.899 232.157 459.91 232.779 460.327Z" fill="#00668C"/>
<path d="M252.284 459.422C254.877 462.837 256.426 467.237 257.887 471.217C259.681 476.105 260.943 481.257 262.116 486.325C262.285 487.057 263.41 486.746 263.24 486.015C262.006 480.686 260.631 475.319 258.744 470.179C257.338 466.349 255.778 462.108 253.291 458.834C252.843 458.243 251.829 458.822 252.284 459.422Z" fill="#00668C"/>
<path d="M290.699 445.845C291.099 450.77 293.482 455.263 293.64 460.223C293.663 460.974 294.83 460.976 294.807 460.223C294.648 455.253 292.266 450.769 291.865 445.845C291.805 445.102 290.637 445.095 290.699 445.845Z" fill="#00668C"/>
<path d="M267.915 404.856C266.282 409.98 266.504 415.564 265.811 420.852C265.714 421.596 266.882 421.586 266.977 420.852C267.659 415.662 267.438 410.192 269.04 405.167C269.269 404.447 268.143 404.143 267.915 404.856Z" fill="#00668C"/>
<path d="M258.639 426.112C261.201 429.723 263.294 433.618 265.933 437.175C268.36 440.448 270.344 443.605 271.237 447.617C271.4 448.352 272.525 448.039 272.361 447.307C271.591 443.842 270.151 441.246 268.173 438.334C265.295 434.096 262.609 429.698 259.646 425.524C259.214 424.916 258.203 425.497 258.639 426.112Z" fill="#00668C"/>
<path d="M277.38 440.232C276.189 447.407 275.031 454.586 274.345 461.832C274.274 462.582 275.441 462.574 275.511 461.832C276.188 454.69 277.331 447.615 278.505 440.541C278.628 439.806 277.503 439.491 277.38 440.232Z" fill="#00668C"/>
<path d="M308.143 421.691C305.259 429.222 300.368 435.865 296.956 443.153C296.639 443.829 297.644 444.421 297.963 443.74C301.42 436.359 306.345 429.632 309.267 422C309.537 421.297 308.409 420.997 308.143 421.691Z" fill="#00668C"/>
</g>
<mask id="mask1_591_4697" style="mask-type:luminance" maskUnits="userSpaceOnUse" x="167" y="48" width="700" height="476">
<path d="M477.865 49.6439C350.837 41.6778 305.779 104.294 241.218 169.061C176.659 233.823 146.815 302.189 184.332 399.505C221.849 496.82 310.427 521.566 449.454 521.566C588.484 521.566 731.657 535.123 804.167 482.19C876.674 429.26 901.375 308.298 796.318 245.006C734.443 207.728 653.466 60.6568 477.865 49.6439Z" fill="white"/>
</mask>
<g mask="url(#mask1_591_4697)">
<path d="M724.645 519.387C722.377 513.946 719.465 508.993 715.46 504.647C710.426 499.186 703.93 495.59 699.478 489.545C695.111 483.615 691.43 476.949 687.808 470.548C685.676 466.779 683.95 462.968 683.238 458.676C682.544 454.494 682.725 450.153 683.028 445.946C682.735 446.113 682.442 446.282 682.151 446.45C684.972 447.657 687.048 449.788 689.325 451.773C691.584 453.742 694.244 455.242 696.659 457.008C702.301 461.136 707.359 466.559 711.471 472.18C715.287 477.397 717.968 483.548 720.555 489.438C722.803 494.558 724.629 500.403 727.96 504.942C728.324 505.438 729.261 505.164 729.026 504.494C724.912 492.741 723.258 480.262 723.634 467.836C723.804 462.2 724.485 456.487 725.346 450.919C726.183 445.516 727.492 440.041 730.283 435.289C729.947 435.289 729.612 435.289 729.276 435.289C730.624 437.908 730.938 440.772 731.471 443.626C732.07 446.834 733.198 449.873 734.347 452.917C736.877 459.619 738.305 466.792 739.615 473.816C741.008 481.29 741.336 488.305 740.191 495.837C739.142 502.741 737.229 509.492 735.792 516.319C735.662 516.936 736.549 517.388 736.858 516.768C738.922 512.618 740.858 508.416 742.583 504.115C744.462 499.426 745.707 494.557 747.368 489.797C749.978 482.322 754.433 475.525 761.579 471.799C770.126 467.344 789.667 462.907 791.898 476.764C792.184 476.543 792.47 476.325 792.754 476.105C779.842 470.641 769.717 482.7 763.233 492.31C758.841 498.817 754.295 504.945 749.281 511.002C747.29 513.408 745.506 516.37 743.187 518.458C741.119 520.321 737.096 523.175 734.163 522.9C733.413 522.829 733.42 523.996 734.163 524.066C738.053 524.431 743.443 520.488 745.609 517.499C750.031 511.399 755.281 505.943 759.704 499.838C766.991 489.783 776.631 470.538 792.166 477.111C792.654 477.319 793.109 476.986 793.022 476.452C790.809 462.706 772.816 465.786 763.649 469.563C756.689 472.431 751.795 477.533 748.427 484.249C746.095 488.897 744.925 493.974 743.278 498.875C741.276 504.83 738.644 510.56 735.85 516.18C736.206 516.33 736.56 516.48 736.916 516.629C738.424 509.46 740.367 502.381 741.469 495.129C742.525 488.178 742.186 481.506 740.941 474.618C739.602 467.206 738.078 459.691 735.471 452.605C734.34 449.533 733.283 446.524 732.595 443.316C731.959 440.351 731.693 437.437 730.283 434.7C730.079 434.304 729.488 434.338 729.276 434.7C723.956 443.755 723.189 455.529 722.56 465.794C721.757 478.91 723.558 492.399 727.9 504.801C728.256 504.652 728.611 504.502 728.967 504.352C725.456 499.567 723.526 493.319 721.145 487.897C718.399 481.641 715.388 475.405 711.25 469.94C707.513 465.005 702.938 460.381 698.028 456.602C695.22 454.439 692.124 452.671 689.448 450.337C687.303 448.468 685.392 446.577 682.736 445.443C682.32 445.265 681.893 445.471 681.859 445.946C681.319 453.455 681.615 460.619 684.888 467.5C688.252 474.572 692.692 481.373 696.957 487.933C698.772 490.727 700.833 493.322 703.231 495.637C705.86 498.173 708.985 500.166 711.711 502.605C717.007 507.346 720.796 513.167 723.518 519.696C723.805 520.379 724.935 520.079 724.645 519.387Z" fill="#00668C"/>
<path d="M716.697 520.125C710.09 509.445 704.819 494.958 692.155 490.071C685.415 487.472 677.269 488.95 670.943 491.95C663.801 495.337 658.127 501.362 653.102 507.3C652.744 507.722 653.072 508.45 653.669 508.275C664.484 505.09 678.062 504.432 688.086 510.407C692.874 513.261 696.62 518.108 700.396 522.126C702.893 524.782 704.723 529.25 708.587 530.178C709.319 530.353 709.629 529.229 708.898 529.053C706.309 528.431 704.554 525.604 703.057 523.617C701.633 521.727 700.017 520.072 698.406 518.343C694.547 514.205 690.763 510.049 685.463 507.789C675.498 503.542 663.566 504.145 653.36 507.15C653.549 507.475 653.738 507.8 653.927 508.124C663.132 497.246 676.494 485.926 691.843 491.196C698.135 493.356 702.649 499.131 706.179 504.461C709.65 509.699 712.386 515.375 715.689 520.713C716.083 521.352 717.094 520.766 716.697 520.125Z" fill="#00668C"/>
<path d="M699.032 469.459C703.756 479.364 712.138 486.679 718.168 495.709C721.163 500.194 723.77 505.209 726.029 510.101C728.809 516.117 727.927 522.315 727.881 528.741C727.875 529.494 729.041 529.493 729.047 528.741C729.087 523.309 730.017 517.563 728.2 512.347C726.296 506.876 723.097 501.651 720.16 496.681C714.302 486.773 705.042 479.362 700.038 468.871C699.716 468.192 698.71 468.785 699.032 469.459Z" fill="#00668C"/>
<path d="M683.027 499.455C691.671 504.033 700.114 508.811 706.105 516.726C708.232 519.535 710.307 522.383 712.469 525.164C713.105 525.982 714.866 529.027 716.192 528.887C716.933 528.81 716.94 527.643 716.192 527.721C715.218 527.823 712.063 522.739 711.59 522.113C709.629 519.524 707.729 516.889 705.731 514.329C700.085 507.097 691.568 502.659 683.615 498.448C682.951 498.097 682.362 499.103 683.027 499.455Z" fill="#00668C"/>
<path d="M731.39 467.41C731.486 472.547 732.882 477.483 733.484 482.562C734.204 488.649 733.619 494.956 732.725 500.987C731.076 512.092 731.843 523.363 728.78 534.28C729.163 534.332 729.544 534.384 729.926 534.435C729.926 533.997 729.926 533.558 729.926 533.12C729.926 532.368 728.759 532.368 728.759 533.12C728.759 533.558 728.759 533.997 728.759 534.435C728.759 535.096 729.726 535.225 729.905 534.59C732.866 524.033 732.611 512.994 733.751 502.172C734.368 496.312 735.103 490.612 734.819 484.695C734.539 478.865 732.665 473.26 732.555 467.411C732.544 466.659 731.377 466.658 731.39 467.41Z" fill="#00668C"/>
<path d="M769.374 474.793C760.452 480.435 753.97 490.187 748.879 499.238C743.982 507.948 739.674 518.684 729.926 522.979C729.239 523.282 729.832 524.286 730.514 523.986C739.19 520.163 743.76 511.178 748.022 503.249C753.434 493.182 760.1 482.036 769.963 475.799C770.597 475.399 770.011 474.391 769.374 474.793Z" fill="#00668C"/>
</g>
<path d="M526.416 283.261C526.416 289.466 521.384 294.497 515.176 294.497C508.968 294.497 503.935 289.466 503.935 283.261V275.465C503.935 269.262 508.968 264.232 515.176 264.232C521.384 264.232 526.416 269.262 526.416 275.465V283.261Z" fill="#00668C"/>
<path d="M640.942 405.916C637.843 390.783 624.425 349.862 591.737 335.074C559.046 320.285 528.421 332.323 517.069 339.198C505.713 346.075 492.64 372.901 486.79 398.005C480.939 423.109 460.982 422.767 445.498 428.269L452.723 454.406L612.382 455.436C612.382 455.436 612.382 455.436 612.726 451.31C654.361 448.902 644.04 421.046 640.942 405.916ZM477.671 445.98C484.037 445.98 512.424 424.658 518.274 425.344C521.197 440.992 521.544 449.246 521.887 450.279C522.232 451.31 479.391 458.875 477.671 445.98Z" fill="#00668C"/>
<path d="M534.388 346.425C532.324 356.281 523.836 416.579 538.29 456.242C549.527 457.157 566.274 456.242 566.274 456.242C563.063 435.378 556.639 377.602 569.943 344.589C556.639 344.817 534.388 346.425 534.388 346.425Z" fill="#F3F4F6"/>
<path d="M541.728 328.539C530.374 329.231 527.735 341.495 532.898 349.06C538.058 356.625 547.806 350.433 549.528 346.653C561.802 358.23 577.745 347.799 581.184 330.604C581.183 329.231 561.688 325.446 541.728 328.539Z" fill="#F3F4F6"/>
<path d="M574.074 266.382C573.557 254.939 561.801 233.104 533.93 234.337C514.089 235.863 511.68 254.648 511.68 254.648C510.991 256.757 507.435 261.218 507.435 261.218C506.404 252.416 511.972 229.092 537.028 228.468C565.242 227.763 578.716 249.832 579.237 265.68C576.998 269.377 574.074 266.382 574.074 266.382Z" fill="#00668C"/>
<path d="M518.719 244.732C509.19 251.257 503.481 262.116 508.311 272.914C513.141 283.717 514.511 288.475 509.827 296.925C503.238 308.811 500.46 319.908 505.418 329.998C535.307 325.873 548.459 322.514 548.459 322.514C548.459 322.514 536.902 243.472 518.719 244.732Z" fill="#030712"/>
<path d="M563.088 299.119C563.088 299.119 570.48 321.38 571.18 330.786C571.817 339.41 543.262 345.165 541.236 336.124C539.125 325.367 535.987 307.08 535.987 307.08" fill="#C97440"/>
<path d="M565.461 308.415L563.088 299.119L535.987 307.08C535.987 307.08 536.953 312.698 538.19 319.741C540.203 320.123 542.282 320.308 544.422 320.21C553.245 319.821 560.861 315.199 565.461 308.415Z" fill="#AB5D2D"/>
<path d="M515.713 288.303C516.374 303.129 528.937 314.606 543.763 313.943C558.594 313.282 570.082 300.73 569.419 285.904L568.15 257.522C567.488 242.699 554.924 231.218 540.096 231.884C525.265 232.545 513.78 245.097 514.444 259.92L515.713 288.303Z" fill="#C97440"/>
<path d="M551.186 258.916C547.795 257.096 543.338 256.251 539.792 258.079C538.465 258.763 539.635 260.76 540.961 260.077C543.723 258.652 547.402 259.51 550.017 260.914C551.332 261.619 552.501 259.622 551.186 258.916Z" fill="#030712"/>
<path d="M518.774 262.663C520.377 261.146 522.673 260.592 524.809 261.03C526.266 261.329 526.886 259.1 525.424 258.8C522.457 258.192 519.362 258.92 517.136 261.027C516.051 262.055 517.691 263.688 518.774 262.663Z" fill="#030712"/>
<path d="M534.79 283.363C534.584 283.363 534.377 283.291 534.212 283.145L528.976 278.536C528.763 278.348 528.655 278.069 528.684 277.787C528.713 277.505 528.879 277.255 529.125 277.117L534.401 274.149C534.824 273.912 535.356 274.063 535.593 274.483C535.83 274.903 535.68 275.436 535.26 275.673L531.057 278.035L535.369 281.831C535.731 282.15 535.767 282.703 535.446 283.065C535.274 283.263 535.033 283.363 534.79 283.363Z" fill="#030712"/>
<path d="M536.73 290.782C535.32 290.782 533.932 290.41 532.851 289.672C532.452 289.399 532.35 288.856 532.623 288.457C532.893 288.059 533.438 287.957 533.838 288.227C535.323 289.243 537.822 289.292 539.527 288.343C540.554 287.77 541.754 286.593 541.646 284.228C541.622 283.745 541.997 283.336 542.48 283.315C542.953 283.288 543.371 283.666 543.393 284.149C543.51 286.691 542.439 288.723 540.379 289.871C539.284 290.48 537.999 290.782 536.73 290.782Z" fill="#030712"/>
<path d="M540.67 273.684C541.308 275.37 543.195 276.222 544.882 275.583C546.565 274.948 547.423 273.065 546.781 271.377C546.143 269.688 544.26 268.836 542.572 269.473C540.882 270.11 540.034 271.995 540.67 273.684Z" fill="#030712"/>
<path d="M521.134 274.852C521.772 276.536 523.658 277.394 525.346 276.755C527.031 276.12 527.888 274.231 527.25 272.543C526.611 270.857 524.726 270.009 523.039 270.648C521.35 271.282 520.497 273.165 521.134 274.852Z" fill="#030712"/>
<path d="M521.978 274.081C521.841 274.081 521.704 274.045 521.578 273.968L518.39 272.016C518.029 271.795 517.916 271.322 518.137 270.96C518.359 270.599 518.834 270.487 519.194 270.707L522.38 272.659C522.742 272.88 522.856 273.354 522.635 273.715C522.49 273.951 522.237 274.081 521.978 274.081Z" fill="#030712"/>
<path d="M545.127 272.934C544.883 272.934 544.644 272.819 544.495 272.603C544.253 272.254 544.339 271.776 544.688 271.535L548.02 269.226C548.369 268.984 548.847 269.072 549.089 269.421C549.33 269.77 549.244 270.248 548.895 270.49L545.563 272.798C545.43 272.89 545.277 272.934 545.127 272.934Z" fill="#030712"/>
<path d="M594.982 288.473C590.524 278.874 596.027 272.913 593.654 263.767C591.574 255.767 582.047 256.015 577.133 244.683C569.603 227.307 530.862 211.664 516.416 246.924C532.475 236.042 548.935 241.698 555.182 249.744C567.781 265.967 554.853 272.841 559.716 282.488C563.259 289.517 565.582 294.253 561.003 304.892C556.424 315.529 562.834 325.647 562.834 325.647C577.827 323.987 594.777 322.515 610.175 319.908C610.177 293.943 599.436 298.074 594.982 288.473Z" fill="#030712"/>
<path d="M526.817 421.392C513.745 422.537 508.698 426.436 496.997 432.627C485.298 438.817 482.776 440.192 485.527 441.339C478.646 441.798 482.659 445.464 487.476 443.858C484.266 445.235 488.738 446.726 495.161 444.319C496.766 446.841 505.026 445.698 510.302 442.715C515.577 439.734 528.195 437.211 539.663 441.11C541.042 434.003 536.682 421.622 536.682 421.622L526.817 421.392Z" fill="#C97440"/>
<path d="M535.133 421.563C542.187 420.017 561.916 418.409 573.616 419.099C574.304 428.269 569.257 446.84 569.257 446.84L538.058 439.96C538.058 439.96 539.61 430.16 535.133 421.563Z" fill="#00668C"/>
<path d="M534.543 421.726C548.473 419.714 562.56 419.753 576.599 419.358C583.362 419.167 589.849 418.382 596.55 417.616C602.92 416.889 610.464 418.27 616.588 420.122C617.31 420.34 617.615 419.215 616.898 418.997C611.244 417.287 604.625 416.163 598.705 416.291C595.771 416.354 592.831 416.955 589.937 417.386C585.911 417.987 581.808 418.025 577.747 418.156C563.215 418.626 548.657 418.517 534.234 420.601C533.491 420.708 533.807 421.831 534.543 421.726Z" fill="#030712"/>
<path d="M596.679 386.009C598.007 395.693 598.698 405.428 598.725 415.201C598.727 415.953 599.894 415.953 599.891 415.201C599.864 405.321 599.146 395.488 597.805 385.699C597.703 384.956 596.579 385.275 596.679 386.009Z" fill="#030712"/>
<path d="M537.14 440.542C541.357 440.492 545.266 442.361 549.267 443.445C554.022 444.734 558.677 446.349 563.428 447.651C573.032 450.283 583.019 451.954 592.961 452.528C608.781 453.443 627.921 452.667 639.865 440.831C640.399 440.302 639.574 439.477 639.04 440.007C626.556 452.378 606.036 452.393 589.653 451.142C579.854 450.392 570.029 448.396 560.605 445.641C556.371 444.403 552.147 443.109 547.92 441.848C544.362 440.786 540.915 439.33 537.141 439.376C536.389 439.385 536.387 440.551 537.14 440.542Z" fill="#030712"/>
<path d="M513.868 374.01C512.825 377.138 513.137 380.502 513.182 383.752C513.245 388.223 513.574 392.687 513.808 397.15C514.038 401.559 514.17 405.971 514.525 410.372C514.852 414.434 516.39 418.285 516.601 422.309C516.64 423.058 517.807 423.061 517.767 422.309C517.574 418.629 516.162 415.148 515.791 411.469C515.384 407.443 515.257 403.387 515.078 399.346C514.897 395.271 514.619 391.201 514.449 387.126C514.28 383.048 513.688 378.24 514.994 374.319C515.231 373.604 514.104 373.301 513.868 374.01Z" fill="#030712"/>
<path d="M531.532 334.115C529.701 340.569 528.412 348.807 535.653 352.435C538.264 353.744 541.239 353.095 543.758 351.955C545.529 351.153 547.072 349.799 548.535 348.546C550.014 347.278 550.663 349.2 551.97 350.135C562.61 357.74 576.617 347.209 580.141 336.718C580.38 336.003 579.253 335.699 579.015 336.408C575.255 347.604 559.187 357.885 549.938 346.468C549.73 346.211 549.33 346.273 549.113 346.468C545.277 349.915 540.29 353.996 535.057 350.767C529.353 347.247 531.179 339.627 532.655 334.424C532.862 333.7 531.737 333.394 531.532 334.115Z" fill="#030712"/>
<path d="M494.63 445.341C498.306 444.688 501.253 442.39 504.347 440.451C508.611 437.777 513.402 436.242 518.028 434.335C518.712 434.053 518.414 432.923 517.717 433.21C513.899 434.785 509.988 436.115 506.298 437.987C502.287 440.021 498.865 443.41 494.32 444.217C493.58 444.348 493.895 445.471 494.63 445.341Z" fill="#030712"/>
<path d="M486.283 445.282C495.573 441.36 504.13 435.85 513.668 432.5C514.372 432.252 514.069 431.125 513.357 431.375C503.723 434.76 495.077 440.313 485.693 444.275C485.003 444.567 485.598 445.571 486.283 445.282Z" fill="#030712"/>
<path d="M484.216 442.53C487.886 440.304 492.073 439.269 495.843 437.267C499.579 435.284 503.293 433.252 507.157 431.525C507.843 431.219 507.249 430.215 506.567 430.519C502.703 432.245 498.986 434.272 495.255 436.26C491.484 438.269 487.301 439.295 483.627 441.524C482.986 441.912 483.571 442.921 484.216 442.53Z" fill="#030712"/>
<path d="M544.721 356.379C545.113 358.449 548.044 358.377 548.991 356.778C549.517 355.889 548.945 354.842 548.133 354.38C547.138 353.815 545.636 353.912 544.954 354.897C544.526 355.517 545.538 356.099 545.961 355.485C546.474 354.742 548.62 355.517 547.866 356.351C547.293 356.984 546.029 357.033 545.847 356.069C545.706 355.331 544.581 355.644 544.721 356.379Z" fill="#030712"/>
<path d="M543.174 365.007C542.876 367.07 545.269 367.651 546.656 366.502C547.364 365.917 547.735 364.788 547.138 363.992C546.517 363.163 545.312 363.297 544.441 363.572C543.727 363.797 544.031 364.923 544.751 364.697C545.186 364.56 545.754 364.396 546.178 364.647C546.54 364.86 546.055 365.51 545.862 365.652C545.436 365.963 544.174 366.193 544.3 365.317C544.406 364.582 543.281 364.265 543.174 365.007Z" fill="#030712"/>
<path d="M542.465 376.167C542.567 378.506 546.019 377.573 546.366 375.806C546.787 373.648 543.026 372.467 542.657 374.809C542.542 375.544 543.666 375.859 543.783 375.119C543.924 374.219 545.212 374.835 545.227 375.535C545.24 376.087 543.66 376.835 543.631 376.168C543.599 375.418 542.432 375.416 542.465 376.167Z" fill="#030712"/>
<path d="M519.754 439.959C519.58 441.679 519.824 443.666 520.464 445.275C520.738 445.965 521.867 445.664 521.589 444.965C520.979 443.431 520.754 441.598 520.921 439.959C520.998 439.212 519.83 439.22 519.754 439.959Z" fill="#030712"/>
<path d="M534.325 421.894C536.501 423.424 536.674 426.456 537.289 428.817C538.105 431.94 538.71 435.816 537.327 438.866C537.017 439.545 538.024 440.139 538.333 439.454C539.896 436.012 539.243 432.069 538.414 428.505C537.77 425.744 537.388 422.628 534.912 420.888C534.297 420.454 533.715 421.466 534.325 421.894Z" fill="#030712"/>
<path d="M506.183 289.985C504.351 303.584 524.451 303.628 533.129 303.215C533.878 303.18 533.881 302.014 533.129 302.049C525.47 302.414 505.625 302.781 507.308 290.295C507.407 289.56 506.283 289.243 506.183 289.985Z" fill="#030712"/>
<path d="M539.896 302.462C539.896 304.392 537.969 305.958 535.593 305.958C533.219 305.958 531.294 304.392 531.294 302.462C531.294 300.531 533.218 298.963 535.593 298.963C537.969 298.964 539.896 300.531 539.896 302.462Z" fill="#00668C"/>
<path d="M537.028 228.468C522.735 228.827 514.791 236.564 510.79 244.783C512.152 244.934 513.626 245.334 514.852 245.913C517.814 240.785 523.432 235.146 533.93 234.337C561.802 233.104 573.557 254.939 574.074 266.382C574.074 266.382 576.998 269.377 579.237 265.679C578.716 249.832 565.241 227.763 537.028 228.468Z" fill="#00668C"/>
<path d="M588.297 283.261C588.297 289.466 583.263 294.497 577.057 294.497C570.846 294.497 565.815 289.466 565.815 283.261V275.465C565.815 269.262 570.846 264.232 577.057 264.232C583.263 264.232 588.297 269.262 588.297 275.465V283.261Z" fill="#00668C"/>
<path d="M585.65 282.062C585.242 289.645 575.059 291.381 572.264 284.262C571.429 282.137 571.904 279.127 571.904 276.89C571.904 269.131 582.58 267.791 585.291 274.691C586.125 276.815 585.65 279.825 585.65 282.062C585.65 282.814 586.817 282.814 586.817 282.062C586.817 277.382 587.275 272.869 582.835 269.955C577.456 266.424 571.047 271.163 570.739 276.89C570.49 281.493 570.453 286.197 574.719 288.999C580.099 292.53 586.507 287.789 586.817 282.062C586.857 281.309 585.69 281.314 585.65 282.062Z" fill="#030712"/>
<path d="M454.1 445.235C460.524 445.235 539.663 445.235 543.793 445.235C547.923 445.235 548.84 453.489 541.959 453.489C535.078 453.489 336.193 453.489 336.193 453.489C329.998 441.109 302.242 365.45 299.49 358.344C296.738 351.237 299.261 342.983 310.501 342.983C321.74 342.983 381.153 342.983 389.412 342.983C397.67 342.983 406.845 344.355 412.58 356.967C418.316 369.578 454.1 445.235 454.1 445.235Z" fill="#5F7E91"/>
<path d="M544.078 453.162C544.349 453.067 544.591 452.952 544.82 452.83C544.843 452.82 544.864 452.812 544.883 452.8C548.406 450.828 547.196 445.236 543.794 445.236C543.122 445.236 540.46 445.236 536.453 445.236C515.839 445.236 459.481 445.236 454.101 445.236C454.101 445.236 454.073 445.174 454.031 445.085C453.99 445 453.934 444.883 453.857 444.72C453.539 444.047 452.917 442.728 452.037 440.868C444.341 424.591 417.483 367.746 412.582 356.969C406.848 344.357 397.671 342.985 389.414 342.985C388.111 342.985 385.53 342.985 382.071 342.985C390.33 342.985 399.506 344.357 405.241 356.969C410.975 369.579 446.76 445.236 446.76 445.236L449.858 453.266C449.858 453.266 453.724 453.359 459.897 453.49C492.026 453.49 521.327 453.49 534.619 453.49C538.686 453.49 541.278 453.49 541.959 453.49C542.372 453.49 542.753 453.457 543.11 453.401C543.337 453.366 543.541 453.303 543.747 453.244C543.855 453.214 543.975 453.195 544.078 453.162Z" fill="#49687A"/>
<path d="M379.548 399.384C381.812 404.981 379.129 409.517 373.555 409.517C367.98 409.517 361.624 404.981 359.362 399.384C357.099 393.785 359.781 389.247 365.355 389.247C370.93 389.247 377.284 393.786 379.548 399.384Z" stroke="#030712" stroke-miterlimit="10"/>
<path d="M649.022 459.889H325.444V511.154C360.965 518.712 408.84 524.173 455.988 524.769C520.53 525.584 587.455 524.852 649.022 521.86V459.889Z" fill="#5A9DBF"/>
<path d="M662.45 458.611C662.45 461.669 659.968 464.151 656.906 464.151H317.557C314.497 464.151 312.015 461.669 312.015 458.611C312.015 455.552 314.497 453.071 317.557 453.071H656.906C659.968 453.071 662.45 455.552 662.45 458.611Z" fill="#C97440"/>
<path d="M286.444 262.221C294.136 269.505 300.417 269.505 300.403 262.22C300.387 254.938 300.363 243.019 300.349 235.736C300.332 228.452 294.039 222.493 286.361 222.493C278.684 222.493 266.12 222.493 258.443 222.493C250.766 222.493 250.779 228.452 258.47 235.736C266.163 243.02 278.752 254.938 286.444 262.221Z" fill="#00668C"/>
<path d="M469.903 191.735C469.903 216.452 449.855 236.49 425.124 236.49H260.738C236.007 236.49 215.959 216.452 215.959 191.735V132.776C215.959 108.062 236.007 88.024 260.738 88.024H425.124C449.855 88.024 469.903 108.062 469.903 132.776V191.735Z" fill="#00668C"/>
<path d="M330.537 129.841V113.89H332.468V120.993H340.973V113.89H342.905V129.841H340.973V122.706H332.468V129.841H330.537ZM346.772 129.841V113.89H356.398V115.603H348.703V120.993H355.9V122.706H348.703V128.127H356.523V129.841H346.772ZM359.88 129.841V113.89H361.812V128.127H369.226V129.841H359.88ZM372.217 129.841V113.89H377.607C378.858 113.89 379.881 114.116 380.675 114.567C381.475 115.014 382.067 115.619 382.451 116.382C382.835 117.145 383.027 117.997 383.027 118.937C383.027 119.876 382.835 120.731 382.451 121.499C382.072 122.268 381.485 122.88 380.691 123.337C379.896 123.789 378.879 124.015 377.638 124.015H373.775V122.301H377.575C378.432 122.301 379.12 122.153 379.639 121.857C380.159 121.561 380.535 121.162 380.769 120.658C381.008 120.149 381.127 119.575 381.127 118.937C381.127 118.298 381.008 117.727 380.769 117.223C380.535 116.719 380.156 116.325 379.632 116.039C379.107 115.749 378.411 115.603 377.544 115.603H374.149V129.841H372.217ZM388.32 113.89L388.164 125.354H386.357L386.201 113.89H388.32ZM387.261 129.965C386.876 129.965 386.547 129.828 386.271 129.552C385.996 129.277 385.859 128.947 385.859 128.563C385.859 128.179 385.996 127.849 386.271 127.574C386.547 127.299 386.876 127.161 387.261 127.161C387.645 127.161 387.974 127.299 388.25 127.574C388.525 127.849 388.662 128.179 388.662 128.563C388.662 128.818 388.598 129.051 388.468 129.264C388.343 129.477 388.174 129.648 387.961 129.778C387.754 129.903 387.52 129.965 387.261 129.965Z" fill="#71C4EF"/>
<path d="M445.898 146.297H331.25V153.749H445.898V146.297Z" fill="#F3F4F6"/>
<path d="M430.255 164.398H331.25V171.848H430.255V164.398Z" fill="#F3F4F6"/>
<path d="M396.919 182.501H331.25V189.951H396.919V182.501Z" fill="#F3F4F6"/>
<path d="M437.461 200.599H331.25V208.052H437.461V200.599Z" fill="#F3F4F6"/>
<path d="M308.492 205.29C305.077 196.812 293.255 190.752 287.217 190.834H266.821C260.115 191.465 248.96 196.812 245.544 205.29C253.531 213.192 264.678 218.103 277.019 218.103C289.359 218.103 300.504 213.192 308.492 205.29Z" fill="#030712"/>
<path d="M268.688 173.429C268.688 173.429 266.735 189.467 265.386 198.534C264.401 205.158 288.186 207.019 288.908 199.878C289.539 191.41 290.265 177.056 290.265 177.056" fill="#C97440"/>
<path d="M267.72 180.798L268.688 173.429L290.265 177.056C290.265 177.056 290.04 181.466 289.739 186.996C288.226 187.476 286.644 187.81 284.991 187.934C278.167 188.443 271.883 185.591 267.72 180.798Z" fill="#AB5D2D"/>
<path d="M304.126 160.746C304.985 172.209 296.383 182.192 284.916 183.052C273.449 183.906 263.456 175.311 262.6 163.847L260.957 141.9C260.099 130.442 268.703 120.453 280.169 119.6C291.637 118.741 301.628 127.338 302.486 138.797L304.126 160.746Z" fill="#C97440"/>
<path d="M275.777 144.196C278.698 143.578 281.041 142.277 282.793 139.834C283.664 138.619 281.655 137.465 280.794 138.666C279.402 140.607 277.449 141.48 275.161 141.965C273.702 142.274 274.321 144.504 275.777 144.196Z" fill="#030712"/>
<path d="M299.337 139.646C297.703 139.34 296.698 138.564 295.897 137.114C295.176 135.808 293.176 136.975 293.898 138.282C294.963 140.209 296.538 141.468 298.721 141.878C300.182 142.151 300.804 139.921 299.337 139.646Z" fill="#030712"/>
<path d="M288.918 158.906C288.71 158.906 288.502 158.833 288.335 158.684C287.975 158.362 287.945 157.809 288.267 157.449L291.048 154.339L287.855 153.016C287.408 152.83 287.197 152.318 287.381 151.873C287.565 151.426 288.078 151.214 288.524 151.4L292.856 153.195C293.119 153.304 293.311 153.532 293.374 153.809C293.437 154.085 293.363 154.374 293.174 154.586L289.571 158.615C289.397 158.808 289.158 158.906 288.918 158.906Z" fill="#030712"/>
<path d="M283.658 167.752C283.384 167.752 283.113 167.623 282.943 167.382C282.664 166.988 282.758 166.442 283.152 166.164C286.598 163.729 289.69 162.749 292.352 163.253C292.827 163.343 293.139 163.801 293.049 164.276C292.958 164.749 292.502 165.058 292.026 164.972C289.854 164.559 287.206 165.441 284.163 167.592C284.009 167.7 283.833 167.752 283.658 167.752Z" fill="#030712"/>
<path d="M283.584 151.802C283.249 153.157 281.877 153.986 280.519 153.652C279.165 153.318 278.332 151.946 278.671 150.589C279.004 149.232 280.374 148.403 281.732 148.74C283.088 149.072 283.918 150.446 283.584 151.802Z" fill="#030712"/>
<path d="M298.716 150.899C298.382 152.251 297.012 153.087 295.653 152.75C294.297 152.419 293.466 151.042 293.801 149.687C294.135 148.332 295.508 147.504 296.865 147.842C298.222 148.174 299.052 149.544 298.716 150.899Z" fill="#030712"/>
<path d="M266.591 158.338C267.577 162.393 265.088 166.481 261.028 167.464C256.97 168.45 252.882 165.963 251.896 161.905L251.332 159.587C250.346 155.531 252.836 151.446 256.895 150.46C260.951 149.475 265.042 151.964 266.028 156.019L266.591 158.338Z" fill="#C97440"/>
<path d="M255.185 151.215C253.408 146.156 244.744 125.575 257.628 124.952C258.427 116.872 269.666 112.61 283.704 109.859C297.742 107.108 306.493 113.677 305.427 120.248C304.361 126.819 295.741 129.215 288.901 127.262C286.947 134.366 277.529 131.971 275.486 130.548C273.908 137.43 266.088 139.095 266.978 143.889C267.867 148.685 268.266 153.567 268.444 154.545C268.621 155.524 264.535 157.432 263.646 155.477C262.757 153.525 259.249 150.018 255.185 151.215Z" fill="#030712"/>
<path d="M293.99 263.594C302.509 265.284 297.628 236.397 297.571 232.042C297.377 232.236 297.182 232.431 296.987 232.625C315.322 232.789 333.66 232.837 351.996 232.676C365.102 232.561 378.198 232.226 391.307 232.227C399.367 232.227 407.384 231.929 415.436 231.619C424.068 231.286 432.673 231.315 441.084 229.081C457.173 224.809 463.031 207.806 464.692 192.885C464.775 192.137 463.607 192.147 463.526 192.885C462.291 203.959 458.932 216.095 450.019 223.472C443.305 229.03 433.409 229.735 425.077 230.138C416.78 230.542 408.446 230.893 400.139 231.012C373.864 231.388 347.567 231.645 321.287 231.585C313.188 231.567 305.086 231.531 296.987 231.459C296.672 231.457 296.401 231.727 296.404 232.042C296.452 235.715 300.252 263.65 294.299 262.47C293.566 262.325 293.252 263.449 293.99 263.594Z" fill="#030712"/>
<path d="M464.147 142.979C464.157 157.462 464.78 172.026 463.792 186.488C463.74 187.239 464.908 187.234 464.958 186.488C465.946 172.025 465.325 157.462 465.314 142.979C465.313 142.227 464.146 142.227 464.147 142.979Z" fill="#030712"/>
<path d="M917.121 332.181C917.121 357.806 896.336 378.578 870.696 378.578H700.269C674.629 378.578 653.844 357.806 653.844 332.181V271.056C653.844 245.431 674.629 224.657 700.269 224.657H870.696C896.336 224.657 917.121 245.431 917.121 271.056V332.181Z" fill="#00668C"/>
<path d="M706.401 405.256C698.426 412.806 691.912 412.806 691.929 405.255C691.946 397.707 691.972 385.349 691.987 377.799C692.003 370.247 698.528 364.07 706.487 364.07C714.446 364.07 727.471 364.07 735.431 364.07C743.39 364.07 743.377 370.247 735.402 377.799C727.426 385.351 714.375 397.707 706.401 405.256Z" fill="#00668C"/>
<path d="M688.991 256.715V254.938H701.393V256.715H696.193V271.475H694.191V256.715H688.991ZM704.484 271.475V254.938H706.486V262.302H715.304V254.938H717.307V271.475H715.304V264.079H706.486V271.475H704.484ZM721.994 271.475H719.895L725.967 254.938H728.034L734.106 271.475H732.007L727.065 257.554H726.936L721.994 271.475ZM722.769 265.015H731.232V266.792H722.769V265.015ZM749.795 254.938V271.475H747.857L738.846 258.491H738.685V271.475H736.682V254.938H738.62L747.664 267.955H747.825V254.938H749.795ZM753.802 271.475V254.938H755.805V263.142H755.999L763.428 254.938H766.044L759.1 262.399L766.044 271.475H763.621L757.872 263.788L755.805 266.114V271.475H753.802ZM777.68 259.072C777.583 258.254 777.19 257.619 776.501 257.167C775.812 256.715 774.966 256.489 773.965 256.489C773.233 256.489 772.592 256.607 772.043 256.844C771.5 257.081 771.074 257.406 770.768 257.821C770.466 258.235 770.315 258.706 770.315 259.234C770.315 259.675 770.42 260.055 770.63 260.372C770.846 260.685 771.12 260.946 771.454 261.156C771.788 261.36 772.138 261.53 772.504 261.664C772.87 261.794 773.206 261.899 773.513 261.979L775.193 262.432C775.623 262.545 776.102 262.701 776.63 262.9C777.163 263.099 777.671 263.371 778.156 263.715C778.646 264.055 779.05 264.491 779.367 265.024C779.685 265.556 779.844 266.211 779.844 266.986C779.844 267.879 779.609 268.687 779.141 269.408C778.678 270.129 778 270.703 777.106 271.128C776.218 271.553 775.139 271.766 773.868 271.766C772.684 271.766 771.658 271.575 770.792 271.193C769.93 270.81 769.252 270.277 768.757 269.594C768.267 268.91 767.99 268.116 767.925 267.212H769.992C770.046 267.836 770.256 268.353 770.622 268.762C770.994 269.166 771.462 269.467 772.027 269.667C772.598 269.86 773.212 269.957 773.868 269.957C774.633 269.957 775.319 269.833 775.927 269.586C776.536 269.333 777.017 268.983 777.373 268.536C777.728 268.084 777.906 267.556 777.906 266.953C777.906 266.404 777.752 265.958 777.445 265.613C777.139 265.268 776.735 264.989 776.234 264.773C775.734 264.558 775.193 264.369 774.611 264.208L772.576 263.627C771.284 263.255 770.262 262.725 769.508 262.036C768.754 261.347 768.377 260.445 768.377 259.331C768.377 258.405 768.628 257.597 769.128 256.908C769.634 256.214 770.313 255.676 771.163 255.293C772.019 254.906 772.975 254.712 774.03 254.712C775.096 254.712 776.043 254.903 776.872 255.285C777.701 255.662 778.358 256.179 778.842 256.836C779.332 257.492 779.591 258.238 779.617 259.072H777.68ZM785.397 254.938L785.235 266.824H783.362L783.201 254.938H785.397ZM784.299 271.604C783.9 271.604 783.559 271.462 783.273 271.176C782.988 270.891 782.845 270.549 782.845 270.151C782.845 269.753 782.988 269.411 783.273 269.125C783.559 268.84 783.9 268.698 784.299 268.698C784.697 268.698 785.039 268.84 785.324 269.125C785.61 269.411 785.752 269.753 785.752 270.151C785.752 270.415 785.685 270.657 785.55 270.878C785.421 271.098 785.246 271.276 785.026 271.411C784.81 271.54 784.568 271.604 784.299 271.604Z" fill="#71C4EF"/>
<path d="M803.608 288.309H684.745V296.033H803.608V288.309Z" fill="#F3F4F6"/>
<path d="M787.389 307.073H684.745V314.802H787.389V307.073Z" fill="#F3F4F6"/>
<path d="M752.826 325.84H684.745V333.565H752.826V325.84Z" fill="#F3F4F6"/>
<path d="M830.885 349.102C834.427 340.311 846.681 334.029 852.943 334.112H874.088C881.039 334.766 892.606 340.311 896.145 349.102C887.864 357.293 876.312 362.384 863.516 362.384C850.722 362.384 839.166 357.294 830.885 349.102Z" fill="#030712"/>
<path d="M872.153 316.069C872.153 316.069 874.177 332.695 875.577 342.097C876.598 348.963 851.938 350.893 851.19 343.49C850.533 334.711 849.783 319.831 849.783 319.831" fill="#C97440"/>
<path d="M873.154 323.71L872.153 316.069L849.782 319.832C849.782 319.832 850.014 324.405 850.328 330.138C851.898 330.635 853.536 330.98 855.251 331.108C862.324 331.636 868.838 328.679 873.154 323.71Z" fill="#AB5D2D"/>
<path d="M835.41 302.922C834.522 314.805 843.441 325.156 855.327 326.048C867.214 326.934 877.575 318.022 878.462 306.138L880.167 283.384C881.057 271.501 872.135 261.148 860.25 260.263C848.36 259.374 838 268.285 837.114 280.167L835.41 302.922Z" fill="#C97440"/>
<path d="M864.966 283.654C863.794 281.4 861.193 279.839 858.622 280.136C857.157 280.307 857.14 282.622 858.622 282.45C860.445 282.238 862.129 283.21 862.968 284.821C863.656 286.146 865.653 284.975 864.966 283.654Z" fill="#030712"/>
<path d="M841.516 283.018C842.528 281.958 844.385 281.228 845.834 281.579C847.284 281.93 847.9 279.698 846.449 279.348C844.205 278.806 841.467 279.718 839.879 281.382C838.85 282.46 840.484 284.1 841.516 283.018Z" fill="#030712"/>
<path d="M851.18 300.982C850.939 300.982 850.7 300.884 850.526 300.691L846.789 296.513C846.602 296.301 846.526 296.012 846.589 295.735C846.652 295.46 846.845 295.23 847.107 295.123L851.598 293.261C852.044 293.077 852.556 293.287 852.741 293.734C852.926 294.18 852.715 294.692 852.268 294.877L848.916 296.267L851.832 299.526C852.153 299.886 852.122 300.439 851.762 300.762C851.596 300.909 851.387 300.982 851.18 300.982Z" fill="#030712"/>
<path d="M850.84 312.961C848.441 312.961 846.82 310.422 845.878 305.2C845.828 304.923 845.914 304.639 846.11 304.437C846.308 304.234 846.592 304.143 846.866 304.179C848.342 304.396 850.214 304.62 852.919 304.62C854.312 304.62 855.826 304.563 857.548 304.446C857.866 304.42 858.181 304.583 858.352 304.86C858.523 305.136 858.525 305.484 858.36 305.763C855.502 310.605 853.042 312.961 850.84 312.961ZM847.838 306.074C848.57 309.356 849.643 311.21 850.839 311.21C851.609 311.21 853.253 310.533 855.983 306.288C852.828 306.444 850.425 306.387 847.838 306.074Z" fill="#030712"/>
<path d="M856.708 293.647C857.057 295.054 858.479 295.912 859.886 295.565C861.291 295.218 862.153 293.795 861.804 292.389C861.458 290.984 860.037 290.124 858.629 290.47C857.221 290.818 856.364 292.242 856.708 293.647Z" fill="#030712"/>
<path d="M841.019 292.714C841.366 294.116 842.789 294.978 844.196 294.632C845.599 294.286 846.464 292.861 846.116 291.456C845.767 290.051 844.345 289.195 842.941 289.54C841.535 289.888 840.67 291.307 841.019 292.714Z" fill="#030712"/>
<path d="M874.328 300.425C873.306 304.628 875.886 308.864 880.092 309.887C884.3 310.908 888.541 308.33 889.56 304.123L890.144 301.72C891.17 297.517 888.588 293.28 884.38 292.257C880.173 291.236 875.932 293.818 874.911 298.022L874.328 300.425Z" fill="#C97440"/>
<path d="M886.154 293.042C887.995 287.794 896.975 266.455 883.62 265.812C882.789 257.433 871.139 253.015 856.586 250.162C842.033 247.31 832.958 254.122 834.062 260.934C835.168 267.747 844.104 270.229 851.195 268.205C853.221 275.569 862.984 273.083 865.105 271.612C866.74 278.745 874.846 280.472 873.926 285.443C873.003 290.415 872.589 295.476 872.404 296.492C872.222 297.506 876.457 299.482 877.382 297.456C878.299 295.433 881.939 291.798 886.154 293.042Z" fill="#030712"/>
<path d="M870.149 375.14C887.285 374.461 905.651 363.564 909.301 345.864C909.452 345.131 908.327 344.818 908.175 345.554C904.632 362.743 886.793 373.315 870.149 373.974C869.4 374.003 869.396 375.169 870.149 375.14Z" fill="#030712"/>
<path d="M855.972 375.233C859.099 375.345 862.226 375.406 865.353 375.476C866.107 375.493 866.105 374.327 865.353 374.31C862.226 374.24 859.099 374.179 855.972 374.067C855.219 374.039 855.222 375.206 855.972 375.233Z" fill="#030712"/>
<path d="M706.137 400.988C712.013 395.706 717.91 390.449 723.432 384.793C725.986 382.177 728.265 378.761 731.351 376.691C733.177 375.464 735.444 375.267 737.579 375.144C741.782 374.902 746.013 375.012 750.221 374.954C757.853 374.849 765.474 374.443 773.109 374.457C781.287 374.473 789.461 374.841 797.628 375.213C813.538 375.939 829.488 376.691 845.367 375.055C846.108 374.979 846.116 373.812 845.367 373.889C829.12 375.562 812.802 374.739 796.527 373.997C787.971 373.608 779.412 373.275 770.845 373.291C763.202 373.305 755.565 373.732 747.923 373.815C742.711 373.872 735.456 372.719 730.762 375.683C727.855 377.521 725.672 380.749 723.361 383.185C717.674 389.18 711.451 394.645 705.311 400.165C704.751 400.666 705.58 401.488 706.137 400.988Z" fill="#030712"/>
<path d="M820.963 165.093C820.963 178.506 810.083 189.38 796.662 189.38H570.401C556.981 189.38 546.101 178.506 546.101 165.093V142.486C546.101 129.073 556.981 118.198 570.401 118.198H796.662C810.083 118.198 820.963 129.073 820.963 142.486V165.093Z" fill="#D4EAF7"/>
<path d="M583.907 135.196C584.757 133.471 586.153 133.471 587.003 135.196L589.724 140.705C590.574 142.43 592.831 144.069 594.736 144.345L600.82 145.229C602.725 145.505 603.156 146.831 601.777 148.173L597.377 152.459C595.998 153.802 595.137 156.452 595.462 158.349L596.502 164.403C596.827 166.299 595.698 167.118 593.996 166.224L588.554 163.364C586.85 162.468 584.061 162.468 582.358 163.365L576.917 166.223C575.214 167.118 574.086 166.299 574.413 164.403L575.452 158.349C575.778 156.452 574.917 153.803 573.538 152.459L569.137 148.173C567.758 146.831 568.188 145.505 570.094 145.229L576.175 144.343C578.081 144.067 580.337 142.427 581.187 140.703L583.907 135.196Z" fill="#71C4EF"/>
<path d="M632.518 135.196C633.37 133.471 634.764 133.471 635.616 135.196L638.333 140.705C639.185 142.43 641.44 144.069 643.345 144.345L649.428 145.229C651.333 145.505 651.764 146.831 650.385 148.173L645.985 152.459C644.606 153.802 643.745 156.452 644.071 158.349L645.11 164.403C645.436 166.299 644.308 167.118 642.605 166.223L637.165 163.365C635.462 162.468 632.672 162.468 630.969 163.364L625.525 166.224C623.822 167.12 622.694 166.299 623.02 164.403L624.06 158.349C624.386 156.452 623.524 153.803 622.145 152.459L617.746 148.173C616.367 146.831 616.798 145.505 618.703 145.229L624.786 144.343C626.691 144.067 628.946 142.427 629.799 140.703L632.518 135.196Z" fill="#71C4EF"/>
<path d="M681.129 135.196C681.982 133.471 683.376 133.471 684.226 135.196L686.946 140.705C687.796 142.43 690.052 144.069 691.958 144.345L698.041 145.229C699.946 145.505 700.376 146.831 698.997 148.173L694.598 152.459C693.219 153.802 692.358 156.452 692.682 158.349L693.723 164.403C694.047 166.299 692.92 167.118 691.217 166.223L685.776 163.365C684.072 162.468 681.283 162.468 679.579 163.365L674.14 166.223C672.437 167.118 671.309 166.299 671.634 164.403L672.673 158.349C672.998 156.452 672.136 153.803 670.757 152.459L666.359 148.173C664.98 146.831 665.41 145.505 667.315 145.228L673.394 144.344C675.299 144.067 677.554 142.427 678.407 140.703L681.129 135.196Z" fill="#71C4EF"/>
<path d="M729.743 135.196C730.594 133.471 731.99 133.471 732.84 135.196L735.558 140.705C736.409 142.43 738.665 144.069 740.57 144.345L746.653 145.229C748.559 145.505 748.989 146.831 747.61 148.173L743.211 152.459C741.832 153.802 740.971 156.452 741.296 158.349L742.336 164.403C742.661 166.299 741.533 167.118 739.83 166.223L734.389 163.365C732.686 162.468 729.897 162.468 728.193 163.365L722.752 166.223C721.049 167.118 719.92 166.299 720.246 164.403L721.285 158.349C721.61 156.453 720.749 153.803 719.37 152.459L714.97 148.173C713.591 146.831 714.022 145.505 715.927 145.229L722.009 144.343C723.914 144.067 726.169 142.427 727.022 140.703L729.743 135.196Z" fill="#71C4EF"/>
<path d="M778.35 135.196C779.203 133.471 780.597 133.471 781.449 135.196L784.17 140.705C785.021 142.43 787.278 144.069 789.183 144.345L795.266 145.229C797.171 145.505 797.602 146.831 796.223 148.173L791.821 152.459C790.442 153.802 789.581 156.452 789.906 158.349L790.946 164.403C791.271 166.299 790.143 167.118 788.44 166.224L782.997 163.364C781.294 162.468 778.506 162.468 776.801 163.365L771.363 166.223C769.66 167.118 768.532 166.299 768.857 164.403L769.898 158.349C770.222 156.452 769.361 153.803 767.982 152.459L763.583 148.173C762.204 146.831 762.634 145.505 764.539 145.228L770.619 144.344C772.524 144.067 774.779 142.427 775.632 140.703L778.35 135.196Z" fill="#71C4EF"/>
<path d="M667.7 185.812C671.539 185.767 675.371 185.43 679.209 185.386C679.962 185.378 679.963 184.212 679.209 184.22C675.371 184.264 671.539 184.601 667.7 184.646C666.948 184.654 666.947 185.82 667.7 185.812Z" fill="#030712"/>
<path d="M684.554 185.386C698.272 185.077 711.989 185.689 725.706 185.465C732.549 185.353 739.339 184.715 746.168 184.379C753.345 184.027 760.54 184.148 767.721 184.333C774.58 184.509 781.435 184.776 788.296 184.878C793.028 184.948 797.838 185.175 802.495 184.17C810.114 182.524 813.356 176.358 813.861 169.032C813.914 168.281 812.746 168.286 812.695 169.032C812.414 173.098 811.471 177.095 808.442 180.005C805.687 182.654 801.538 183.368 797.884 183.655C792.445 184.083 786.872 183.711 781.426 183.571C774.96 183.404 768.496 183.157 762.028 183.044C749.116 182.819 736.317 184.168 723.419 184.333C710.462 184.5 697.51 183.929 684.553 184.22C683.803 184.238 683.8 185.404 684.554 185.386Z" fill="#030712"/>
<path d="M277.491 339.636C277.491 353.048 266.611 363.922 253.191 363.922H157.185C143.764 363.922 132.884 353.048 132.884 339.636V311.382C132.884 297.969 143.763 287.096 157.185 287.096H253.192C266.612 287.096 277.492 297.969 277.492 311.382L277.491 339.636Z" fill="#D4EAF7"/>
<path d="M162.59 330.062V328.01L170.298 319.572C171.202 318.584 171.947 317.725 172.532 316.995C173.118 316.258 173.551 315.566 173.832 314.92C174.121 314.266 174.265 313.582 174.265 312.868C174.265 312.047 174.068 311.336 173.673 310.736C173.285 310.135 172.753 309.671 172.076 309.345C171.4 309.018 170.64 308.854 169.796 308.854C168.899 308.854 168.116 309.041 167.447 309.413C166.786 309.778 166.273 310.291 165.908 310.952C165.551 311.614 165.372 312.389 165.372 313.278H162.681C162.681 311.91 162.997 310.709 163.628 309.675C164.258 308.642 165.117 307.836 166.204 307.258C167.299 306.68 168.527 306.392 169.887 306.392C171.255 306.392 172.468 306.68 173.524 307.258C174.581 307.836 175.409 308.615 176.01 309.595C176.61 310.576 176.911 311.667 176.911 312.868C176.911 313.727 176.755 314.567 176.443 315.388C176.139 316.201 175.607 317.109 174.847 318.113C174.094 319.108 173.049 320.325 171.711 321.761L166.467 327.371V327.553H177.321V330.062H162.59ZM180.981 325.273V322.947L191.243 306.711H192.93V310.314H191.79L184.037 322.582V322.765H197.856V325.273H180.981ZM191.973 330.062V324.566V323.483V306.711H194.664V330.062H191.973ZM210.43 305.616L202.904 333.574H200.441L207.967 305.616H210.43ZM214.303 330.062L224.747 309.402V309.219H212.707V306.711H227.666V309.356L217.268 330.062H214.303Z" fill="#5A9DBF"/>
<path d="M216.213 359.742C232.849 355.671 251.394 363.851 266.553 353.612C267.172 353.195 266.589 352.182 265.963 352.606C250.989 362.721 232.389 354.582 215.903 358.616C215.173 358.796 215.483 359.921 216.213 359.742Z" fill="#030712"/>
<path d="M272.069 316.679C272.327 319.186 272.201 321.693 272.542 324.196C272.937 327.094 273.366 329.893 273.336 332.825C273.283 338.374 272.814 344.276 269.591 348.979C269.164 349.601 270.177 350.184 270.598 349.567C273.431 345.434 274.145 340.461 274.421 335.56C274.565 333.027 274.622 330.442 274.274 327.925C273.754 324.161 273.622 320.439 273.236 316.678C273.161 315.938 271.992 315.93 272.069 316.679Z" fill="#030712"/>
</g>
<defs>
<clipPath id="clip0_591_4697">
<rect width="875" height="583" fill="white" transform="translate(81 2)"/>
</clipPath>
</defs>
</svg>
