<svg width="262" height="42" viewBox="0 0 262 42" fill="none" xmlns="http://www.w3.org/2000/svg">
<g clip-path="url(#clip0_284_12784)">
<path fill-rule="evenodd" clip-rule="evenodd" d="M8.67574 4.08766C2.86237 5.28265 -1.13243 11.3107 0.249974 16.8009C0.485506 17.7354 0.726683 18.5475 0.785951 18.6058C0.845475 18.6641 1.51435 18.2528 2.27252 17.6919C4.82436 15.804 7.58198 14.9029 10.8217 14.8981C14.1871 14.8934 17.0481 15.8555 19.405 17.7852C20.527 18.7036 20.527 18.7036 20.9139 17.9936C21.4917 16.9339 21.6107 13.0676 21.1161 11.4351C20.1488 8.2431 17.2388 5.42847 13.801 4.36019C12.5304 3.96522 9.94089 3.82744 8.67574 4.08766ZM22.6044 4.18319C20.6152 4.65661 20.5693 4.73154 21.5355 5.92376C22.8453 7.53938 23.1976 8.17999 23.8939 10.2127C25.3677 14.5147 24.3517 19.7995 21.4224 23.0687C20.9975 23.5431 20.7143 24.0337 20.7935 24.1591C21.0417 24.5526 23.154 24.9518 24.9723 24.9491C28.0186 24.9443 30.4886 23.9303 32.6769 21.7862C35.0568 19.4541 36.1557 16.1386 35.6128 12.928C34.8554 8.44876 31.3873 4.90476 26.9805 4.10626C25.1293 3.77112 24.2721 3.78595 22.6044 4.18319ZM52.246 11.8615C49.5186 12.6746 47.6421 15.088 47.639 17.7864C47.6362 20.2933 49.3472 22.053 53.1573 23.4622C55.4154 24.2974 55.8395 24.6962 55.8395 25.9854C55.8395 26.801 54.7016 27.7174 53.6887 27.7174C52.737 27.7174 52.0895 27.2498 51.7192 26.2957C51.5073 25.7493 51.349 25.7061 49.5599 25.7061C47.6292 25.7061 47.6292 25.7061 47.6292 26.4111C47.6292 26.7988 47.9235 27.6946 48.2832 28.4018C49.3383 30.4765 51.4214 31.7401 53.7869 31.7401C56.8486 31.7401 59.4204 29.45 59.8561 26.3354C60.2138 23.7777 58.3303 21.5313 54.8866 20.4085C53.9227 20.0939 52.8371 19.534 52.4433 19.1481C51.2908 18.019 51.5561 16.4939 53.0075 15.9048C54.0443 15.4839 55.1701 15.9297 55.5922 16.9281C55.8972 17.6502 55.9311 17.6607 57.9349 17.6607C59.968 17.6607 59.968 17.6607 59.7994 16.7179C59.2139 13.4437 55.3253 10.9436 52.246 11.8615ZM69.1593 12.7581C68.8453 13.4495 66.7686 18.0031 64.5444 22.8776C60.5001 31.7401 60.5001 31.7401 62.6127 31.7401C64.725 31.7401 64.725 31.7401 65.4609 30.2316C66.1967 28.7231 66.1967 28.7231 69.7079 28.7231C73.2193 28.7231 73.2193 28.7231 73.8869 30.2316C74.5545 31.7401 74.5545 31.7401 76.7461 31.7401C78.9377 31.7401 78.9377 31.7401 78.5839 30.923C78.3894 30.4737 76.4682 26.2592 74.3146 21.5577C72.1612 16.8562 70.2487 12.6701 70.0648 12.2552C69.7302 11.501 69.7302 11.501 69.1593 12.7581ZM112.89 11.8665C109.914 12.562 107.666 16.1147 108.434 18.909C108.969 20.855 111.127 22.6473 114.048 23.5711C115.767 24.1146 116.39 24.7047 116.39 25.7881C116.39 28.0835 113.112 28.4747 112.423 26.2615C112.254 25.7177 112.134 25.6898 110.276 25.7586C108.308 25.8318 108.308 25.8318 108.396 26.7052C108.598 28.6967 110.618 30.9814 112.653 31.5181C114.388 31.976 116.487 31.6941 117.732 30.8363C119.773 29.4309 120.956 26.5348 120.391 24.3286C119.999 22.7967 117.473 20.8728 114.975 20.2036C112.762 19.6105 111.729 17.9179 112.781 16.6075C113.839 15.2898 115.903 15.542 116.286 17.0354C116.439 17.6356 116.527 17.6607 118.47 17.6607C120.495 17.6607 120.495 17.6607 120.49 16.9693C120.474 15.0339 118.392 12.6844 116.102 12.0179C114.656 11.5973 114.145 11.5731 112.89 11.8665ZM197.544 12.0403C196.268 12.4833 194.671 13.9284 194.057 15.1953C193.795 15.7354 193.619 16.6978 193.622 17.573C193.63 20.3162 195.218 22.0095 199.146 23.4622C201.404 24.2974 201.828 24.6962 201.828 25.9854C201.828 26.801 200.69 27.7174 199.677 27.7174C198.725 27.7174 198.078 27.2498 197.708 26.2957C197.496 25.7493 197.337 25.7061 195.548 25.7061C193.618 25.7061 193.618 25.7061 193.618 26.4111C193.618 27.4645 194.806 29.5986 195.811 30.3498C197.699 31.7605 200.085 32.1447 202.029 31.3502C204.74 30.2422 206.517 26.8181 205.676 24.3218C205.081 22.5566 202.843 20.6621 200.955 20.3268C200.582 20.2604 199.791 19.9436 199.198 19.6228C197.866 18.9032 197.432 17.9398 197.996 16.9557C198.83 15.499 200.534 15.4465 201.443 16.8496C201.945 17.6245 201.998 17.6416 203.945 17.6509C205.839 17.6602 205.933 17.6341 205.93 17.095C205.926 16.1105 204.769 14.0493 203.682 13.0892C202.044 11.642 199.797 11.2581 197.544 12.0403ZM211.655 12.0403C210.379 12.4833 208.782 13.9284 208.168 15.1953C207.565 16.4418 207.595 18.68 208.231 19.9029C209.046 21.4682 210.76 22.7494 213.11 23.5512C215.385 24.3273 216.117 24.9948 215.803 26.0081C215.509 26.9572 214.631 27.7174 213.83 27.7174C213.03 27.7174 211.834 26.7452 211.834 26.0945C211.834 25.7765 211.462 25.7061 209.782 25.7061C207.729 25.7061 207.729 25.7061 207.729 26.4111C207.729 26.7988 208.023 27.6946 208.383 28.4018C209.855 31.2974 213.448 32.5507 216.452 31.2162C218.004 30.5268 218.714 29.8439 219.435 28.346C220.545 26.0372 220.128 23.8074 218.264 22.0988C217.6 21.4903 216.519 20.8223 215.804 20.5787C212.295 19.3832 211.284 18.3926 212.107 16.9557C212.941 15.499 214.645 15.4465 215.554 16.8496C216.057 17.6245 216.11 17.6416 218.056 17.6509C219.951 17.6602 220.044 17.6341 220.042 17.095C220.037 16.1105 218.881 14.0493 217.794 13.0892C216.156 11.642 213.908 11.2581 211.655 12.0403ZM80.4702 21.8091C80.4702 31.7401 80.4702 31.7401 86.6279 31.7401C92.7856 31.7401 92.7856 31.7401 92.7856 29.7288C92.7856 27.7174 92.7856 27.7174 88.6805 27.7174C84.5754 27.7174 84.5754 27.7174 84.5754 19.7978C84.5754 11.8781 84.5754 11.8781 82.5228 11.8781C80.4702 11.8781 80.4702 11.8781 80.4702 21.8091ZM94.325 21.8091C94.325 31.7401 94.325 31.7401 100.354 31.7401C106.384 31.7401 106.384 31.7401 106.384 29.7288C106.384 27.7174 106.384 27.7174 102.279 27.7174C98.1736 27.7174 98.1736 27.7174 98.1736 25.7061C98.1736 23.6948 98.1736 23.6948 101.252 23.6948C104.331 23.6948 104.331 23.6948 104.331 21.8172C104.331 19.9393 104.331 19.9393 101.317 19.8687C98.3019 19.7978 98.3019 19.7978 98.3019 17.7864C98.3019 15.7751 98.3019 15.7751 102.343 15.7059C106.384 15.6366 106.384 15.6366 106.384 13.7575C106.384 11.8781 106.384 11.8781 100.354 11.8781C94.325 11.8781 94.325 11.8781 94.325 21.8091ZM129.732 11.9626C129.732 12.0091 130.996 14.2339 132.541 16.9062C134.963 21.0966 135.311 21.8375 135.066 22.2901C134.91 22.5787 133.645 24.7789 132.257 27.1794C130.868 29.58 129.732 31.5926 129.732 31.6519C129.732 31.7112 130.739 31.7271 131.969 31.6871C134.207 31.6144 134.207 31.6144 135.813 28.8506C136.696 27.3305 137.507 26.0583 137.616 26.0236C137.725 25.9889 138.564 27.2604 139.481 28.8488C141.149 31.7374 141.149 31.7374 143.394 31.7386C144.629 31.7394 145.639 31.669 145.639 31.5817C145.639 31.4948 144.364 29.2375 142.805 26.5657C139.971 21.7078 139.971 21.7078 142.51 17.3585C143.907 14.9665 145.187 12.7548 145.354 12.4438C145.657 11.8781 145.657 11.8781 143.403 11.8796C141.149 11.8809 141.149 11.8809 139.481 14.7694C138.564 16.3581 137.756 17.6559 137.685 17.6537C137.615 17.6512 136.814 16.3508 135.906 14.7636C134.255 11.8781 134.255 11.8781 131.993 11.8781C130.75 11.8781 129.732 11.9161 129.732 11.9626ZM147.435 21.7888C147.435 31.7401 147.435 31.7401 149.359 31.7401C151.284 31.7401 151.284 31.7401 151.284 28.7231C151.284 25.7061 151.284 25.7061 153.657 25.7006C156.47 25.694 157.756 25.2324 159.432 23.6266C162.868 20.3346 161.948 14.8627 157.57 12.5484C156.65 12.0624 156.069 11.9973 151.989 11.9216C147.435 11.8374 147.435 11.8374 147.435 21.7888ZM163.342 21.7883C163.342 31.7401 163.342 31.7401 165.395 31.7401C167.448 31.7401 167.448 31.7401 167.448 27.8017C167.448 23.8632 167.448 23.8632 170.077 27.7997C172.707 31.7359 172.707 31.7359 175.08 31.7381C176.386 31.7391 177.454 31.6763 177.454 31.5986C177.454 31.5206 176.472 29.9872 175.273 28.1914C174.073 26.3955 173.092 24.889 173.092 24.8437C173.092 24.7985 173.439 24.6207 173.863 24.4485C174.821 24.0596 176.088 22.6702 176.712 21.3226C177.286 20.0834 177.358 17.266 176.844 16.063C176.306 14.8006 174.949 13.4278 173.5 12.6811C172.256 12.0398 171.986 12.0041 167.768 11.9224C163.342 11.8366 163.342 11.8366 163.342 21.7883ZM179.506 21.8091C179.506 31.7401 179.506 31.7401 185.664 31.7401C191.822 31.7401 191.822 31.7401 191.822 29.7288C191.822 27.7174 191.822 27.7174 187.717 27.7174C183.611 27.7174 183.611 27.7174 183.611 25.7061C183.611 23.6948 183.611 23.6948 186.69 23.6948C189.769 23.6948 189.769 23.6948 189.769 21.8091C189.769 19.9235 189.769 19.9235 186.69 19.9235C183.611 19.9235 183.611 19.9235 183.611 17.7751C183.611 15.6267 183.611 15.6267 187.396 15.6499C189.477 15.6627 191.325 15.668 191.501 15.6612C191.728 15.6529 191.822 15.0983 191.822 13.7637C191.822 11.8781 191.822 11.8781 185.664 11.8781C179.506 11.8781 179.506 11.8781 179.506 21.8091ZM151.476 15.7909C151.37 15.8975 151.284 17.2667 151.284 18.8341C151.284 21.6834 151.284 21.6834 153.49 21.6834C155.657 21.6834 155.712 21.6683 156.569 20.8286C157.284 20.1281 157.441 19.7834 157.441 18.9188C157.441 17.7515 156.901 16.6666 156.065 16.1507C155.455 15.7756 151.778 15.487 151.476 15.7909ZM167.448 18.5673C167.448 21.4853 167.448 21.4853 169.496 21.394C171.299 21.3138 171.625 21.2238 172.218 20.6428C173.138 19.7412 173.313 18.0881 172.606 16.9847C172.013 16.0594 170.852 15.6529 168.794 15.6509C167.448 15.6494 167.448 15.6494 167.448 18.5673ZM7.71873 18.284C5.88503 18.8517 4.56112 19.6479 3.14665 21.034C-3.0354 27.0919 0.42547 37.3143 9.16938 38.8236C10.3732 39.0315 11.1953 39.0257 12.4417 38.8007C15.1216 38.3167 15.1985 38.2272 14.124 36.8477C10.7599 32.5288 10.2375 27.0359 12.7311 22.1953C13.1549 21.3727 13.8659 20.2928 14.3113 19.7958C14.7701 19.2839 15.0212 18.8034 14.8906 18.6878C14.0044 17.9031 9.72691 17.6622 7.71873 18.284ZM68.8132 22.8776C68.4199 23.8112 68.0407 24.7163 67.9706 24.889C67.876 25.1228 68.3155 25.2033 69.6881 25.2033C70.7029 25.2033 71.4946 25.1112 71.4474 24.9991C70.355 22.3899 69.7943 21.1821 69.6756 21.1813C69.595 21.1808 69.2068 21.9441 68.8132 22.8776ZM14.6556 25.4678C13.9542 27.5374 14.1974 30.6797 15.2239 32.8064C17.266 37.037 22.1559 39.5768 26.7496 38.7929C32.6258 37.7903 36.6386 32.2188 35.5971 26.5086C35.1392 23.998 35.0902 23.967 33.472 25.1643C28.2713 29.012 20.8431 28.9134 16.2194 24.9355C15.7478 24.5297 15.2999 24.1976 15.2239 24.1976C15.1482 24.1976 14.8924 24.7691 14.6556 25.4678Z" fill="#00668C"/>
</g>
<defs>
<clipPath id="clip0_284_12784">
<rect width="220" height="35" fill="white" transform="translate(0 4)"/>
</clipPath>
</defs>
</svg>
