<svg width="244" height="66" viewBox="0 0 244 66" fill="none" xmlns="http://www.w3.org/2000/svg">
<g clip-path="url(#clip0_258_1956)">
<path d="M74.9586 12.3989C74.9428 12.2998 74.8942 12.2088 74.8204 12.1405C74.7466 12.0722 74.6519 12.0305 74.5515 12.0221C74.3828 12.0082 71.0764 11.9581 71.0764 11.9581C71.0764 11.9581 68.3119 9.28431 68.0387 9.01308C67.7655 8.74108 67.2322 8.82276 67.0248 8.8844C67.0225 8.88594 66.5063 9.04467 65.6364 9.31282C65.4643 8.75195 65.2416 8.20776 64.9708 7.68697C63.9878 5.81686 62.5452 4.82825 60.8038 4.82517H60.7969C60.6761 4.82517 60.5569 4.83672 60.4354 4.84674C60.3844 4.78547 60.332 4.72536 60.2783 4.66643C59.5198 3.85736 58.5462 3.46438 57.3806 3.49906C55.1315 3.56301 52.891 5.18039 51.0745 8.05298C49.7959 10.0749 48.8239 12.6146 48.5476 14.581L44.1198 15.9472C42.8157 16.3548 42.7747 16.3941 42.6044 17.6185C42.4775 18.5432 39.0659 44.8057 39.0659 44.8057L67.6556 49.7295L80.0465 46.6627C80.0465 46.6627 74.9903 12.6323 74.9586 12.3989ZM64.2038 9.75435L61.9856 10.4378C61.9686 9.30435 61.8339 7.72627 61.303 6.36318C63.0096 6.68526 63.8493 8.60778 64.2038 9.75435ZM60.4896 10.8994L55.7167 12.3711C56.1779 10.6127 57.0525 8.86128 58.1275 7.71394C58.5269 7.28629 59.0857 6.81086 59.7482 6.53886C60.3704 7.83184 60.5051 9.66111 60.4896 10.8994ZM57.4248 4.98929C57.9534 4.97773 58.3976 5.09332 58.7776 5.3422C58.1693 5.65659 57.5819 6.10812 57.0308 6.69682C55.6021 8.2225 54.507 10.5919 54.0705 12.8774C52.7083 13.2973 51.3763 13.7088 50.1496 14.0856C50.9236 10.4879 53.9528 5.08946 57.4248 4.98929Z" fill="#95BF47"/>
<path d="M74.5526 12.0235C74.3839 12.0089 71.0784 11.9588 71.0784 11.9588C71.0784 11.9588 68.3138 9.28578 68.0406 9.01455C67.9348 8.91664 67.8003 8.85507 67.6567 8.83887L67.6575 49.7279L80.0477 46.6626C80.0477 46.6626 74.9922 12.6338 74.9597 12.4003C74.944 12.3012 74.8954 12.2101 74.8216 12.1416C74.7478 12.0732 74.6531 12.0314 74.5526 12.0228V12.0235Z" fill="#5E8E3E"/>
<path d="M60.7886 18.366L59.3491 23.7259C59.3491 23.7259 57.7439 22.9993 55.8415 23.1179C53.0507 23.2944 53.0213 25.0458 53.0499 25.4858C53.2016 27.883 59.5356 28.4062 59.8916 34.0219C60.171 38.4395 57.538 41.4615 53.7441 41.7004C49.1894 41.9855 46.6826 39.3117 46.6826 39.3117L47.6477 35.2255C47.6477 35.2255 50.1708 37.1211 52.1908 36.9939C53.5104 36.9107 53.9825 35.8419 53.9345 35.0868C53.7364 31.9599 48.578 32.1441 48.2522 27.0061C47.9774 22.6826 50.8294 18.3005 57.1232 17.906C59.548 17.7503 60.7886 18.366 60.7886 18.366Z" fill="white"/>
<path d="M96.363 29.5905C94.9389 28.82 94.206 28.1719 94.206 27.2797C94.206 26.1454 95.223 25.4165 96.8119 25.4165C98.6609 25.4165 100.312 26.1862 100.312 26.1862L101.613 22.2141C101.613 22.2141 100.416 21.2817 96.8924 21.2817C91.9879 21.2817 88.5887 24.078 88.5887 28.0086C88.5887 30.2378 90.1753 31.9399 92.2936 33.1551C94.0032 34.1267 94.6139 34.8164 94.6139 35.8289C94.6139 36.8822 93.7587 37.7336 92.1721 37.7336C89.8069 37.7336 87.5733 36.5177 87.5733 36.5177L86.1895 40.4891C86.1895 40.4891 88.2528 41.8669 91.7247 41.8669C96.7717 41.8669 100.395 39.3949 100.395 34.9373C100.393 32.5486 98.5626 30.8465 96.363 29.5905ZM116.471 21.2424C113.988 21.2424 112.034 22.4175 110.529 24.1998L110.447 24.1589L112.604 12.9344H106.987L101.533 41.5032H107.15L109.023 31.7373C109.755 28.0487 111.669 25.7809 113.46 25.7809C114.721 25.7809 115.21 26.6316 115.21 27.8475C115.21 28.6181 115.129 29.5505 114.966 30.3195L112.85 41.5039H118.468L120.665 29.955C120.91 28.7383 121.073 27.2812 121.073 26.3072C121.071 23.1457 119.402 21.2417 116.472 21.2417L116.471 21.2424ZM133.769 21.2424C127.011 21.2424 122.536 27.3205 122.536 34.0874C122.536 38.4233 125.221 41.9077 130.269 41.9077C136.903 41.9077 141.381 35.9922 141.381 29.0627C141.381 25.0512 139.019 21.2417 133.769 21.2417V21.2424ZM131.001 37.6142C129.088 37.6142 128.274 35.993 128.274 33.9664C128.274 30.7656 129.943 25.5382 132.996 25.5382C134.99 25.5382 135.64 27.2411 135.64 28.9017C135.64 32.346 133.973 37.6142 131.001 37.6142ZM155.748 21.2424C151.957 21.2424 149.805 24.565 149.805 24.565H149.724L150.05 21.5668H145.085C144.841 23.5934 144.392 26.6717 143.945 28.9818L140.038 49.4452H145.655L147.201 41.1788H147.324C147.324 41.1788 148.476 41.9077 150.621 41.9077C157.214 41.9077 161.528 35.1816 161.528 28.3731C161.528 24.6059 159.859 21.2424 155.748 21.2424ZM150.375 37.6936C148.917 37.6936 148.054 36.8837 148.054 36.8837L148.991 31.6563C149.642 28.1719 151.474 25.8618 153.428 25.8618C155.137 25.8618 155.666 27.4415 155.666 28.9417C155.666 32.5479 153.509 37.6936 150.375 37.6936ZM169.546 13.2187C167.756 13.2187 166.331 14.6365 166.331 16.4597C166.331 18.1217 167.389 19.2567 168.976 19.2567H169.058C170.808 19.2567 172.314 18.0809 172.355 16.015C172.355 14.3938 171.256 13.2187 169.546 13.2187ZM161.691 41.5032H167.307L171.134 21.6886H165.476L161.691 41.5032ZM185.421 21.6477H181.513L181.716 20.7154C182.041 18.8106 183.182 17.1092 185.054 17.1092C185.662 17.1106 186.266 17.2063 186.844 17.3928L187.943 13.0161C187.943 13.0161 186.966 12.5306 184.89 12.5306C182.895 12.5306 180.902 13.0978 179.395 14.3938C177.482 16.015 176.587 18.3644 176.139 20.7154L175.978 21.6477H173.372L172.558 25.8626H175.163L172.192 41.5047H177.81L180.781 25.8626H184.647L185.421 21.6477ZM198.933 21.6893C198.933 21.6893 195.422 30.4967 193.845 35.3041H193.763C193.656 33.7553 192.379 21.6886 192.379 21.6886H186.477L189.857 39.8819C189.939 40.2872 189.898 40.5315 189.735 40.8143C189.082 42.0703 187.984 43.287 186.681 44.1785C185.623 44.9483 184.443 45.4345 183.507 45.7581L185.054 50.5C186.194 50.2573 188.553 49.3242 190.548 47.461C193.113 45.07 195.473 41.3822 197.914 36.3575L204.793 21.687H198.933V21.6893Z" fill="black"/>
</g>
<defs>
<clipPath id="clip0_258_1956">
<rect width="170" height="48" fill="white" transform="translate(36.9297 2.5)"/>
</clipPath>
</defs>
</svg>
